<svg width="727" height="147" viewBox="0 0 727 147" fill="none" xmlns="http://www.w3.org/2000/svg">
<g clip-path="url(#clip0_1570_9305)">
<g opacity="0.1" filter="url(#filter0_f_1570_9305)">
<path d="M70.4375 117.966C70.6378 120.469 72.6139 122.421 76.1655 122.652V124.5H77.741V122.639C81.4128 122.382 83.5625 120.418 83.5625 117.568C83.5625 114.976 81.9202 113.641 78.9828 112.947L77.741 112.652V107.62C79.3166 107.8 80.318 108.66 80.5583 109.854H83.3222C83.1219 107.441 81.0523 105.554 77.741 105.348V103.5H76.1655V105.387C73.0278 105.695 70.8915 107.582 70.8915 110.252C70.8915 112.614 72.4804 114.116 75.124 114.732L76.1655 114.988V120.328C74.5499 120.084 73.4818 119.199 73.2414 117.966H70.4375ZM76.1521 112.28C74.6033 111.921 73.7621 111.189 73.7621 110.085C73.7621 108.853 74.6701 107.928 76.1655 107.659V112.28H76.1521ZM77.968 115.412C79.8506 115.848 80.7185 116.554 80.7185 117.8C80.7185 119.224 79.637 120.2 77.741 120.38V115.361L77.968 115.412Z" fill="white"/>
<path d="M77 132.375C66.8518 132.375 58.625 124.148 58.625 114C58.625 103.852 66.8518 95.625 77 95.625C87.1482 95.625 95.375 103.852 95.375 114C95.375 124.148 87.1482 132.375 77 132.375ZM77 135C88.598 135 98 125.598 98 114C98 102.402 88.598 93 77 93C65.402 93 56 102.402 56 114C56 125.598 65.402 135 77 135Z" fill="white"/>
<path d="M77 128.438C69.0264 128.438 62.5625 121.974 62.5625 114C62.5625 106.026 69.0264 99.5625 77 99.5625C84.9736 99.5625 91.4375 106.026 91.4375 114C91.4375 121.974 84.9736 128.438 77 128.438ZM77 129.75C85.6985 129.75 92.75 122.698 92.75 114C92.75 105.302 85.6985 98.25 77 98.25C68.3015 98.25 61.25 105.302 61.25 114C61.25 122.698 68.3015 129.75 77 129.75Z" fill="white"/>
</g>
<g opacity="0.1">
<path d="M159.438 45.9664C159.638 48.4694 161.614 50.4205 165.166 50.6516V52.5H166.741V50.6388C170.413 50.382 172.562 48.4181 172.562 45.5685C172.562 42.9755 170.92 41.6406 167.983 40.9474L166.741 40.6522V35.6204C168.317 35.8001 169.318 36.6601 169.558 37.8539H172.322C172.122 35.4407 170.052 33.5538 166.741 33.3484V31.5H165.166V33.3869C162.028 33.695 159.891 35.5819 159.891 38.2518C159.891 40.6137 161.48 42.1155 164.124 42.7317L165.166 42.9884V48.3282C163.55 48.0844 162.482 47.1987 162.241 45.9664H159.438ZM165.152 40.28C163.603 39.9205 162.762 39.1889 162.762 38.085C162.762 36.8527 163.67 35.9285 165.166 35.6589V40.28H165.152ZM166.968 43.412C168.851 43.8484 169.719 44.5544 169.719 45.7995C169.719 47.2243 168.637 48.1999 166.741 48.3796V43.3606L166.968 43.412Z" fill="white"/>
<path d="M166 60.375C155.852 60.375 147.625 52.1482 147.625 42C147.625 31.8518 155.852 23.625 166 23.625C176.148 23.625 184.375 31.8518 184.375 42C184.375 52.1482 176.148 60.375 166 60.375ZM166 63C177.598 63 187 53.598 187 42C187 30.402 177.598 21 166 21C154.402 21 145 30.402 145 42C145 53.598 154.402 63 166 63Z" fill="white"/>
<path d="M166 56.4375C158.026 56.4375 151.562 49.9736 151.562 42C151.562 34.0264 158.026 27.5625 166 27.5625C173.974 27.5625 180.438 34.0264 180.438 42C180.438 49.9736 173.974 56.4375 166 56.4375ZM166 57.75C174.698 57.75 181.75 50.6985 181.75 42C181.75 33.3015 174.698 26.25 166 26.25C157.302 26.25 150.25 33.3015 150.25 42C150.25 50.6985 157.302 57.75 166 57.75Z" fill="white"/>
</g>
<g opacity="0.1">
<path d="M306.438 125.966C306.638 128.469 308.614 130.421 312.166 130.652V132.5H313.741V130.639C317.413 130.382 319.562 128.418 319.562 125.568C319.562 122.976 317.92 121.641 314.983 120.947L313.741 120.652V115.62C315.317 115.8 316.318 116.66 316.558 117.854H319.322C319.122 115.441 317.052 113.554 313.741 113.348V111.5H312.166V113.387C309.028 113.695 306.891 115.582 306.891 118.252C306.891 120.614 308.48 122.116 311.124 122.732L312.166 122.988V128.328C310.55 128.084 309.482 127.199 309.241 125.966H306.438ZM312.152 120.28C310.603 119.921 309.762 119.189 309.762 118.085C309.762 116.853 310.67 115.928 312.166 115.659V120.28H312.152ZM313.968 123.412C315.851 123.848 316.719 124.554 316.719 125.8C316.719 127.224 315.637 128.2 313.741 128.38V123.361L313.968 123.412Z" fill="white"/>
<path d="M313 140.375C302.852 140.375 294.625 132.148 294.625 122C294.625 111.852 302.852 103.625 313 103.625C323.148 103.625 331.375 111.852 331.375 122C331.375 132.148 323.148 140.375 313 140.375ZM313 143C324.598 143 334 133.598 334 122C334 110.402 324.598 101 313 101C301.402 101 292 110.402 292 122C292 133.598 301.402 143 313 143Z" fill="white"/>
<path d="M313 136.438C305.026 136.438 298.562 129.974 298.562 122C298.562 114.026 305.026 107.562 313 107.562C320.974 107.562 327.438 114.026 327.438 122C327.438 129.974 320.974 136.438 313 136.438ZM313 137.75C321.698 137.75 328.75 130.698 328.75 122C328.75 113.302 321.698 106.25 313 106.25C304.302 106.25 297.25 113.302 297.25 122C297.25 130.698 304.302 137.75 313 137.75Z" fill="white"/>
</g>
<g opacity="0.1" filter="url(#filter1_f_1570_9305)">
<path d="M211.031 117.805C211.198 119.891 212.845 121.517 215.805 121.71V123.25H217.118V121.699C220.177 121.485 221.969 119.848 221.969 117.474C221.969 115.313 220.6 114.2 218.152 113.623L217.118 113.377V109.184C218.43 109.333 219.265 110.05 219.465 111.045H221.768C221.602 109.034 219.877 107.461 217.118 107.29V105.75H215.805V107.322C213.19 107.579 211.41 109.152 211.41 111.377C211.41 113.345 212.734 114.596 214.937 115.11L215.805 115.324V119.774C214.458 119.57 213.568 118.832 213.368 117.805H211.031ZM215.793 113.067C214.503 112.767 213.802 112.157 213.802 111.237C213.802 110.211 214.558 109.44 215.805 109.216V113.067H215.793ZM217.307 115.677C218.876 116.04 219.599 116.629 219.599 117.666C219.599 118.854 218.698 119.667 217.118 119.816V115.634L217.307 115.677Z" fill="white"/>
<path d="M216.5 129.812C208.043 129.812 201.188 122.957 201.188 114.5C201.188 106.043 208.043 99.1875 216.5 99.1875C224.957 99.1875 231.812 106.043 231.812 114.5C231.812 122.957 224.957 129.812 216.5 129.812ZM216.5 132C226.165 132 234 124.165 234 114.5C234 104.835 226.165 97 216.5 97C206.835 97 199 104.835 199 114.5C199 124.165 206.835 132 216.5 132Z" fill="white"/>
<path d="M216.5 126.531C209.855 126.531 204.469 121.145 204.469 114.5C204.469 107.855 209.855 102.469 216.5 102.469C223.145 102.469 228.531 107.855 228.531 114.5C228.531 121.145 223.145 126.531 216.5 126.531ZM216.5 127.625C223.749 127.625 229.625 121.749 229.625 114.5C229.625 107.251 223.749 101.375 216.5 101.375C209.251 101.375 203.375 107.251 203.375 114.5C203.375 121.749 209.251 127.625 216.5 127.625Z" fill="white"/>
</g>
<g opacity="0.1" filter="url(#filter2_f_1570_9305)">
<path d="M579.438 24.9664C579.638 27.4694 581.614 29.4205 585.166 29.6516V31.5H586.741V29.6388C590.413 29.382 592.562 27.4181 592.562 24.5685C592.562 21.9755 590.92 20.6406 587.983 19.9474L586.741 19.6522V14.6204C588.317 14.8001 589.318 15.6601 589.558 16.8539H592.322C592.122 14.4407 590.052 12.5538 586.741 12.3484V10.5H585.166V12.3869C582.028 12.695 579.891 14.5819 579.891 17.2518C579.891 19.6137 581.48 21.1155 584.124 21.7317L585.166 21.9884V27.3282C583.55 27.0844 582.482 26.1987 582.241 24.9664H579.438ZM585.152 19.28C583.603 18.9205 582.762 18.1889 582.762 17.085C582.762 15.8527 583.67 14.9285 585.166 14.6589V19.28H585.152ZM586.968 22.412C588.851 22.8484 589.719 23.5544 589.719 24.7995C589.719 26.2243 588.637 27.1999 586.741 27.3796V22.3606L586.968 22.412Z" fill="white"/>
<path d="M586 39.375C575.852 39.375 567.625 31.1482 567.625 21C567.625 10.8518 575.852 2.625 586 2.625C596.148 2.625 604.375 10.8518 604.375 21C604.375 31.1482 596.148 39.375 586 39.375ZM586 42C597.598 42 607 32.598 607 21C607 9.40202 597.598 0 586 0C574.402 0 565 9.40202 565 21C565 32.598 574.402 42 586 42Z" fill="white"/>
<path d="M586 35.4375C578.026 35.4375 571.562 28.9736 571.562 21C571.562 13.0264 578.026 6.5625 586 6.5625C593.974 6.5625 600.438 13.0264 600.438 21C600.438 28.9736 593.974 35.4375 586 35.4375ZM586 36.75C594.698 36.75 601.75 29.6985 601.75 21C601.75 12.3015 594.698 5.25 586 5.25C577.302 5.25 570.25 12.3015 570.25 21C570.25 29.6985 577.302 36.75 586 36.75Z" fill="white"/>
</g>
<g opacity="0.1">
<path d="M644.438 104.966C644.638 107.469 646.614 109.421 650.166 109.652V111.5H651.741V109.639C655.413 109.382 657.562 107.418 657.562 104.568C657.562 101.976 655.92 100.641 652.983 99.9474L651.741 99.6522V94.6204C653.317 94.8001 654.318 95.6601 654.558 96.8539H657.322C657.122 94.4407 655.052 92.5538 651.741 92.3484V90.5H650.166V92.3869C647.028 92.695 644.891 94.5819 644.891 97.2518C644.891 99.6137 646.48 101.116 649.124 101.732L650.166 101.988V107.328C648.55 107.084 647.482 106.199 647.241 104.966H644.438ZM650.152 99.28C648.603 98.9205 647.762 98.1889 647.762 97.085C647.762 95.8527 648.67 94.9285 650.166 94.6589V99.28H650.152ZM651.968 102.412C653.851 102.848 654.719 103.554 654.719 104.8C654.719 106.224 653.637 107.2 651.741 107.38V102.361L651.968 102.412Z" fill="white"/>
<path d="M651 119.375C640.852 119.375 632.625 111.148 632.625 101C632.625 90.8518 640.852 82.625 651 82.625C661.148 82.625 669.375 90.8518 669.375 101C669.375 111.148 661.148 119.375 651 119.375ZM651 122C662.598 122 672 112.598 672 101C672 89.402 662.598 80 651 80C639.402 80 630 89.402 630 101C630 112.598 639.402 122 651 122Z" fill="white"/>
<path d="M651 115.438C643.026 115.438 636.562 108.974 636.562 101C636.562 93.0264 643.026 86.5625 651 86.5625C658.974 86.5625 665.438 93.0264 665.438 101C665.438 108.974 658.974 115.438 651 115.438ZM651 116.75C659.698 116.75 666.75 109.698 666.75 101C666.75 92.3015 659.698 85.25 651 85.25C642.302 85.25 635.25 92.3015 635.25 101C635.25 109.698 642.302 116.75 651 116.75Z" fill="white"/>
</g>
<g opacity="0.1" filter="url(#filter3_f_1570_9305)">
<path d="M379.031 42.8053C379.198 44.8912 380.845 46.5171 383.805 46.7097V48.25H385.118V46.699C388.177 46.485 389.969 44.8484 389.969 42.4737C389.969 40.313 388.6 39.2005 386.152 38.6229L385.118 38.3768V34.1837C386.43 34.3334 387.265 35.0501 387.465 36.0449H389.768C389.602 34.0339 387.877 32.4615 385.118 32.2903V30.75H383.805V32.3224C381.19 32.5792 379.41 34.1516 379.41 36.3765C379.41 38.3447 380.734 39.5963 382.937 40.1097L383.805 40.3237V44.7735C382.458 44.5703 381.568 43.8322 381.368 42.8053H379.031ZM383.793 38.0666C382.503 37.7671 381.802 37.1574 381.802 36.2375C381.802 35.2106 382.558 34.4404 383.805 34.2158V38.0666H383.793ZM385.307 40.6766C386.876 41.0403 387.599 41.6287 387.599 42.6663C387.599 43.8536 386.698 44.6666 385.118 44.8163V40.6339L385.307 40.6766Z" fill="white"/>
<path d="M384.5 54.8125C376.043 54.8125 369.188 47.9569 369.188 39.5C369.188 31.0431 376.043 24.1875 384.5 24.1875C392.957 24.1875 399.812 31.0431 399.812 39.5C399.812 47.9569 392.957 54.8125 384.5 54.8125ZM384.5 57C394.165 57 402 49.165 402 39.5C402 29.835 394.165 22 384.5 22C374.835 22 367 29.835 367 39.5C367 49.165 374.835 57 384.5 57Z" fill="white"/>
<path d="M384.5 51.5312C377.855 51.5312 372.469 46.1447 372.469 39.5C372.469 32.8553 377.855 27.4688 384.5 27.4688C391.145 27.4688 396.531 32.8553 396.531 39.5C396.531 46.1447 391.145 51.5312 384.5 51.5312ZM384.5 52.625C391.749 52.625 397.625 46.7487 397.625 39.5C397.625 32.2513 391.749 26.375 384.5 26.375C377.251 26.375 371.375 32.2513 371.375 39.5C371.375 46.7487 377.251 52.625 384.5 52.625Z" fill="white"/>
</g>
<g opacity="0.1" filter="url(#filter4_f_1570_9305)">
<path d="M488 45.022C488.153 46.9291 489.658 48.4156 492.364 48.5917V50H493.565V48.5819C496.362 48.3863 498 46.89 498 44.7188C498 42.7433 496.749 41.7262 494.511 41.198L493.565 40.9731V37.1394C494.765 37.2763 495.528 37.9315 495.711 38.8411H497.817C497.664 37.0024 496.087 35.5648 493.565 35.4083V34H492.364V35.4377C489.974 35.6724 488.346 37.11 488.346 39.1443C488.346 40.9438 489.556 42.088 491.571 42.5575L492.364 42.7531V46.8215C491.133 46.6357 490.319 45.9609 490.136 45.022H488ZM492.354 40.6895C491.174 40.4156 490.533 39.8582 490.533 39.0171C490.533 38.0782 491.225 37.3741 492.364 37.1687V40.6895H492.354ZM493.738 43.0758C495.172 43.4083 495.833 43.9462 495.833 44.8949C495.833 45.9804 495.009 46.7237 493.565 46.8606V43.0367L493.738 43.0758Z" fill="white"/>
<path d="M493 56C485.268 56 479 49.732 479 42C479 34.268 485.268 28 493 28C500.732 28 507 34.268 507 42C507 49.732 500.732 56 493 56ZM493 58C501.837 58 509 50.8366 509 42C509 33.1634 501.837 26 493 26C484.163 26 477 33.1634 477 42C477 50.8366 484.163 58 493 58Z" fill="white"/>
<path d="M493 53C486.925 53 482 48.0751 482 42C482 35.9249 486.925 31 493 31C499.075 31 504 35.9249 504 42C504 48.0751 499.075 53 493 53ZM493 54C499.627 54 505 48.6274 505 42C505 35.3726 499.627 30 493 30C486.373 30 481 35.3726 481 42C481 48.6274 486.373 54 493 54Z" fill="white"/>
</g>
<g opacity="0.1" filter="url(#filter5_f_1570_9305)">
<path d="M447.031 117.805C447.198 119.891 448.845 121.517 451.805 121.71V123.25H453.118V121.699C456.177 121.485 457.969 119.848 457.969 117.474C457.969 115.313 456.6 114.2 454.152 113.623L453.118 113.377V109.184C454.43 109.333 455.265 110.05 455.465 111.045H457.768C457.602 109.034 455.877 107.461 453.118 107.29V105.75H451.805V107.322C449.19 107.579 447.41 109.152 447.41 111.377C447.41 113.345 448.734 114.596 450.937 115.11L451.805 115.324V119.774C450.458 119.57 449.568 118.832 449.368 117.805H447.031ZM451.793 113.067C450.503 112.767 449.802 112.157 449.802 111.237C449.802 110.211 450.558 109.44 451.805 109.216V113.067H451.793ZM453.307 115.677C454.876 116.04 455.599 116.629 455.599 117.666C455.599 118.854 454.698 119.667 453.118 119.816V115.634L453.307 115.677Z" fill="white"/>
<path d="M452.5 129.812C444.043 129.812 437.188 122.957 437.188 114.5C437.188 106.043 444.043 99.1875 452.5 99.1875C460.957 99.1875 467.812 106.043 467.812 114.5C467.812 122.957 460.957 129.812 452.5 129.812ZM452.5 132C462.165 132 470 124.165 470 114.5C470 104.835 462.165 97 452.5 97C442.835 97 435 104.835 435 114.5C435 124.165 442.835 132 452.5 132Z" fill="white"/>
<path d="M452.5 126.531C445.855 126.531 440.469 121.145 440.469 114.5C440.469 107.855 445.855 102.469 452.5 102.469C459.145 102.469 464.531 107.855 464.531 114.5C464.531 121.145 459.145 126.531 452.5 126.531ZM452.5 127.625C459.749 127.625 465.625 121.749 465.625 114.5C465.625 107.251 459.749 101.375 452.5 101.375C445.251 101.375 439.375 107.251 439.375 114.5C439.375 121.749 445.251 127.625 452.5 127.625Z" fill="white"/>
</g>
</g>
<defs>
<filter id="filter0_f_1570_9305" x="52" y="89" width="50" height="50" filterUnits="userSpaceOnUse" color-interpolation-filters="sRGB">
<feFlood flood-opacity="0" result="BackgroundImageFix"/>
<feBlend mode="normal" in="SourceGraphic" in2="BackgroundImageFix" result="shape"/>
<feGaussianBlur stdDeviation="2" result="effect1_foregroundBlur_1570_9305"/>
</filter>
<filter id="filter1_f_1570_9305" x="189" y="87" width="55" height="55" filterUnits="userSpaceOnUse" color-interpolation-filters="sRGB">
<feFlood flood-opacity="0" result="BackgroundImageFix"/>
<feBlend mode="normal" in="SourceGraphic" in2="BackgroundImageFix" result="shape"/>
<feGaussianBlur stdDeviation="5" result="effect1_foregroundBlur_1570_9305"/>
</filter>
<filter id="filter2_f_1570_9305" x="561" y="-4" width="50" height="50" filterUnits="userSpaceOnUse" color-interpolation-filters="sRGB">
<feFlood flood-opacity="0" result="BackgroundImageFix"/>
<feBlend mode="normal" in="SourceGraphic" in2="BackgroundImageFix" result="shape"/>
<feGaussianBlur stdDeviation="2" result="effect1_foregroundBlur_1570_9305"/>
</filter>
<filter id="filter3_f_1570_9305" x="357" y="12" width="55" height="55" filterUnits="userSpaceOnUse" color-interpolation-filters="sRGB">
<feFlood flood-opacity="0" result="BackgroundImageFix"/>
<feBlend mode="normal" in="SourceGraphic" in2="BackgroundImageFix" result="shape"/>
<feGaussianBlur stdDeviation="5" result="effect1_foregroundBlur_1570_9305"/>
</filter>
<filter id="filter4_f_1570_9305" x="465" y="14" width="56" height="56" filterUnits="userSpaceOnUse" color-interpolation-filters="sRGB">
<feFlood flood-opacity="0" result="BackgroundImageFix"/>
<feBlend mode="normal" in="SourceGraphic" in2="BackgroundImageFix" result="shape"/>
<feGaussianBlur stdDeviation="6" result="effect1_foregroundBlur_1570_9305"/>
</filter>
<filter id="filter5_f_1570_9305" x="425" y="87" width="55" height="55" filterUnits="userSpaceOnUse" color-interpolation-filters="sRGB">
<feFlood flood-opacity="0" result="BackgroundImageFix"/>
<feBlend mode="normal" in="SourceGraphic" in2="BackgroundImageFix" result="shape"/>
<feGaussianBlur stdDeviation="5" result="effect1_foregroundBlur_1570_9305"/>
</filter>
<clipPath id="clip0_1570_9305">
<rect width="727" height="147" fill="white"/>
</clipPath>
</defs>
</svg>
