<svg width="287" height="290" viewBox="0 0 287 290" fill="none" xmlns="http://www.w3.org/2000/svg">
<g clip-path="url(#clip0_1042_7622)">
<mask id="mask0_1042_7622" style="mask-type:luminance" maskUnits="userSpaceOnUse" x="0" y="0" width="287" height="290">
<path d="M287 0H0V290H287V0Z" fill="white"/>
</mask>
<g mask="url(#mask0_1042_7622)">
<path d="M217.886 224.329L220.866 229.665V229.666C220.625 229.801 220.538 230.105 220.672 230.346L224.138 236.556C224.273 236.797 224.578 236.884 224.819 236.749V236.748L227.797 242.085V242.086C227.556 242.221 227.47 242.525 227.605 242.766L231.071 248.976C231.205 249.217 231.509 249.303 231.75 249.168L234.729 254.505V254.506C234.488 254.641 234.402 254.945 234.537 255.186L236.033 257.867L233.121 259.615C232.913 259.739 232.829 259.99 232.906 260.209L232.949 260.301L227.149 263.78C227.025 263.573 226.774 263.488 226.554 263.565L226.463 263.608L219.806 267.603C219.569 267.745 219.492 268.051 219.634 268.288L213.834 271.768C213.71 271.561 213.46 271.476 213.241 271.553L213.149 271.596L206.492 275.59C206.255 275.732 206.178 276.039 206.32 276.275L200.52 279.755C200.396 279.548 200.146 279.463 199.926 279.54L199.834 279.583L193.177 283.577C192.97 283.701 192.885 283.952 192.962 284.171L193.005 284.263L187.206 287.742C187.081 287.535 186.831 287.45 186.612 287.527L186.52 287.57L183.632 289.302L182.346 287.002C182.211 286.761 181.906 286.675 181.666 286.81L179.077 282.183C179.317 282.048 179.404 281.744 179.269 281.503L176.192 276.004C176.057 275.763 175.752 275.677 175.511 275.812L172.922 271.185C173.163 271.05 173.249 270.747 173.115 270.506L170.038 265.007L169.98 264.924C169.828 264.748 169.568 264.695 169.357 264.813L166.768 260.188C167.009 260.054 167.095 259.749 166.96 259.508L163.883 254.009L163.826 253.926C163.674 253.75 163.414 253.699 163.204 253.816H163.203L160.614 249.19H160.615C160.856 249.056 160.941 248.751 160.806 248.51L157.729 243.011L157.671 242.928C157.519 242.752 157.259 242.7 157.048 242.818L154.459 238.192H154.46C154.701 238.058 154.788 237.753 154.653 237.512L153.114 234.763L152.97 234.507H148.091C147.815 234.507 147.591 234.731 147.591 235.007H139.419C139.419 234.731 139.195 234.507 138.919 234.507H134.04L133.897 234.763L132.358 237.512C132.24 237.722 132.291 237.982 132.467 238.134L132.55 238.192L129.961 242.818C129.751 242.701 129.491 242.752 129.339 242.928L129.281 243.011L126.204 248.51C126.086 248.72 126.137 248.98 126.313 249.132L126.396 249.19L123.807 253.816C123.596 253.699 123.337 253.75 123.185 253.926L123.126 254.009L120.049 259.508C119.915 259.749 120.001 260.054 120.242 260.188L117.653 264.814L117.56 264.774C117.37 264.714 117.161 264.773 117.031 264.924L116.972 265.007L113.895 270.506C113.761 270.747 113.847 271.051 114.087 271.186L111.499 275.812C111.258 275.678 110.953 275.763 110.818 276.004L107.741 281.503C107.606 281.744 107.692 282.049 107.933 282.184L105.344 286.811C105.103 286.676 104.798 286.761 104.664 287.002L103.376 289.302L100.491 287.57L100.399 287.527C100.18 287.45 99.9286 287.534 99.8042 287.741L94.0044 284.262C94.1459 284.025 94.0698 283.719 93.8335 283.577L87.1763 279.583L87.0845 279.54C86.8652 279.463 86.6142 279.547 86.4897 279.754L80.6899 276.274C80.8314 276.038 80.7554 275.732 80.519 275.59L73.8618 271.596L73.77 271.553C73.5508 271.476 73.2997 271.56 73.1753 271.767L67.3755 268.287C67.517 268.05 67.441 267.745 67.2046 267.603L60.5474 263.608L60.4556 263.565C60.2364 263.488 59.9852 263.572 59.8608 263.779L54.061 260.301H54.062C54.2038 260.064 54.1267 259.757 53.8901 259.615L50.9761 257.867L52.4741 255.186C52.6085 254.944 52.5217 254.64 52.2808 254.506L52.2798 254.505L55.2593 249.169C55.4702 249.287 55.7296 249.235 55.8813 249.059L55.9399 248.976L59.4058 242.766C59.5234 242.555 59.4718 242.295 59.2954 242.144L59.2124 242.086L62.1909 236.749C62.432 236.884 62.737 236.797 62.8716 236.556L66.3374 230.346C66.4718 230.105 66.3851 229.8 66.144 229.665L69.1226 224.328L69.1235 224.329C69.3646 224.464 69.6687 224.377 69.8032 224.136L73.27 217.927C73.4046 217.686 73.3178 217.381 73.0767 217.246L73.0757 217.245L76.0552 211.909C76.266 212.027 76.5254 211.976 76.6772 211.8L76.7358 211.717L80.2017 205.507C80.3362 205.266 80.2494 204.961 80.0083 204.826L82.9868 199.489C83.1978 199.607 83.4581 199.556 83.6099 199.38L83.6675 199.297L87.1333 193.087C87.2678 192.846 87.1819 192.541 86.9409 192.406L86.9399 192.405L89.9185 187.068L89.9194 187.069C90.1304 187.187 90.3898 187.136 90.5415 186.96L90.5991 186.877L94.0649 180.667C94.1995 180.426 94.1137 180.121 93.8726 179.986L93.8716 179.985L96.8501 174.649L96.8511 174.65C97.062 174.768 97.3214 174.716 97.4731 174.54L97.5317 174.457L99.1216 171.608H102.551C102.793 171.608 102.994 171.437 103.041 171.209L103.051 171.108H109.498C109.498 171.385 109.721 171.608 109.998 171.608H117.443C117.719 171.608 117.943 171.385 117.943 171.108H124.389C124.389 171.384 124.613 171.608 124.889 171.608H132.335C132.612 171.608 132.835 171.385 132.835 171.108H139.282C139.282 171.384 139.506 171.608 139.782 171.608H147.228C147.504 171.608 147.728 171.385 147.728 171.108H154.174C154.174 171.35 154.346 171.552 154.574 171.599L154.674 171.608H162.121C162.397 171.608 162.621 171.385 162.621 171.108H169.067C169.067 171.35 169.238 171.552 169.466 171.599L169.567 171.608H177.013C177.255 171.608 177.456 171.437 177.502 171.209L177.513 171.108H183.959C183.959 171.35 184.131 171.552 184.359 171.599L184.459 171.608H187.888L189.479 174.457C189.614 174.698 189.918 174.784 190.159 174.649L193.137 179.986C192.896 180.121 192.81 180.426 192.945 180.667L196.411 186.877C196.545 187.118 196.849 187.204 197.09 187.069L200.069 192.406H200.07C199.829 192.541 199.742 192.846 199.876 193.087L203.342 199.297C203.477 199.538 203.781 199.623 204.022 199.489L207.001 204.825V204.826C206.76 204.961 206.675 205.266 206.809 205.507L210.275 211.717C210.41 211.958 210.714 212.044 210.955 211.909V211.908L213.933 217.245V217.246C213.692 217.381 213.606 217.686 213.741 217.927L217.207 224.136C217.341 224.377 217.645 224.463 217.886 224.329Z" stroke="white" stroke-linecap="round" stroke-dasharray="7 7"/>
<path d="M237.495 26.2158L243.295 29.6953H243.296C243.154 29.932 243.23 30.2387 243.467 30.3809L246.382 32.1289L244.711 35.1436C244.577 35.3847 244.665 35.6881 244.905 35.8223L241.581 41.8223C241.37 41.7053 241.11 41.757 240.959 41.9336L240.901 42.0176L237.092 48.8906C236.958 49.1321 237.046 49.4364 237.287 49.5703L233.962 55.5684C233.751 55.4519 233.492 55.5052 233.341 55.6816L233.283 55.7646L229.474 62.6387C229.34 62.8801 229.427 63.1845 229.668 63.3184L226.343 69.3164C226.132 69.1999 225.873 69.2523 225.722 69.4287L225.664 69.5117L221.854 76.3857C221.721 76.627 221.808 76.9304 222.049 77.0645L218.725 83.0645C218.513 82.9474 218.254 82.9991 218.103 83.1758L218.045 83.2598L216.141 86.6963L216.008 86.9355L216.139 87.1768L218.432 91.4014C218.563 91.6439 218.867 91.7333 219.109 91.6016V91.6006L223.218 99.1719H223.219C222.976 99.3036 222.886 99.6069 223.018 99.8496L225.311 104.073L225.453 104.335H229.578C229.82 104.335 230.022 104.164 230.068 103.936L230.078 103.835H236.733C236.733 104.111 236.957 104.335 237.233 104.335H244.89C245.131 104.335 245.333 104.164 245.38 103.936L245.39 103.835H252.045C252.045 104.111 252.269 104.335 252.545 104.335H260.201C260.477 104.335 260.701 104.111 260.701 103.835H267.357L267.367 103.936C267.414 104.163 267.616 104.335 267.857 104.335H275.513C275.789 104.335 276.013 104.111 276.013 103.835H282.669L282.679 103.936C282.725 104.163 282.927 104.335 283.169 104.335H286.496V107.015C286.496 107.291 286.72 107.514 286.996 107.515V112.874C286.72 112.874 286.496 113.098 286.496 113.374V119.732C286.496 120.008 286.72 120.232 286.996 120.232V125.592C286.72 125.592 286.496 125.816 286.496 126.092V132.451C286.496 132.727 286.72 132.951 286.996 132.951V138.31C286.72 138.31 286.496 138.534 286.496 138.81V145.169C286.496 145.445 286.72 145.669 286.996 145.669V151.028C286.72 151.029 286.496 151.252 286.496 151.528V157.888C286.496 158.164 286.72 158.388 286.996 158.388V163.746C286.72 163.746 286.496 163.97 286.496 164.246V166.926H283.541C283.265 166.926 283.041 167.15 283.041 167.426H277.13C277.13 167.15 276.906 166.926 276.63 166.926H269.72C269.444 166.926 269.22 167.15 269.22 167.426H263.309C263.308 167.15 263.085 166.926 262.809 166.926H255.897C255.621 166.926 255.398 167.15 255.397 167.426H249.487C249.487 167.15 249.263 166.926 248.987 166.926H242.076C241.8 166.926 241.576 167.15 241.576 167.426H235.665C235.665 167.15 235.441 166.926 235.165 166.926H228.254C227.978 166.926 227.754 167.15 227.754 167.426H221.844C221.844 167.15 221.62 166.926 221.344 166.926H214.433C214.157 166.926 213.933 167.15 213.933 167.426H208.021C208.021 167.15 207.798 166.926 207.521 166.926H200.611C200.335 166.926 200.111 167.15 200.111 167.426H194.2C194.2 167.15 193.976 166.926 193.7 166.926H190.538L189.086 164.309C188.952 164.067 188.648 163.98 188.406 164.113L185.7 159.238C185.941 159.104 186.029 158.801 185.895 158.56L182.704 152.811L182.646 152.728C182.494 152.551 182.235 152.499 182.024 152.615L179.318 147.74C179.559 147.606 179.646 147.303 179.513 147.062L176.321 141.312L176.264 141.229C176.112 141.053 175.853 141 175.642 141.117L172.936 136.242C173.177 136.108 173.264 135.805 173.13 135.563L169.938 129.814L169.881 129.731C169.73 129.555 169.47 129.502 169.259 129.619L166.553 124.744C166.794 124.61 166.882 124.307 166.748 124.065L163.557 118.315L163.499 118.232C163.348 118.056 163.087 118.004 162.876 118.121L160.171 113.246C160.412 113.112 160.499 112.808 160.365 112.566L157.174 106.817C157.04 106.576 156.735 106.489 156.493 106.623L153.787 101.748C154.029 101.614 154.116 101.31 153.982 101.068L150.791 95.3193C150.657 95.0782 150.353 94.9902 150.111 95.124L147.405 90.249C147.647 90.115 147.734 89.8117 147.601 89.5703L146.139 86.9375L147.727 84.0762C147.844 83.8648 147.792 83.6054 147.615 83.4541L147.532 83.3965L150.492 78.0605C150.704 78.1778 150.963 78.126 151.114 77.9492L151.172 77.8662L154.617 71.6562C154.734 71.4449 154.682 71.1854 154.505 71.0342L154.422 70.9766L157.382 65.6406C157.623 65.7746 157.928 65.6878 158.062 65.4463L161.507 59.2363C161.641 58.9949 161.553 58.6905 161.312 58.5566L164.271 53.2217C164.513 53.3556 164.817 53.2678 164.951 53.0264L168.396 46.8164C168.53 46.575 168.443 46.2706 168.201 46.1367L171.161 40.8018C171.403 40.9357 171.707 40.8479 171.841 40.6064L175.286 34.3965C175.42 34.1551 175.332 33.8507 175.091 33.7168L178.051 28.3818C178.262 28.499 178.522 28.4469 178.673 28.2705L178.73 28.1875L182.176 21.9775C182.31 21.7361 182.222 21.4308 181.98 21.2969L184.94 15.9619C185.152 16.0791 185.411 16.0271 185.562 15.8506L185.62 15.7676L189.065 9.55762C189.199 9.31614 189.112 9.01091 188.87 8.87695L191.83 3.54199C192.041 3.65917 192.301 3.60716 192.452 3.43066L192.51 3.34766L193.98 0.694336L196.867 2.42578C197.104 2.56756 197.411 2.49059 197.553 2.25391V2.25293L203.353 5.73242V5.7334C203.211 5.97019 203.288 6.27691 203.524 6.41895L210.182 10.4131C210.418 10.5548 210.725 10.4779 210.867 10.2412V10.2402L216.667 13.7197V13.7207C216.525 13.9575 216.602 14.2642 216.839 14.4062L223.496 18.4004C223.733 18.542 224.039 18.4649 224.181 18.2285L229.98 21.708H229.981C229.839 21.9448 229.917 22.2515 230.153 22.3936L236.811 26.3877C237.047 26.5293 237.353 26.4522 237.495 26.2158Z" stroke="white" stroke-linecap="round" stroke-dasharray="7 7"/>
<path d="M136.503 78.0605L139.463 83.3965H139.464C139.223 83.5305 139.136 83.8348 139.27 84.0762L140.857 86.9375L139.396 89.5703C139.263 89.8113 139.349 90.1147 139.59 90.249L136.884 95.124C136.673 95.0076 136.414 95.06 136.263 95.2363L136.205 95.3193L133.014 101.068C132.88 101.31 132.967 101.614 133.208 101.748L130.502 106.623C130.261 106.489 129.956 106.576 129.822 106.817L126.631 112.566C126.497 112.808 126.584 113.112 126.825 113.246L124.119 118.12C123.908 118.004 123.649 118.056 123.498 118.232L123.44 118.316L120.249 124.065C120.115 124.306 120.202 124.61 120.442 124.744L117.736 129.619C117.525 129.503 117.266 129.555 117.115 129.731L117.058 129.814L113.866 135.563C113.732 135.805 113.819 136.109 114.061 136.243L111.354 141.118C111.143 141.001 110.885 141.053 110.733 141.229L110.675 141.312L107.484 147.062C107.351 147.303 107.437 147.606 107.678 147.74L104.972 152.615C104.761 152.499 104.502 152.551 104.351 152.728L104.293 152.811L101.102 158.56C100.968 158.801 101.055 159.105 101.296 159.239L98.5898 164.114C98.3485 163.98 98.0442 164.067 97.9102 164.309L96.458 166.926H93.2959C93.02 166.926 92.796 167.15 92.7959 167.426H86.8857C86.8856 167.15 86.6617 166.926 86.3857 166.926H79.4746C79.1985 166.926 78.9747 167.15 78.9746 167.426H73.0635C73.0634 167.15 72.8395 166.926 72.5635 166.926H65.6533C65.3772 166.926 65.1534 167.15 65.1533 167.426H59.2422C59.2421 167.15 59.0182 166.926 58.7422 166.926H51.8311C51.5551 166.926 51.3312 167.15 51.3311 167.426H45.4209C45.4208 167.15 45.1968 166.926 44.9209 166.926H38.0098C37.7337 166.926 37.5099 167.15 37.5098 167.426H31.5986C31.5985 167.15 31.3747 166.926 31.0986 166.926H24.1875C23.9116 166.926 23.6876 167.15 23.6875 167.426H17.7773C17.7772 167.15 17.5533 166.926 17.2773 166.926H10.3662C10.0902 166.926 9.86633 167.15 9.86621 167.426H3.95508C3.95496 167.15 3.73115 166.926 3.45508 166.926H0.5V164.246C0.49981 163.97 0.276025 163.746 0 163.746V158.388C0.241595 158.388 0.443579 158.216 0.490234 157.988L0.5 157.888V151.528C0.5 151.252 0.276142 151.028 0 151.028V145.669C0.276142 145.669 0.5 145.445 0.5 145.169V138.81C0.499742 138.534 0.275983 138.31 0 138.31V132.951C0.241637 132.951 0.443625 132.78 0.490234 132.552L0.5 132.451V126.092C0.499973 125.816 0.276126 125.592 0 125.592V120.232C0.276142 120.232 0.5 120.009 0.5 119.732V113.374C0.5 113.098 0.276142 112.874 0 112.874V107.515C0.241679 107.515 0.443671 107.343 0.490234 107.115L0.5 107.015V104.335H3.82812C4.0697 104.335 4.27083 104.163 4.31738 103.936L4.32812 103.835H10.9834C10.9834 104.111 11.2074 104.335 11.4834 104.335H19.1396C19.3812 104.335 19.5823 104.163 19.6289 103.936L19.6396 103.835H26.2949C26.2949 104.111 26.5189 104.335 26.7949 104.335H34.4512C34.6928 104.335 34.8939 104.163 34.9404 103.936L34.9512 103.835H41.6064C41.6064 104.111 41.8305 104.335 42.1064 104.335H49.7627C50.0044 104.335 50.2064 104.164 50.2529 103.936L50.2627 103.835H56.918C56.918 104.111 57.142 104.335 57.418 104.335H61.5439L61.6855 104.073L63.9785 99.8496C64.1103 99.6069 64.02 99.3026 63.7773 99.1709L67.8867 91.6016C68.0989 91.7168 68.3581 91.663 68.5078 91.4854L68.5654 91.4014L70.8584 87.1768L70.9893 86.9355L70.8564 86.6963L68.9512 83.2598L68.8936 83.1758C68.7424 82.9993 68.4827 82.9466 68.2715 83.0635L64.9463 77.0654C65.1878 76.9316 65.2755 76.6273 65.1416 76.3857L61.332 69.5117C61.1981 69.2705 60.8937 69.1826 60.6523 69.3164L57.3281 63.3174C57.5693 63.1835 57.6569 62.88 57.5234 62.6387L53.7139 55.7646L53.6562 55.6816C53.5051 55.5047 53.2447 55.4521 53.0332 55.5693L49.709 49.5693C49.9502 49.4354 50.0381 49.132 49.9043 48.8906L46.0947 42.0176L46.0371 41.9336C45.886 41.7572 45.6262 41.7045 45.415 41.8213L42.0898 35.8232C42.3314 35.6894 42.419 35.3851 42.2852 35.1436L40.6143 32.1289L43.5293 30.3809C43.7362 30.2566 43.8211 30.0063 43.7441 29.7871L43.7002 29.6953L49.5 26.2158C49.6243 26.423 49.8754 26.5079 50.0947 26.4307L50.1865 26.3877L56.8438 22.3936C57.0506 22.2693 57.1355 22.019 57.0586 21.7998L57.0146 21.708L62.8145 18.2285C62.9388 18.4357 63.1898 18.5206 63.4092 18.4434L63.501 18.4004L70.1582 14.4062C70.3651 14.282 70.45 14.0317 70.373 13.8125L70.3291 13.7207L76.1289 10.2412C76.2532 10.4484 76.5042 10.5333 76.7236 10.4561L76.8154 10.4131L83.4727 6.41895C83.6795 6.29466 83.7644 6.04435 83.6875 5.8252L83.6436 5.7334L89.4434 2.25391C89.5677 2.46114 89.8187 2.54605 90.0381 2.46875L90.1299 2.42578L93.0146 0.694336L94.4863 3.34766C94.6203 3.58899 94.9246 3.67591 95.166 3.54199V3.54102L98.126 8.87695V8.87793C97.8845 9.01189 97.7967 9.31614 97.9307 9.55762L101.376 15.7676C101.51 16.0089 101.814 16.0958 102.056 15.9619V15.9609L105.016 21.2969V21.2979C104.774 21.4318 104.686 21.7361 104.82 21.9775L108.266 28.1875C108.4 28.4287 108.704 28.5148 108.945 28.3809L111.904 33.7168H111.905C111.664 33.8507 111.577 34.155 111.711 34.3965L115.155 40.6064C115.289 40.8479 115.593 40.9347 115.835 40.8008L118.794 46.1367H118.795C118.553 46.2707 118.467 46.5749 118.601 46.8164L122.045 53.0264C122.179 53.2678 122.483 53.3547 122.725 53.2207L125.684 58.5566H125.685C125.443 58.6906 125.356 58.9949 125.49 59.2363L128.935 65.4463C129.068 65.6875 129.372 65.7739 129.613 65.6406L132.573 70.9766H132.574C132.333 71.1106 132.246 71.4148 132.38 71.6562L135.824 77.8662C135.958 78.1074 136.262 78.1938 136.503 78.0605Z" stroke="white" stroke-linecap="round" stroke-dasharray="7 7"/>
</g>
</g>
<defs>
<clipPath id="clip0_1042_7622">
<rect width="287" height="290" fill="white"/>
</clipPath>
</defs>
</svg>
