<svg width="368" height="239" viewBox="0 0 368 239" fill="none" xmlns="http://www.w3.org/2000/svg">
<g clip-path="url(#clip0_1042_7610)">
<path d="M148.156 -0.012207V0.487793H152.959V-0.012207H157.764V0.487793H162.568V-0.012207H167.372V0.487793H172.176V-0.012207H176.98V0.487793H181.784V-0.012207H186.588V0.487793H191.392V-0.012207H196.197V0.487793H201V-0.012207H205.805V0.487793H210.609V-0.012207H215.412V0.487793H220.217V-0.012207H225.021V0.487793H226.571L225.766 1.92627L226.201 2.17041L223.759 6.53564L223.323 6.29248L220.881 10.6577L221.318 10.9019L218.875 15.2681L218.439 15.0239L215.997 19.3901L216.433 19.6343L213.99 23.9985L213.555 23.7554L211.113 28.1216L211.548 28.3647L209.107 32.731L208.67 32.4868L206.228 36.853L206.664 37.0972L204.222 41.4614L203.786 41.2183L201.344 45.5845L201.78 45.8276L199.338 50.1938L198.902 49.9497L196.459 54.3159L196.896 54.5601L194.453 58.9243L194.018 58.6812L191.575 63.0474L192.011 63.2905L189.57 67.6567L189.133 67.4126L186.691 71.7788L187.127 72.0229L184.685 76.3892L184.249 76.145L181.807 80.5103L182.242 80.7534L179.8 85.1196L179.365 84.8765L176.922 89.2417L177.359 89.4858L174.916 93.8521L174.481 93.6079L172.038 97.9731L172.474 98.2163L170.031 102.583L169.596 102.339L167.154 106.705L167.59 106.949L165.148 111.315L164.712 111.071L162.27 115.436L162.706 115.68L160.263 120.045L159.827 119.802L157.385 124.167L157.822 124.412L155.379 128.778L154.943 128.534L152.501 132.9L152.937 133.143L150.495 137.509L150.059 137.265L147.616 141.631L148.053 141.875L145.611 146.241L145.174 145.997L142.733 150.363L143.168 150.607L140.727 154.972L140.29 154.728L137.848 159.094L138.284 159.338L135.842 163.704L135.406 163.459L132.964 167.826L133.4 168.07L130.958 172.435L130.522 172.191L128.079 176.557L128.516 176.801L126.073 181.167L125.637 180.923L123.196 185.289L123.631 185.533L121.189 189.898L120.753 189.655L118.311 194.02L118.747 194.264L116.305 198.63L115.868 198.386L113.426 202.751L113.863 202.996L111.42 207.361L110.985 207.118L108.542 211.483L108.979 211.727L106.536 216.093L106.1 215.849L103.657 220.214L104.094 220.458L101.652 224.825L101.216 224.581L98.7737 228.947L99.2102 229.19L96.7678 233.556L96.3313 233.312L95.2542 235.239H92.9866V235.739H87.8655V235.239H82.7444V235.739H77.6233V235.239H72.5022V235.739H67.3821V235.239H62.261V235.739H57.1399V235.239H52.0188V235.739H46.8977V235.239H41.7776V235.739H36.6565V235.239H31.5354V235.739H26.4143V235.239H21.2932V235.739H16.1731V235.239H11.052V235.739H5.93091V235.239H4.24146L5.07642 233.808L4.64478 233.556L4.6438 233.555L7.19165 229.19L7.62427 229.442L10.1721 225.077L9.7395 224.825L12.2874 220.458L12.719 220.71L15.2668 216.345L14.8352 216.093L14.8342 216.092L17.3831 211.727L17.8147 211.979L20.3625 207.614L19.9309 207.362L19.9299 207.361L22.4778 202.995L22.4788 202.996L22.9104 203.248L25.4583 198.882L25.0266 198.63L25.0256 198.629L27.5735 194.263L27.5745 194.264L28.0061 194.516L30.554 190.151L30.1223 189.898L30.1213 189.897L32.6692 185.533L33.1018 185.785L35.6497 181.418L35.217 181.167L37.7649 176.801L38.1975 177.053L40.7444 172.687L40.3127 172.435L42.8596 168.069L42.8606 168.07L43.2922 168.322L45.8401 163.956L45.4084 163.704L47.9553 159.337L47.9563 159.338L48.3879 159.59L50.9358 155.224L50.5042 154.972L50.5032 154.971L53.051 150.606L53.052 150.607L53.4836 150.859L56.0315 146.493L55.5999 146.241L55.5989 146.24L58.1467 141.875L58.1477 141.875L58.5793 142.127L61.1272 137.761L60.6946 137.509L63.2424 133.143L63.675 133.396L66.2219 129.03L65.7903 128.778L68.3381 124.412L68.7698 124.664L71.3176 120.298L70.886 120.046L70.885 120.045L73.4338 115.68L73.8655 115.932L76.4133 111.567L75.9817 111.315L75.9807 111.314L78.5286 106.948L78.5295 106.949L78.9612 107.201L81.509 102.835L81.0774 102.583L81.0764 102.583L83.6243 98.2163L83.6252 98.2173L84.0569 98.4692L86.6047 94.104L86.1721 93.8521L88.72 89.4858L89.1526 89.7378L91.7004 85.3726L91.2678 85.1206L91.2668 85.1196L93.8157 80.7544L94.2473 81.0063L96.7952 76.6411L96.3635 76.3882L98.9104 72.022L98.9114 72.0229L99.343 72.2749L101.891 67.9087L101.459 67.6567L104.006 63.2905L104.007 63.2915L104.439 63.5435L106.987 59.1772L106.555 58.9253L106.554 58.9243L109.102 54.5591L109.103 54.5601L109.534 54.812L112.082 50.4458L111.651 50.1938L111.65 50.1929L114.198 45.8286L114.63 46.0806L117.178 41.7144L116.745 41.4624L119.293 37.0972L119.725 37.3491L122.273 32.9829L121.841 32.731L124.388 28.3647L124.389 28.3657L124.821 28.6177L127.368 24.2515L126.937 23.9995L126.936 23.9985L129.485 19.6333L129.916 19.8862L132.464 15.52L132.032 15.2681L132.031 15.2671L134.579 10.9009L134.58 10.9019L135.012 11.1538L137.56 6.78857L137.128 6.53662L137.127 6.53564L139.675 2.16943L139.676 2.17041L140.108 2.42236L141.237 0.487793H143.352V-0.012207H148.156Z" stroke="white" stroke-dasharray="5 5"/>
<path d="M362.916 229.271L365.59 233.583V233.584L365.165 233.847L366.028 235.241H364.366V235.741H359.245V235.241H354.124V235.741H349.003V235.241H343.882V235.741H338.762V235.241H333.641V235.741H328.52V235.241H323.398V235.741H318.277V235.241H313.156V235.741H308.036V235.241H302.915V235.741H297.794V235.241H292.673V235.741H287.552V235.241H282.432V235.741H277.311V235.241H272.197V235.741H267.093V235.241H261.988V235.741H256.884V235.241H251.779V235.741H246.675V235.241H241.57V235.741H236.466V235.241H231.361V235.741H226.257V235.241H221.151V235.741H216.047V235.241H210.942V235.741H205.838V235.241H200.733V235.741H195.629V235.241H190.524V235.741H185.42V235.241H180.315V235.741H175.211V235.241H170.106V235.741H165.002V235.241H162.704L161.272 233.269L160.868 233.562L157.706 229.207L158.11 228.914L154.948 224.558L154.543 224.851L151.381 220.496L151.786 220.202L148.624 215.846L148.219 216.14L145.057 211.785L145.462 211.491L142.3 207.135L141.896 207.428L138.733 203.073L139.138 202.78L135.976 198.424L135.571 198.717L132.408 194.362L132.813 194.069L129.651 189.712L129.246 190.006L126.084 185.651L126.489 185.357L125.484 183.973H127.113V183.473H132.333V183.973H137.552V183.473H142.771V183.973H147.99V183.473H153.21V183.973H158.429V183.473H163.648V183.973H168.867V183.473H174.087V183.973H179.306V183.473H184.525V183.973H189.744V183.473H194.964V183.973H200.183V183.473H205.402V183.973H210.621V183.473H215.841V183.973H221.06V183.473H226.278V183.973H231.498V183.473H236.717V183.973H240.161L239.768 183.237L238.619 181.091L238.179 181.327L235.882 177.036L236.323 176.8L234.027 172.508L233.586 172.744L231.29 168.452L231.731 168.217L229.435 163.925L228.994 164.161L226.697 159.87L227.139 159.633L224.843 155.342L224.401 155.577L222.105 151.286L222.546 151.05L220.25 146.759L219.809 146.995L217.513 142.703L217.954 142.467L215.658 138.176L215.217 138.411L212.921 134.12L213.361 133.884L211.065 129.593L210.624 129.829L208.328 125.537L208.77 125.301L206.473 121.01L206.032 121.245L203.736 116.954L204.177 116.718L201.881 112.427L201.439 112.662L199.144 108.371L199.584 108.135L197.288 103.843L196.848 104.079L194.551 99.7866L194.992 99.5522L192.696 95.2603L192.255 95.4956L189.959 91.2036L190.399 90.9692L188.104 86.6772L187.663 86.9126L185.366 82.6206L185.808 82.3862L185.053 80.9761H186.62V80.4761H191.425V80.9761H196.229V80.4761H201.032V80.9761H205.837V80.4761H210.641V80.9761H215.445V80.4761H220.249V80.9761H225.053V80.4761H229.857V80.9761H234.661V80.4761H239.466V80.9761H244.27V80.4761H249.073V80.9761H253.878V80.4761H258.682V80.9761H263.485V80.4761H268.29V80.9761H270.413L271.604 82.896L272.027 82.6323L274.701 86.9448V86.9458L274.276 87.2085L276.95 91.522L277.374 91.2583L280.047 95.5708L279.623 95.8345L282.296 100.148L282.721 99.8843L285.394 104.197L284.97 104.46L287.643 108.773L288.067 108.51V108.509L290.74 112.823L290.315 113.086L292.989 117.399L293.413 117.135L296.086 121.449H296.087L295.662 121.712L298.335 126.025L298.76 125.761L301.433 130.075H301.434L301.009 130.337L303.682 134.651L304.105 134.387L306.779 138.701H306.78L306.354 138.963L309.028 143.277L309.452 143.013L312.125 147.326H312.126L311.701 147.589L314.374 151.902L314.799 151.639L317.472 155.952H317.473L317.048 156.215L319.721 160.528L320.146 160.265V160.264L322.818 164.578L322.394 164.841L325.067 169.154L325.491 168.89L328.165 173.203V173.204L327.74 173.467L330.413 177.78L330.838 177.516L333.512 181.829V181.83L333.087 182.092L335.76 186.406L336.185 186.142V186.141L338.857 190.455L338.433 190.718L341.106 195.032L341.531 194.768V194.767L344.204 199.08V199.081L343.779 199.344L346.452 203.657L346.877 203.394L349.55 207.707H349.551L349.126 207.97L351.799 212.283L352.224 212.019V212.018L354.896 216.333H354.897L354.472 216.596L357.146 220.909L357.569 220.645L360.243 224.958V224.958L359.818 225.221L362.491 229.535L362.916 229.271Z" stroke="white" stroke-dasharray="5 5"/>
</g>
<defs>
<clipPath id="clip0_1042_7610">
<rect width="368" height="239" fill="white"/>
</clipPath>
</defs>
</svg>
