<svg width="727" height="147" viewBox="0 0 727 147" fill="none" xmlns="http://www.w3.org/2000/svg">
<g clip-path="url(#clip0_1570_9269)">
<path opacity="0.2" d="M6.10352e-05 21.0449H727" stroke="url(#paint0_linear_1570_9269)" stroke-linecap="round"/>
<path opacity="0.2" d="M727 54.0449H7.21744e-05" stroke="url(#paint1_linear_1570_9269)" stroke-linecap="round"/>
<path opacity="0.2" d="M6.10352e-05 87.0449H727" stroke="url(#paint2_linear_1570_9269)" stroke-linecap="round"/>
<path opacity="0.2" d="M727 120.045H7.21744e-05" stroke="url(#paint3_linear_1570_9269)" stroke-linecap="round"/>
<circle cx="329.047" cy="53.5747" r="24.354" fill="#060F18" stroke="#15202C"/>
<g opacity="0.4">
<path d="M323.091 42.9896C322.98 42.9952 322.87 43.0166 322.768 43.054L316.488 45.3584C316.217 45.458 315.974 45.6828 315.852 45.9451C315.731 46.2073 315.717 46.5384 315.816 46.8097L319.856 57.8217C319.956 58.0931 320.18 58.3378 320.443 58.4593C320.705 58.5808 321.036 58.5949 321.307 58.4953L327.587 56.1907C327.859 56.0912 328.101 55.8665 328.223 55.6042L328.225 55.6004C328.345 55.3387 328.358 55.0096 328.259 54.7395L324.219 43.7275C324.12 43.4574 323.897 43.2138 323.636 43.0917L323.633 43.0899C323.502 43.0291 323.353 42.9957 323.203 42.9895C323.166 42.988 323.129 42.9878 323.091 42.9896ZM325.457 43.8145L329.322 54.3496C329.529 54.9127 329.502 55.537 329.25 56.081C328.998 56.6251 328.54 57.0476 327.977 57.2541L326.316 57.8634L329.948 58.0317C330.237 58.0452 330.548 57.9312 330.762 57.7366C330.976 57.5418 331.118 57.2419 331.131 56.9531L331.676 45.2373C331.689 44.9486 331.577 44.6356 331.383 44.4218C331.188 44.2081 330.888 44.0664 330.599 44.0529L325.457 43.8144L325.457 43.8145ZM332.783 45.8277L332.261 57.0062C332.233 57.6052 331.968 58.1709 331.525 58.5747C331.081 58.9786 330.494 59.1892 329.895 59.1613L328.318 59.0874L332.518 60.4858C332.792 60.577 333.124 60.5528 333.383 60.4234C333.641 60.2938 333.857 60.043 333.948 59.7686L337.651 48.6395C337.742 48.3651 337.718 48.0333 337.589 47.7748C337.459 47.5163 337.208 47.2983 336.934 47.2072L332.783 45.8278L332.783 45.8277ZM320.367 46.9384C321.848 48.4482 324.485 48.0125 325.256 49.6951C325.975 51.2649 324.377 52.4806 322.957 52.0205L323.986 53.8843L322.849 54.3024L322.187 52.3838C321.558 53.7536 319.58 53.8215 318.908 52.3517C318.089 50.5609 320.362 49.0701 320.367 46.9384ZM338.618 49.313L335.023 60.1262C334.834 60.6952 334.426 61.167 333.89 61.4356L333.884 61.4374C333.349 61.7035 332.729 61.7471 332.162 61.5585L330.928 61.148L333.551 63.39C333.771 63.5778 334.088 63.6794 334.376 63.6568C334.664 63.6342 334.958 63.4849 335.146 63.2651L342.767 54.3459C342.955 54.1262 343.057 53.811 343.034 53.5228C343.012 53.2346 342.86 52.9387 342.641 52.7508L338.618 49.313L338.618 49.313Z" fill="white"/>
</g>
<circle cx="406.371" cy="20.4355" r="19.9355" fill="#060F18" stroke="#15202C"/>
<g opacity="0.5">
<path opacity="0.5" d="M414.531 20.8629C414.165 20.8629 413.806 20.9715 413.502 21.175C413.197 21.3786 412.96 21.6679 412.82 22.0063C412.679 22.3448 412.643 22.7172 412.714 23.0765C412.786 23.4358 412.962 23.7659 413.221 24.0249C413.48 24.284 413.81 24.4604 414.17 24.5319C414.529 24.6033 414.901 24.5667 415.24 24.4265C415.578 24.2863 415.867 24.0489 416.071 23.7442C416.275 23.4396 416.383 23.0815 416.383 22.7152C416.383 22.2241 416.187 21.7533 415.84 21.4061C415.493 21.0589 415.022 20.8635 414.531 20.8629ZM414.531 24.1784C414.242 24.1784 413.959 24.0927 413.718 23.9319C413.478 23.7712 413.29 23.5428 413.18 23.2755C413.069 23.0083 413.04 22.7142 413.096 22.4305C413.153 22.1467 413.292 21.8861 413.497 21.6816C413.701 21.477 413.962 21.3377 414.246 21.2813C414.529 21.2248 414.823 21.2538 415.091 21.3645C415.358 21.4752 415.586 21.6626 415.747 21.9032C415.908 22.1437 415.994 22.4265 415.994 22.7157C415.994 22.9079 415.956 23.0981 415.882 23.2757C415.809 23.4532 415.701 23.6145 415.565 23.7504C415.43 23.8863 415.268 23.9941 415.091 24.0676C414.913 24.1412 414.723 24.179 414.531 24.179V24.1784ZM414.999 22.7157C414.999 22.8083 414.972 22.8988 414.92 22.9758C414.869 23.0528 414.796 23.1128 414.71 23.1482C414.625 23.1837 414.53 23.1929 414.44 23.1749C414.349 23.1568 414.265 23.1123 414.2 23.0468C414.134 22.9813 414.09 22.8979 414.072 22.8071C414.054 22.7163 414.063 22.6222 414.098 22.5367C414.134 22.4512 414.194 22.3781 414.271 22.3266C414.348 22.2752 414.438 22.2477 414.531 22.2477C414.655 22.2477 414.774 22.297 414.862 22.3848C414.95 22.4726 414.999 22.5916 414.999 22.7157ZM400.996 22.7157C400.996 22.3494 400.887 21.9913 400.684 21.6867C400.48 21.3821 400.191 21.1447 399.853 21.0045C399.514 20.8643 399.142 20.8276 398.782 20.8991C398.423 20.9706 398.093 21.147 397.834 21.406C397.575 21.6651 397.398 21.9951 397.327 22.3544C397.256 22.7137 397.292 23.0862 397.432 23.4246C397.573 23.7631 397.81 24.0524 398.115 24.2559C398.419 24.4594 398.777 24.5681 399.144 24.5681C399.635 24.5675 400.106 24.3721 400.453 24.0249C400.8 23.6776 400.995 23.2068 400.996 22.7157ZM399.144 24.1784C398.854 24.1784 398.572 24.0926 398.331 23.9319C398.091 23.7712 397.903 23.5428 397.792 23.2755C397.682 23.0082 397.653 22.7142 397.709 22.4304C397.766 22.1467 397.905 21.8861 398.109 21.6816C398.314 21.477 398.575 21.3377 398.858 21.2813C399.142 21.2248 399.436 21.2538 399.703 21.3645C399.971 21.4752 400.199 21.6626 400.36 21.9032C400.521 22.1437 400.606 22.4265 400.606 22.7157C400.606 22.9079 400.569 23.0981 400.495 23.2757C400.422 23.4532 400.314 23.6145 400.178 23.7504C400.042 23.8863 399.881 23.9941 399.704 24.0676C399.526 24.1412 399.336 24.179 399.144 24.179V24.1784ZM417.361 23.0276C417.407 22.6413 417.373 22.2497 417.261 21.8769C417.15 21.5042 416.963 21.1583 416.713 20.8604C416.463 20.5626 416.154 20.3192 415.806 20.1453C415.458 19.9714 415.078 19.8707 414.69 19.8493C414.301 19.8279 413.913 19.8863 413.548 20.021C413.183 20.1556 412.849 20.3637 412.568 20.6322C412.286 20.9007 412.063 21.2241 411.911 21.5824C411.759 21.9406 411.683 22.3261 411.686 22.7152C411.685 23.1467 411.784 23.5725 411.973 23.9602H401.702C401.897 23.5583 401.996 23.1159 401.989 22.6688C401.982 22.2217 401.87 21.7825 401.662 21.3868C401.454 20.9911 401.155 20.6501 400.79 20.3912C400.426 20.1324 400.005 19.9631 399.563 19.8971C399.121 19.831 398.669 19.8701 398.245 20.0111C397.821 20.1521 397.435 20.391 397.121 20.7086C396.806 21.0262 396.57 21.4134 396.433 21.839C396.296 22.2645 396.261 22.7164 396.331 23.1581C394.98 22.5905 394.107 21.662 394.107 20.1935C394.107 18.6723 398.688 16.5328 401.602 16.4321V18.2301C401.602 18.5773 401.74 18.9104 401.986 19.1559C402.231 19.4015 402.564 19.5394 402.912 19.5394H405.417C405.727 19.539 406.026 19.4287 406.262 19.2282C406.497 19.0278 406.654 18.7501 406.704 18.4448C406.704 18.4448 406.619 17.3021 406.345 17.0991L406.525 16.9652L407.815 18.4459H412.778C416.153 18.4448 418.893 19.681 418.893 21.2022C418.893 21.9043 418.314 22.5414 417.361 23.0276ZM399.612 22.7152C399.612 22.8077 399.584 22.8982 399.533 22.9752C399.481 23.0522 399.408 23.1122 399.323 23.1476C399.237 23.183 399.143 23.1923 399.052 23.1742C398.962 23.1562 398.878 23.1116 398.813 23.0461C398.747 22.9807 398.703 22.8973 398.685 22.8065C398.666 22.7157 398.676 22.6216 398.711 22.536C398.747 22.4505 398.807 22.3774 398.884 22.326C398.961 22.2745 399.051 22.2471 399.144 22.2471C399.205 22.2471 399.266 22.2592 399.323 22.2828C399.38 22.3063 399.431 22.3409 399.475 22.3844C399.518 22.4279 399.553 22.4796 399.576 22.5364C399.6 22.5933 399.612 22.6542 399.612 22.7157V22.7152Z" fill="white"/>
</g>
<circle cx="522.357" cy="86.7129" r="19.9355" fill="#060F18" stroke="#15202C"/>
<circle cx="248.962" cy="87.2652" r="20.4878" fill="#060F18" stroke="#15202C"/>
<g opacity="0.4">
<path d="M255.833 79.2596C252.391 78.5406 252.37 81.0118 249.004 81.0118C246.092 81.0118 245.983 78.5686 242.176 79.2596C235.941 80.3868 234.982 94.104 238.29 94.8228C240.126 95.2218 241.051 93.0923 243.479 91.5638C243.84 91.8303 244.258 92.0069 244.701 92.0792C245.143 92.1515 245.596 92.1173 246.023 91.9795C246.449 91.8417 246.837 91.6042 247.153 91.2867C247.469 90.9692 247.705 90.5809 247.842 90.154C248.228 90.1205 248.616 90.1039 249.003 90.1042C249.412 90.1042 249.793 90.1217 250.159 90.1533C250.295 90.5803 250.532 90.9686 250.849 91.286C251.165 91.6033 251.553 91.8406 251.98 91.9781C252.407 92.1155 252.86 92.1493 253.302 92.0766C253.745 92.0038 254.163 91.8266 254.524 91.5597C256.955 93.0882 257.88 95.22 259.717 94.8205C263.024 94.1039 262.041 80.5556 255.833 79.2596ZM243.065 86.2729H241.635V84.8191H240.181V83.3894H241.635V81.9351H243.065V83.3888H244.518V84.8186H243.065V86.2723L243.065 86.2729ZM245.155 91.1737C244.784 91.1737 244.421 91.0635 244.112 90.8572C243.803 90.6509 243.562 90.3576 243.42 90.0145C243.278 89.6714 243.241 89.2938 243.313 88.9296C243.386 88.5653 243.565 88.2308 243.827 87.9682C244.09 87.7056 244.425 87.5267 244.789 87.4543C245.153 87.3818 245.531 87.419 245.874 87.5611C246.217 87.7033 246.51 87.9439 246.716 88.2527C246.923 88.5615 247.033 88.9246 247.033 89.2959C247.033 89.7939 246.835 90.2716 246.483 90.6239C246.131 90.9761 245.654 91.1741 245.156 91.1742L245.155 91.1737ZM252.844 91.1737C252.473 91.1734 252.11 91.0629 251.801 90.8564C251.493 90.6498 251.252 90.3564 251.111 90.0132C250.969 89.67 250.932 89.2925 251.005 88.9284C251.077 88.5642 251.256 88.2298 251.519 87.9674C251.782 87.7049 252.116 87.5263 252.481 87.4541C252.845 87.3818 253.222 87.4192 253.565 87.5615C253.908 87.7037 254.201 87.9445 254.408 88.2533C254.614 88.5622 254.724 88.9252 254.724 89.2965C254.724 89.5433 254.675 89.7876 254.581 90.0155C254.486 90.2434 254.348 90.4505 254.173 90.6249C253.999 90.7993 253.791 90.9376 253.563 91.0318C253.335 91.1261 253.091 91.1745 252.844 91.1742L252.844 91.1737ZM254.14 85.051C253.952 85.051 253.769 84.9955 253.613 84.8914C253.457 84.7873 253.336 84.6394 253.264 84.4663C253.192 84.2931 253.174 84.1026 253.21 83.9189C253.247 83.7351 253.337 83.5663 253.469 83.4338C253.602 83.3013 253.771 83.211 253.955 83.1745C254.138 83.1379 254.329 83.1567 254.502 83.2284C254.675 83.3002 254.823 83.4216 254.927 83.5774C255.031 83.7332 255.087 83.9164 255.087 84.1038C255.087 84.2282 255.062 84.3514 255.015 84.4663C254.967 84.5813 254.897 84.6857 254.809 84.7737C254.721 84.8617 254.617 84.9314 254.502 84.979C254.387 85.0267 254.264 85.0512 254.139 85.0512L254.14 85.051ZM256.191 87.1029C256.004 87.1029 255.821 87.0473 255.665 86.9432C255.509 86.8391 255.388 86.6912 255.316 86.5181C255.244 86.345 255.226 86.1545 255.262 85.9707C255.299 85.787 255.389 85.6182 255.521 85.4857C255.654 85.3532 255.823 85.2629 256.006 85.2264C256.19 85.1898 256.381 85.2086 256.554 85.2803C256.727 85.3519 256.875 85.4734 256.979 85.6291C257.083 85.7849 257.139 85.9681 257.139 86.1555C257.139 86.2801 257.114 86.4036 257.066 86.5187C257.019 86.6339 256.949 86.7385 256.861 86.8265C256.772 86.9146 256.668 86.9844 256.552 87.0319C256.437 87.0794 256.314 87.1037 256.189 87.1034L256.191 87.1029ZM256.191 82.9987C256.004 82.9987 255.821 82.9431 255.665 82.839C255.509 82.735 255.388 82.587 255.316 82.4139C255.244 82.2408 255.226 82.0503 255.262 81.8665C255.299 81.6828 255.389 81.514 255.521 81.3815C255.654 81.249 255.823 81.1587 256.006 81.1222C256.19 81.0856 256.381 81.1044 256.554 81.1761C256.727 81.2478 256.875 81.3692 256.979 81.525C257.083 81.6808 257.139 81.864 257.139 82.0513C257.139 82.176 257.114 82.2994 257.066 82.4146C257.019 82.5297 256.949 82.6343 256.86 82.7224C256.772 82.8104 256.668 82.8802 256.552 82.9277C256.437 82.9752 256.314 82.9995 256.189 82.9992L256.191 82.9987ZM258.243 85.0504C258.056 85.0504 257.873 84.9949 257.717 84.8908C257.561 84.7867 257.44 84.6387 257.368 84.4656C257.296 84.2925 257.277 84.102 257.314 83.9183C257.35 83.7345 257.441 83.5657 257.573 83.4332C257.706 83.3007 257.874 83.2105 258.058 83.1739C258.242 83.1374 258.432 83.1561 258.606 83.2279C258.779 83.2996 258.927 83.421 259.031 83.5768C259.135 83.7326 259.19 83.9157 259.19 84.1031C259.19 84.2278 259.166 84.3512 259.118 84.4664C259.07 84.5815 259.001 84.6861 258.912 84.7742C258.824 84.8623 258.719 84.9321 258.604 84.9796C258.489 85.0271 258.365 85.0514 258.241 85.051L258.243 85.0504Z" fill="white"/>
</g>
<circle cx="262.77" cy="20.4359" r="14.4124" fill="#060F18" stroke="#15202C"/>
<circle cx="396.982" cy="120.404" r="14.9647" fill="#060F18" stroke="#15202C"/>
<g opacity="0.4">
<path d="M403.062 111.562C402.312 111.905 401.015 112.172 400.493 113.258C399.707 113.327 397.935 113.633 396.196 114.673C394.154 115.895 392.118 118.098 391.564 122.186L391.547 122.311L391.449 122.39C390.364 123.269 390.02 123.758 389.888 124.54C389.763 125.274 389.862 126.349 389.875 128.121H400.544C400.665 127.527 400.911 127.093 400.982 126.66C401.065 126.161 400.989 125.607 400.251 124.601C398.736 122.538 398.604 120.05 399.797 118.58C399.492 118.483 399.266 118.338 399.113 118.139C398.898 117.86 398.852 117.541 398.811 117.229L399.439 117.146C399.478 117.443 399.522 117.634 399.613 117.752C399.705 117.87 399.87 117.98 400.301 118.05L400.3 118.054L400.306 118.048L400.517 118.379C401.219 119.482 402.023 120.183 403.095 120.293L403.324 120.317L403.372 120.542C403.468 120.993 403.675 121.213 403.903 121.324C404.131 121.434 404.403 121.427 404.623 121.331C404.95 121.187 405.133 120.932 405.21 120.532C405.285 120.144 405.229 119.624 405.029 119.052C403.85 117.708 403.466 115.984 402.783 114.525C402.57 114.175 402.345 113.874 402.066 113.651C402.247 112.938 402.586 112.225 403.062 111.562ZM396.526 112.229C395.312 112.233 394.135 112.514 392.375 113.059C393.47 113.408 394.85 113.724 395.4 114.431C395.557 114.325 395.714 114.224 395.871 114.13C397.296 113.278 398.698 112.889 399.676 112.722C398.416 112.389 397.46 112.227 396.526 112.229V112.229ZM394.525 114.4C394.485 114.4 394.446 114.4 394.406 114.4C393.338 114.413 392.187 114.743 391.008 115.5C391.964 115.629 392.93 115.631 393.559 116.041C394.118 115.411 394.725 114.894 395.341 114.471C395.076 114.427 394.803 114.403 394.525 114.4ZM401.938 115.5C402.061 115.5 402.179 115.549 402.266 115.636C402.353 115.723 402.402 115.841 402.402 115.965C402.402 116.026 402.39 116.086 402.367 116.142C402.343 116.199 402.309 116.25 402.266 116.293C402.223 116.336 402.172 116.371 402.115 116.394C402.059 116.417 401.999 116.429 401.938 116.429C401.876 116.429 401.816 116.417 401.76 116.394C401.703 116.371 401.652 116.336 401.609 116.293C401.566 116.25 401.532 116.199 401.508 116.142C401.485 116.086 401.473 116.026 401.473 115.965C401.473 115.841 401.522 115.723 401.609 115.636C401.696 115.549 401.814 115.5 401.938 115.5ZM393.538 116.065C392.259 116.117 391.116 116.294 389.855 116.936C391.024 117.185 391.645 117.41 392.142 118.125C392.547 117.333 393.022 116.651 393.538 116.065ZM391.62 118.083C390.882 118.089 390.287 118.493 389.562 118.875C390.542 118.875 391.182 119.011 391.627 119.299C391.779 118.889 391.949 118.504 392.133 118.141C391.953 118.099 391.783 118.081 391.62 118.083ZM391.598 119.377C390.967 119.583 390.352 119.628 389.691 120.16C390.311 120.324 390.914 120.498 391.147 120.935C391.27 120.381 391.421 119.862 391.598 119.377V119.377ZM404.611 119.678C404.668 119.677 404.724 119.68 404.779 119.685L404.721 120.315C404.583 120.302 404.527 120.33 404.525 120.331C404.523 120.333 404.489 120.355 404.503 120.538L403.872 120.587C403.85 120.293 403.918 120.017 404.116 119.848C404.266 119.722 404.44 119.682 404.611 119.678V119.678ZM390.836 121.221C390.472 121.225 390 121.419 389.617 121.654C390.045 121.894 390.052 122.48 389.932 122.979C390.188 122.659 390.524 122.334 390.957 121.977C390.992 121.73 391.034 121.489 391.08 121.254C391.007 121.23 390.925 121.22 390.836 121.221Z" fill="white"/>
</g>
<path d="M463.259 38.0576C472.15 38.0576 479.328 45.0204 479.329 53.5742C479.329 62.1282 472.15 69.0918 463.259 69.0918C454.368 69.0918 447.19 62.1282 447.19 53.5742C447.19 45.0204 454.368 38.0576 463.259 38.0576Z" fill="#060F18" stroke="#15202C"/>
<g opacity="0.4">
<path d="M471.367 45.7603C470.842 46.0567 470.328 46.3784 469.832 46.7878L470.089 48.143C470.591 48.2929 471.001 48.3492 471.367 48.3527V45.7603ZM467.887 46.622C467.35 46.6191 466.746 46.7133 465.995 46.8623L465.987 46.8638L465.979 46.865C465.46 46.9415 464.545 47.2891 463.643 48.2314L465.199 48.645C465.233 48.5925 465.408 48.3285 465.441 48.274C465.621 48.3838 465.801 48.4935 465.981 48.6032C465.543 49.323 465.041 49.8532 464.437 50.52C464.362 50.6859 464.471 50.8082 464.59 50.8765C464.774 50.9795 465.086 50.9851 465.168 50.9504C466.009 50.396 466.603 49.6873 467.135 48.9721L467.328 49.006C467.732 49.0774 468.258 49.0432 468.688 48.9057C469.079 48.7809 469.366 48.5767 469.485 48.3542L469.207 46.8863C468.783 46.703 468.361 46.6247 467.887 46.622H467.887ZM462.013 48.4707L460.978 52.5483L461.317 52.5588H464.943L464.975 52.5514L465.214 51.599C464.902 51.6658 464.571 51.5913 464.28 51.4283C464.098 51.3259 463.928 51.1738 463.837 50.956C463.562 50.2551 464.394 49.6448 464.846 49.1015L462.013 48.4707H462.013ZM456.446 52.0666L455.637 53.6838H470.363L469.554 52.0666H465.749L465.625 52.5588H466.375V53.1916H459.625V52.5588H460.323L460.448 52.0666H456.446H456.446ZM455.441 54.3166V62.1213H470.559V54.3166H455.441ZM455.934 54.8088H470.066V61.6291H455.934V54.8088ZM456.566 55.4416V59.5984L457.779 56.9619L460.358 58.0785L462.702 56.4669L464.021 58.4805L465.782 58.3189L466.883 56.9361L469.434 58.8738V55.4416H456.566ZM462.527 57.3551L459.341 59.5464L460.29 60.9963H463.651L464.343 60.1276L462.527 57.3551ZM458.096 57.7885L456.62 60.9963H459.534L458.472 59.3756L459.743 58.5018L458.096 57.7884V57.7885ZM466.992 57.8142L464.46 60.9963H469.401L469.434 60.9553V59.6685L466.992 57.8142ZM465.237 59.0044L464.413 59.0799L464.758 59.6062L465.237 59.0044Z" fill="white"/>
</g>
<rect y="128.045" width="117" height="84" transform="rotate(-90 0 128.045)" fill="url(#paint4_linear_1570_9269)"/>
<rect width="117.09" height="83.9514" transform="matrix(0 -1 -1 0 727.799 130.09)" fill="url(#paint5_linear_1570_9269)"/>
<path opacity="0.3" d="M267.092 20.196H271C270.873 18.9353 270.449 17.7228 269.762 16.6583C269.066 16.991 268.46 17.486 267.996 18.1017C267.531 18.7173 267.221 19.4356 267.092 20.196ZM258.908 20.196C258.779 19.4356 258.469 18.7173 258.004 18.1017C257.54 17.486 256.934 16.991 256.238 16.6583C255.551 17.7228 255.127 18.9353 255 20.196H258.908ZM265.468 20.196C265.594 19.1916 265.955 18.2312 266.523 17.3929C267.09 16.5546 267.847 15.8621 268.733 15.3719C267.419 14.0278 265.674 13.1883 263.804 13V20.196H265.468ZM260.532 20.196H262.196V13C260.325 13.1865 258.58 14.0263 257.267 15.3719C258.153 15.8621 258.91 16.5546 259.477 17.3929C260.045 18.2312 260.406 19.1916 260.532 20.196ZM265.468 21.804H263.804V29C265.675 28.8135 267.42 27.9737 268.733 26.6281C267.847 26.1379 267.09 25.4454 266.523 24.6071C265.955 23.7688 265.594 22.8084 265.468 21.804ZM256.238 25.3417C256.932 25.0067 257.537 24.511 258.001 23.8958C258.465 23.2805 258.776 22.5634 258.908 21.804H255C255.129 23.0985 255.571 24.3045 256.238 25.3417ZM267.092 21.804C267.221 22.5644 267.531 23.2827 267.996 23.8983C268.46 24.514 269.066 25.009 269.762 25.3417C270.449 24.2772 270.873 23.0647 271 21.804H267.092ZM260.532 21.804C260.406 22.8084 260.045 23.7688 259.477 24.6071C258.91 25.4454 258.153 26.1379 257.267 26.6281C258.581 27.9722 260.326 28.8117 262.196 29V21.804H260.532Z" fill="white"/>
<path opacity="0.4" d="M522.5 76C516.704 76 512 80.704 512 86.5C512 92.296 516.704 97 522.5 97C528.296 97 533 92.296 533 86.5C533 80.704 528.296 76 522.5 76ZM523.55 79.465L524.967 78.4675C526.867 79.0561 528.496 80.2986 529.566 81.9745L529.157 83.3815L527.739 83.8645L523.55 80.935V79.465ZM520.032 78.4675L521.45 79.465V80.935L517.261 83.8645L515.843 83.3815L515.433 81.9745C516.51 80.3043 518.137 79.0636 520.032 78.4675ZM517.334 91.8655L516.137 91.9705C514.821 90.4522 514.097 88.5094 514.1 86.5C514.1 86.374 514.11 86.2585 514.121 86.1325L515.171 85.366L516.62 85.87L518.153 90.427L517.334 91.8655ZM525.125 94.4695C524.295 94.7425 523.413 94.9 522.5 94.9C521.586 94.9 520.704 94.7425 519.875 94.4695L519.151 92.905L519.822 91.75H525.188L525.86 92.9155L525.125 94.4695ZM524.883 89.65H520.116L518.699 85.429L522.5 82.762L526.311 85.429L524.883 89.65ZM528.863 91.9705L527.666 91.8655L526.836 90.427L528.369 85.87L529.829 85.3765L530.879 86.143C530.889 86.2585 530.9 86.374 530.9 86.5C530.9 88.5895 530.133 90.5005 528.863 91.9705Z" fill="white"/>
</g>
<defs>
<linearGradient id="paint0_linear_1570_9269" x1="6.10352e-05" y1="21.0449" x2="727" y2="21.0466" gradientUnits="userSpaceOnUse">
<stop stop-color="#050C14"/>
<stop offset="0.239583" stop-color="#15202C"/>
<stop offset="0.5" stop-color="#72A0D1"/>
<stop offset="1" stop-color="#15202C"/>
</linearGradient>
<linearGradient id="paint1_linear_1570_9269" x1="727" y1="54.0449" x2="0.000407699" y2="54.0466" gradientUnits="userSpaceOnUse">
<stop stop-color="#050C14"/>
<stop offset="0.239583" stop-color="#15202C"/>
<stop offset="0.5" stop-color="#72A0D1"/>
<stop offset="1" stop-color="#15202C"/>
</linearGradient>
<linearGradient id="paint2_linear_1570_9269" x1="6.10352e-05" y1="87.0449" x2="727" y2="87.0466" gradientUnits="userSpaceOnUse">
<stop stop-color="#050C14"/>
<stop offset="0.239583" stop-color="#15202C"/>
<stop offset="0.5" stop-color="#72A0D1"/>
<stop offset="1" stop-color="#15202C"/>
</linearGradient>
<linearGradient id="paint3_linear_1570_9269" x1="727" y1="120.045" x2="0.000407699" y2="120.047" gradientUnits="userSpaceOnUse">
<stop stop-color="#050C14"/>
<stop offset="0.239583" stop-color="#15202C"/>
<stop offset="0.5" stop-color="#72A0D1"/>
<stop offset="1" stop-color="#15202C"/>
</linearGradient>
<linearGradient id="paint4_linear_1570_9269" x1="58.5" y1="128.045" x2="58.5" y2="212.045" gradientUnits="userSpaceOnUse">
<stop stop-color="#060C16"/>
<stop offset="1" stop-color="#060C16" stop-opacity="0"/>
</linearGradient>
<linearGradient id="paint5_linear_1570_9269" x1="58.545" y1="0" x2="58.545" y2="83.9514" gradientUnits="userSpaceOnUse">
<stop stop-color="#060C16"/>
<stop offset="1" stop-color="#060C16" stop-opacity="0"/>
</linearGradient>
<clipPath id="clip0_1570_9269">
<rect width="727" height="147" fill="white"/>
</clipPath>
</defs>
</svg>
