<svg width="639" height="149" viewBox="0 0 639 149" fill="none" xmlns="http://www.w3.org/2000/svg">
<g clip-path="url(#clip0_9365_947)">
<path d="M44.12 129.656C55.17 129.656 62.537 123.187 64.747 112.812H86.11C83.409 134.294 66.957 148.941 44.243 148.941C19.073 148.941 0.0429688 130.754 0.0429688 105.732C0.0429688 80.71 19.073 62.5229 44.243 62.5229C66.957 62.5229 83.409 77.1709 86.11 98.653H64.747C62.537 88.278 55.17 81.8089 44.12 81.8089C30.492 81.8089 21.038 91.939 21.038 105.732C21.038 119.525 30.491 129.656 44.12 129.656ZM140.67 132.951H105.31L99.785 147.232H77.685L113.167 63.7439H133.058L168.418 147.232H146.318L140.67 132.951ZM133.794 115.375L122.99 87.79L112.185 115.375H133.794ZM221.052 147.232L205.091 123.187H189.376V147.232H168.626V64.232H205.091C225.841 64.232 239.715 75.462 239.715 93.4039C239.715 104.268 234.435 113.056 225.595 118.182L245.24 147.232H221.052ZM189.376 104.634H204.723C212.704 104.634 218.965 100.24 218.965 93.4039C218.965 86.6909 212.704 82.4189 204.723 82.4189H189.376V104.634Z" fill="#FAFAF9"/>
<path d="M296.868 147.232L280.907 123.187H265.191V147.232H244.442V64.2319H280.907C301.657 64.2319 315.531 75.4619 315.531 93.4039C315.531 104.268 310.251 113.056 301.411 118.182L321.056 147.232H296.868ZM265.191 104.634H280.539C288.519 104.634 294.781 100.24 294.781 93.4039C294.781 86.6909 288.519 82.4189 280.539 82.4189H265.191V104.634Z" fill="#FAFAF9"/>
<path d="M360.095 62.5229C385.265 62.5229 404.296 81.565 404.296 105.732C404.296 129.9 385.265 148.941 360.095 148.941C334.926 148.941 315.895 129.9 315.895 105.732C315.895 81.565 334.926 62.5229 360.095 62.5229ZM360.095 129.778C373.601 129.778 383.301 118.793 383.301 105.732C383.301 92.672 373.601 81.6869 360.095 81.6869C346.59 81.6869 336.89 92.672 336.89 105.732C336.89 118.793 346.59 129.778 360.095 129.778Z" fill="#FAFAF9"/>
<path d="M471.678 82.6629H445.035V147.232H424.408V82.6629H397.765V64.2329H471.678V82.6629Z" fill="#FAFAF9"/>
<path d="M620.39 18.6689H639V37.2789H620.39V18.6689Z" fill="#3D783D"/>
<path d="M490.117 130.332H508.727V148.942H490.117V130.332ZM508.727 111.721H527.337V130.331H508.727V111.721ZM508.727 93.1101H527.337V111.721H508.727V93.1101ZM527.338 93.1101H545.948V111.72H527.338V93.1101ZM527.338 74.5001H545.948V93.1101H527.338V74.5001ZM545.948 74.5001H564.558V93.1101H545.948V74.5001ZM545.948 55.8901H564.558V74.5001H545.948V55.8901ZM564.559 55.8901H583.169V74.5001H564.559V55.8901Z" fill="#F98635"/>
<path d="M527.338 111.721H545.948V130.331H527.338V111.721ZM545.948 93.11H564.558V111.72L545.948 111.721V93.11ZM564.559 74.5H583.169V93.11H564.559V74.5Z" fill="#EA7928"/>
<path d="M545.948 18.6689H564.558V37.2789H545.948V18.6689Z" fill="#498448"/>
<path d="M564.559 18.6689H583.169V37.2789H564.559V18.6689Z" fill="#3D783D"/>
<path d="M564.559 0.059082H583.169V18.6691H564.559V0.059082ZM601.779 0.059082H620.389V18.6691H601.779V0.059082ZM583.169 37.2791H601.779V55.8891H583.169V37.2791ZM601.779 18.6691H620.389V37.2791H601.779V18.6691ZM601.779 55.8891L620.389 55.8901V74.5001H601.779V55.8891ZM620.39 55.8901H639V74.5001H620.39V55.8901Z" fill="#498448"/>
<path d="M620.39 74.5H639V93.11H620.39V74.5Z" fill="#3D783D"/>
</g>
<defs>
<clipPath id="clip0_9365_947">
<rect width="639" height="149" fill="white"/>
</clipPath>
</defs>
</svg>
