<?xml version="1.0" encoding="UTF-8"?>
<svg width="122" height="122" viewBox="0 0 122 122" xmlns="http://www.w3.org/2000/svg" xmlns:xlink="http://www.w3.org/1999/xlink">
    <g id="Group">
        <path id="Path" fill="#a2a3ac" stroke="none" d="M 1.426 7.432999 C -0.475 5.531998 -0.475 2.448997 1.426 0.546997 C 3.327 -1.355003 6.41 -1.355003 8.312 0.546997 L 61.438999 53.674004 L 114.566002 0.546997 C 116.467003 -1.355003 119.550003 -1.355003 121.453003 0.546997 C 123.353996 2.447998 123.353996 5.531998 121.453003 7.432999 L 68.323997 60.558998 L 121.452003 113.687004 C 123.352997 115.588005 123.352997 118.671005 121.452003 120.573006 C 119.550003 122.475006 116.467003 122.475006 114.565002 120.573006 L 61.438 67.445999 L 8.312 120.573006 C 6.411 122.475006 3.328 122.475006 1.426 120.573006 C -0.475 118.672005 -0.475 115.589005 1.426 113.687004 L 54.553001 60.558998 L 1.426 7.432999 L 1.426 7.432999 Z"/>
    </g>
</svg>
