<svg width="20" height="21" viewBox="0 0 20 21" fill="none" xmlns="http://www.w3.org/2000/svg">
<path d="M5 14.2266C5.18477 16.3104 6.89118 17.7883 9.48884 17.9796V19.5H10.7931V17.9796C13.6299 17.7564 15.3906 16.1829 15.3906 13.8545C15.3906 11.8663 14.2059 10.7181 11.6952 10.0696L10.7931 9.83566V5.08323C12.1952 5.22145 13.1408 5.97631 13.3799 7.10328H15.2167C15.0102 5.1045 13.2929 3.6692 10.7931 3.50972V2H9.48884V3.54162C7.06508 3.82868 5.40215 5.38092 5.40215 7.48603C5.40215 9.30407 6.60859 10.5905 8.72802 11.1327L9.48884 11.3348V16.3742C8.05415 16.1616 7.06508 15.3748 6.82597 14.2266H5ZM9.23885 9.43165C7.93459 9.10207 7.23898 8.40036 7.23898 7.4116C7.23898 6.23147 8.11936 5.35966 9.48884 5.12576V9.49544L9.23885 9.43165ZM11.2279 11.7707C12.8364 12.1747 13.5429 12.8445 13.5429 13.9821C13.5429 15.3536 12.5104 16.2679 10.7931 16.4061V11.6643L11.2279 11.7707Z" fill="white"/>
</svg>
