<svg width="16" height="16" viewBox="0 0 16 16" fill="none" xmlns="http://www.w3.org/2000/svg">
<mask id="mask0_6361_4470" style="mask-type:luminance" maskUnits="userSpaceOnUse" x="0" y="0" width="16" height="16">
<path d="M15.4668 0.533203H0.533447V15.4665H15.4668V0.533203Z" fill="white"/>
</mask>
<g mask="url(#mask0_6361_4470)">
<mask id="mask1_6361_4470" style="mask-type:luminance" maskUnits="userSpaceOnUse" x="0" y="1" width="16" height="14">
<path d="M15.4668 1.21191H0.533447V14.7877H15.4668V1.21191Z" fill="white"/>
</mask>
<g mask="url(#mask1_6361_4470)">
<path d="M0.875954 11.0397C0.483955 9.65104 0.535705 7.08691 0.535705 7.08691C0.535705 7.08691 1.97035 9.40064 4.4445 10.1245C6.26729 10.6577 8.77615 10.6986 10.355 9.98478C12.2672 9.35748 13.4539 7.40696 12.8942 6.01258C12.0715 3.96295 9.67706 3.15122 7.18098 3.34541C5.26799 3.49423 3.6908 4.41099 2.74804 5.31326C1.81552 6.20571 1.57978 6.92332 1.57978 6.92332C1.57978 6.92332 0.852347 6.14783 0.763611 5.31326C0.560118 3.39937 2.28082 1.9092 4.73246 1.39382C8.05438 0.695476 11.9561 2.05206 14.0857 4.7046C15.5589 6.53969 15.9679 9.02716 14.7506 11.1688C12.9275 14.3763 8.86843 15.0106 6.23978 14.705C3.61113 14.3995 1.32003 12.6128 0.875954 11.0397Z" fill="black"/>
</g>
</g>
</svg>
