<svg width="113" height="22" viewBox="0 0 113 22" fill="none" xmlns="http://www.w3.org/2000/svg">
<g clip-path="url(#clip0_8937_822)">
<mask id="mask0_8937_822" style="mask-type:luminance" maskUnits="userSpaceOnUse" x="0" y="0" width="113" height="22">
<path d="M0 0H113V22H0V0Z" fill="white"/>
</mask>
<g mask="url(#mask0_8937_822)">
<path d="M0.534046 15.7429C-0.0769541 13.5759 0.00404588 9.57593 0.00404588 9.57593C0.00404588 9.57593 2.24205 13.1859 6.10205 14.3159C8.94605 15.1469 12.861 15.2109 15.324 14.0969C18.308 13.1179 20.159 10.0749 19.286 7.89893C18.002 4.70093 14.266 3.43493 10.372 3.73793C7.38705 3.96993 4.92605 5.39993 3.45505 6.80793C2.00005 8.20093 1.63205 9.31993 1.63205 9.31993C1.63205 9.31993 0.497046 8.10993 0.360046 6.80793C0.0400459 3.82193 2.72605 1.49693 6.55005 0.692932C11.734 -0.397068 17.821 1.71993 21.144 5.85893C23.443 8.72193 24.081 12.6029 22.182 15.9449C19.337 20.9489 13.004 21.9389 8.90205 21.4619C4.80105 20.9849 1.22705 18.1979 0.534046 15.7429ZM46.58 21.3169V6.60193H51.217V21.3169H46.58ZM48.911 4.88193C48.258 4.88193 47.703 4.66993 47.234 4.23393C47.0097 4.03378 46.8308 3.78784 46.7095 3.51269C46.5882 3.23755 46.5274 2.9396 46.531 2.63893C46.531 2.02893 46.766 1.50493 47.234 1.06893C47.6846 0.637148 48.287 0.40006 48.911 0.408932C49.565 0.408932 50.132 0.632932 50.588 1.06893C51.057 1.50493 51.291 2.02893 51.291 2.63893C51.291 3.26193 51.057 3.78593 50.588 4.23393C50.12 4.66993 49.565 4.88193 48.911 4.88193Z" fill="#EDEDEB"/>
<path fill-rule="evenodd" clip-rule="evenodd" d="M35.7719 21.3169H28.5959V1.69189H35.7589C37.7319 1.69189 39.4459 2.09089 40.8639 2.87589C42.2824 3.64454 43.4378 4.82086 44.1809 6.25289C44.9579 7.71089 45.3519 9.46689 45.3519 11.4979C45.3519 13.5419 44.9579 15.2979 44.1809 16.7689C43.4039 18.2389 42.3069 19.3609 40.8759 20.1459C39.4459 20.9179 37.7449 21.3169 35.7719 21.3169ZM33.2929 17.2669H35.5999C36.6849 17.2669 37.6099 17.0809 38.3619 16.7069C39.1269 16.3329 39.6939 15.7219 40.0759 14.8749C40.4699 14.0279 40.6679 12.8939 40.6679 11.4849C40.6679 10.0779 40.4699 8.95689 40.0759 8.10889C39.6809 7.26189 39.1019 6.66389 38.3369 6.28989C37.5729 5.91589 36.6479 5.72989 35.5269 5.72989H33.2939L33.2929 17.2669ZM54.4469 21.0929C55.1629 21.4039 55.9889 21.5659 56.9259 21.5659C57.6039 21.5659 58.2079 21.4789 58.7509 21.3039C59.2688 21.1399 59.7502 20.8778 60.1689 20.5319C60.5759 20.1829 60.9089 19.7589 61.1669 19.2729H61.2779V21.3289H65.6429V11.3109C65.6429 10.5269 65.4829 9.84089 65.1629 9.23089C64.8441 8.61972 64.3831 8.094 63.8189 7.69789C63.2389 7.27389 62.5489 6.96289 61.7719 6.73789C60.9367 6.50731 60.0734 6.39422 59.2069 6.40189C57.8999 6.40189 56.7899 6.60189 55.8649 7.01189C54.9409 7.41189 54.2129 7.97189 53.6829 8.68189C53.1544 9.38055 52.8185 10.2057 52.7089 11.0749L56.9869 11.2249C57.0869 10.7509 57.3199 10.3769 57.7029 10.1149C58.0729 9.84089 58.5659 9.71689 59.1829 9.71689C59.7489 9.71689 60.2059 9.85389 60.5389 10.1149C60.9009 10.4139 61.0439 10.8379 61.0439 11.2989C61.0439 11.5979 60.9339 11.8349 60.6989 11.9969C60.4769 12.1589 60.1069 12.2829 59.6019 12.3709C59.0959 12.4579 58.4299 12.5329 57.6039 12.6069C56.8639 12.6699 56.1739 12.7939 55.5199 12.9809C54.9028 13.1445 54.3187 13.4142 53.7939 13.7779C53.2879 14.1279 52.9059 14.5879 52.6229 15.1489C52.3389 15.7089 52.1909 16.3949 52.1909 17.2179C52.1909 18.1889 52.4009 18.9989 52.8079 19.6479C53.1649 20.2949 53.7319 20.7679 54.4479 21.0929H54.4469ZM59.6999 18.1889C59.3059 18.3889 58.8499 18.5009 58.3559 18.5009C57.8259 18.5009 57.3819 18.3759 57.0359 18.1149C56.6919 17.8529 56.5189 17.4919 56.5189 17.0049C56.5189 16.6819 56.5929 16.4079 56.7529 16.1829C56.9129 15.9469 57.1479 15.7599 57.4559 15.6099C57.8107 15.444 58.1893 15.3346 58.5779 15.2859C58.7879 15.2489 59.0219 15.2239 59.2559 15.1859C59.4909 15.1489 59.7119 15.0989 59.9339 15.0499C60.1559 14.9999 60.3539 14.9499 60.5389 14.8869C60.7021 14.8333 60.8623 14.7712 61.0189 14.7009V16.0959C61.0189 16.5699 60.8959 16.9929 60.6619 17.3549C60.421 17.7134 60.089 18.0012 59.6999 18.1889Z" fill="#EDEDEB"/>
<path d="M71.574 1.69189V21.3169H66.938V1.69189H71.574ZM91.474 20.6319C92.571 21.2669 93.891 21.5909 95.432 21.5909C96.801 21.5909 97.972 21.3409 98.971 20.8429C99.97 20.3329 100.746 19.6349 101.289 18.7249C101.844 17.8149 102.14 16.7559 102.189 15.5479H97.861C97.799 16.0709 97.664 16.5079 97.454 16.8679C97.244 17.2299 96.961 17.4919 96.628 17.6779C96.295 17.8649 95.925 17.9529 95.494 17.9529C94.951 17.9529 94.483 17.8029 94.076 17.5039C93.669 17.1929 93.361 16.7439 93.126 16.1579C92.904 15.5599 92.793 14.8249 92.793 13.9529C92.793 13.0809 92.904 12.3579 93.126 11.7729C93.348 11.1739 93.669 10.7259 94.076 10.4269C94.483 10.1149 94.951 9.96589 95.494 9.96589C96.159 9.96589 96.69 10.1779 97.109 10.6139C97.529 11.0369 97.775 11.6349 97.873 12.3829H102.201C102.164 11.1739 101.868 10.1279 101.301 9.23089C100.734 8.33389 99.957 7.63589 98.946 7.13689C97.947 6.65089 96.776 6.40189 95.432 6.40189C93.903 6.40189 92.596 6.72589 91.499 7.36189C90.401 7.99689 89.563 8.89389 88.971 10.0399C88.379 11.1739 88.083 12.4949 88.083 14.0029C88.083 15.4979 88.379 16.8309 88.971 17.9649C89.5178 19.0856 90.3902 20.0151 91.474 20.6319Z" fill="#EDEDEB"/>
<path fill-rule="evenodd" clip-rule="evenodd" d="M80.04 21.5909C78.512 21.5909 77.205 21.2919 76.095 20.6809C75.0064 20.0816 74.1219 19.1706 73.555 18.0649C72.963 16.9309 72.667 15.5729 72.667 14.0149C72.667 12.4949 72.963 11.1619 73.555 10.0279C74.1178 8.91459 74.9914 7.9885 76.07 7.36186C77.155 6.72586 78.425 6.40186 79.893 6.40186C80.928 6.40186 81.878 6.56386 82.741 6.88786C83.604 7.21186 84.344 7.69786 84.973 8.33386C85.602 8.96886 86.083 9.76586 86.428 10.7009C86.773 11.6349 86.946 12.7069 86.946 13.9159V15.0859H77.242V15.2109C77.242 15.8089 77.352 16.3329 77.587 16.7939C77.821 17.2419 78.154 17.5909 78.586 17.8399C79.017 18.0899 79.523 18.2139 80.126 18.2139C80.534 18.2139 80.916 18.1519 81.249 18.0399C81.582 17.9279 81.866 17.7529 82.112 17.5289C82.3523 17.299 82.5378 17.0181 82.655 16.7069L86.909 16.8309C86.7505 17.7596 86.3457 18.6288 85.737 19.3479C85.145 20.0579 84.369 20.6069 83.394 21.0049C82.42 21.3919 81.31 21.5909 80.04 21.5909ZM82.642 12.3459C82.63 11.8469 82.556 11.4609 82.334 11.0749C82.1014 10.6732 81.7649 10.3417 81.36 10.1149C80.965 9.89086 80.522 9.77886 80.004 9.77886C79.486 9.77886 79.017 9.89086 78.61 10.1279C78.203 10.3519 77.87 10.6759 77.636 11.0749C77.4065 11.4605 77.2753 11.8966 77.254 12.3449L82.642 12.3459Z" fill="#EDEDEB"/>
<path d="M111.716 6.60193V10.0529H109.09V16.6939C109.09 16.9809 109.139 17.2179 109.225 17.3919C109.315 17.5586 109.458 17.6902 109.632 17.7659C109.805 17.8409 110.027 17.8659 110.273 17.8659C110.446 17.8659 110.631 17.8529 110.828 17.8159C111.025 17.7779 111.186 17.7409 111.284 17.7159L111.987 21.0929C111.765 21.1549 111.457 21.2429 111.05 21.3289C110.655 21.4289 110.175 21.4909 109.62 21.5159C108.535 21.5659 107.598 21.4419 106.821 21.1299C106.044 20.8189 105.464 20.3329 105.045 19.6719C104.638 19.0119 104.441 18.1889 104.453 17.1919V10.0409H102.53V6.59993H104.453V3.07593H109.09V6.60293L111.716 6.60193Z" fill="#EDEDEB"/>
</g>
</g>
<defs>
<clipPath id="clip0_8937_822">
<rect width="113" height="22" fill="white"/>
</clipPath>
</defs>
</svg>
