<svg width="134" height="23" viewBox="0 0 134 23" fill="none" xmlns="http://www.w3.org/2000/svg">
<g clip-path="url(#clip0_10704_13427)">
<path d="M21.4688 0.890159C21.9236 0.33063 22.6144 0 23.349 0H27.5291C27.9052 0 28.1238 0.423885 27.8877 0.712127L20.5768 9.8087C20.3845 10.0461 20.0959 10.1817 19.7811 10.1817H16.1868C15.7409 10.1817 15.3736 10.5378 15.3736 10.9701V12.0129C15.3736 12.4453 15.7409 12.8013 16.1868 12.8013H19.7811C20.0959 12.8013 20.3845 12.937 20.5768 13.1743L27.8877 22.2709C28.1238 22.5592 27.9052 22.983 27.5291 22.983H23.349C22.6144 22.983 21.9236 22.6524 21.4688 22.0929L14.7876 13.7847C14.3854 13.2846 13.5983 13.2846 13.196 13.7847L6.51485 22.0929C6.06011 22.6524 5.36925 22.983 4.63467 22.983H0.454548C0.0785118 22.983 -0.140114 22.5592 0.0960019 22.2709L7.41559 13.1828C7.60798 12.9454 7.89656 12.8098 8.21138 12.8098H11.8056C12.2516 12.8098 12.6189 12.4537 12.6189 12.0214V10.9786C12.6189 10.5463 12.2516 10.1902 11.8056 10.1902H8.21138C7.89656 10.1902 7.60798 10.0546 7.41559 9.81718L0.0960019 0.712127C-0.140114 0.423885 0.0785118 0 0.454548 0H4.63467C5.36925 0 6.06011 0.33063 6.51485 0.890159L13.196 9.19831C13.5983 9.69849 14.3854 9.69849 14.7876 9.19831L21.4688 0.890159Z" fill="white"/>
<path fill-rule="evenodd" clip-rule="evenodd" d="M128.246 14.124C128.246 16.2688 129.208 17.1336 131.586 17.1336H134V15.0141H132.041C131.14 15.0141 130.773 14.6581 130.773 13.7849V8.09633H134V5.9769H130.773V2.84863H128.814L128.587 4.74764C128.473 5.66323 128.149 5.9769 127.205 5.9769H125.937V8.09633H128.237V14.124H128.246ZM113.449 17.1336H115.985V11.1059C115.985 9.20691 117.253 7.86743 119.203 7.86743C121.153 7.86743 122.08 9.20691 122.08 11.1059V17.1336H124.616V10.7753C124.616 7.71483 123.025 5.75648 120.244 5.75648C118.267 5.75648 116.79 6.62969 115.985 8.12176V5.9769H113.449V17.1336ZM99.6144 11.5552C99.6144 8.0709 102.098 5.75648 105.596 5.75648C109.094 5.75648 111.578 8.07937 111.578 11.5552V12.1148H102.185C102.395 14.0307 103.794 15.243 105.596 15.243C107.048 15.243 108.01 14.6411 108.569 13.6831H111.236C110.476 15.9128 108.499 17.3625 105.596 17.3625C102.098 17.3625 99.6144 15.0396 99.6144 11.5637V11.5552ZM102.238 10.7075L109.007 10.682C108.753 8.96106 107.397 7.86743 105.596 7.86743C103.917 7.86743 102.561 8.96106 102.238 10.699V10.7075ZM86.8029 17.1336H89.339V11.1059C89.339 9.20691 90.607 7.86743 92.5659 7.86743C94.5248 7.86743 95.443 9.20691 95.443 11.1059V17.1336H97.979V10.7753C97.979 7.71483 96.3875 5.75648 93.6065 5.75648C91.6302 5.75648 90.1522 6.62969 89.3477 8.12176V5.9769H86.8116V17.1336H86.8029ZM78.9761 5.74801C82.7015 5.74801 85.1938 8.0709 85.1938 11.5468C85.1938 15.0226 82.7102 17.3455 78.9761 17.3455C75.242 17.3455 72.7584 15.0226 72.7584 11.5468C72.7584 8.0709 75.242 5.74801 78.9761 5.74801ZM78.9761 15.2346C81.1886 15.2346 82.6578 13.7594 82.6578 11.5552C82.6578 9.35103 81.1886 7.87591 78.9761 7.87591C76.7636 7.87591 75.2944 9.35103 75.2944 11.5552C75.2944 13.7594 76.7636 15.2346 78.9761 15.2346ZM61.7222 7.74027V5.9769H59.1861V20.1516H61.7222V15.3702C62.553 16.5995 63.8822 17.354 65.7536 17.354C69.0942 17.354 71.3942 15.0311 71.3942 11.5552C71.3942 8.07937 69.0942 5.75648 65.7536 5.75648C63.8909 5.75648 62.553 6.51948 61.7222 7.74027ZM68.8581 11.5552C68.8581 13.7679 67.389 15.2346 65.1765 15.2346C62.964 15.2346 61.4948 13.7594 61.4948 11.5552C61.4948 9.35103 62.964 7.87591 65.1765 7.87591C67.389 7.87591 68.8581 9.35103 68.8581 11.5552ZM57.6383 17.1336H54.4113L51.1844 12.9371L47.9575 17.1336H44.7306L49.3305 11.4196L44.958 5.9769H48.1849L51.1757 10.0801L54.1665 5.9769H57.3934L53.0209 11.4196L57.6208 17.1336H57.6383ZM38.714 5.74801C35.216 5.74801 32.7324 8.0709 32.7324 11.5468C32.7324 15.0226 35.216 17.3455 38.714 17.3455C41.6174 17.3455 43.5937 15.8958 44.3546 13.6662H41.6873C41.1364 14.6242 40.1657 15.2261 38.714 15.2261C36.9213 15.2261 35.5133 14.0222 35.3035 12.0978H44.6956V11.5383C44.6956 8.05394 42.212 5.73953 38.714 5.73953V5.74801ZM42.1246 10.682L35.3559 10.7075C35.6795 8.96953 37.035 7.87591 38.714 7.87591C40.5067 7.87591 41.871 8.96953 42.1246 10.6905V10.682Z" fill="white"/>
</g>
<defs>
<clipPath id="clip0_10704_13427">
<rect width="134" height="23" fill="white"/>
</clipPath>
</defs>
</svg>
