<svg width="198" height="127" viewBox="0 0 198 127" fill="none" xmlns="http://www.w3.org/2000/svg">
<path opacity="0.6" d="M40.258 16.0495C30.6944 8.66907 18.6882 13.2673 13.7481 16.0792C24.8629 25.5739 36.7986 21.062 41.3772 17.6191L40.5848 16.8707L37.8258 18.4423L39.4153 17.2L40.258 16.0495Z" fill="url(#paint0_linear)"/>
<circle r="1.51241" transform="matrix(-0.999716 -0.023813 -0.023813 0.999716 35.6136 16.0658)" fill="#0A1153"/>
<path opacity="0.6" d="M7.45605 7.27051C10.9559 8.779 15.4666 13.9163 17.2844 16.2964C14.9496 19.4436 9.30553 21.1827 6.77537 21.6588C7.79651 20.0678 10.7443 17.0072 12.0906 15.6757C11.0267 14.1472 8.55763 9.43535 7.45605 7.27051Z" fill="url(#paint1_linear)"/>
<path opacity="0.6" d="M19.5098 19.8399C25.4916 19.9395 28.0285 20.912 28.3356 21.3005C27.8169 21.3594 27.0756 22.0916 25.4051 22.1918C21.763 22.4101 12.0326 19.7153 19.5098 19.8399Z" fill="url(#paint2_linear)"/>
<path opacity="0.6" d="M17.883 11.1029C16.0828 11.0683 17.1456 13.0884 17.9021 14.1028L23.4879 12.4519C22.3698 12.0167 19.6833 11.1374 17.883 11.1029Z" fill="url(#paint3_linear)"/>
<path opacity="0.6" d="M76.6402 37.5212C69.4736 27.7964 56.6659 28.9175 51.1433 30.2633C59.2202 42.4473 71.9364 41.3898 77.2849 39.3381L76.7287 38.4006L73.6441 39.1534L75.5138 38.3958L76.6402 37.5212Z" fill="url(#paint4_linear)"/>
<circle r="1.51241" transform="matrix(-0.954666 -0.297678 -0.297678 0.954666 72.1699 36.2612)" fill="#0A1153"/>
<path opacity="0.6" d="M47.5142 20.0645C50.4646 22.4768 53.3895 28.6561 54.4831 31.4441C51.3732 33.8283 45.4685 33.9491 42.9049 33.7115C44.324 32.4625 47.9996 30.3299 49.6599 29.4198C49.0572 27.6577 47.9783 22.4487 47.5142 20.0645Z" fill="url(#paint5_linear)"/>
<path opacity="0.6" d="M55.6492 35.4634C61.3731 37.2033 63.545 38.8356 63.7336 39.2936C63.2187 39.2077 62.3047 39.7079 60.6709 39.345C57.1091 38.5538 48.4942 33.2884 55.6492 35.4634Z" fill="url(#paint6_linear)"/>
<path opacity="0.6" d="M56.4864 26.6165C54.765 26.0884 55.2317 28.3229 55.6802 29.5061L61.5046 29.4542C60.5492 28.7283 58.2079 27.1446 56.4864 26.6165Z" fill="url(#paint7_linear)"/>
<path opacity="0.6" d="M110.193 67.1855C100.83 59.5525 88.7052 63.8286 83.6919 66.5077C94.5493 76.2957 106.601 72.1039 111.27 68.7845L110.498 68.0151L107.698 69.5126L109.32 68.3131L110.193 67.1855Z" fill="url(#paint8_linear)"/>
<circle r="1.51241" transform="matrix(-0.998725 -0.050485 -0.050485 0.998725 105.55 67.0777)" fill="#0A1153"/>
<path opacity="0.6" d="M77.6372 57.5342C81.0956 59.1355 85.4675 64.3914 87.2212 66.8192C84.8032 69.9029 79.1147 71.4908 76.5728 71.8992C77.636 70.336 80.6645 67.3551 82.0458 66.0601C81.0231 64.5037 78.6806 59.7277 77.6372 57.5342Z" fill="url(#paint9_linear)"/>
<path opacity="0.6" d="M89.3513 70.421C95.3283 70.6802 97.8383 71.72 98.135 72.1166C97.6149 72.1617 96.8544 72.8738 95.1817 72.9294C91.5351 73.0504 81.8801 70.0969 89.3513 70.421Z" fill="url(#paint10_linear)"/>
<path opacity="0.6" d="M87.958 61.644C86.1593 61.5614 87.1679 63.6092 87.897 64.6434L93.5249 63.1422C92.4188 62.6772 89.7567 61.7266 87.958 61.644Z" fill="url(#paint11_linear)"/>
<path opacity="0.6" d="M103.972 21.474C93.6811 15.1465 82.2285 20.9887 77.6136 24.3074C89.6702 32.5733 101.062 26.8243 105.251 22.9165L104.383 22.2561L101.806 24.1107L103.255 22.7072L103.972 21.474Z" fill="url(#paint12_linear)"/>
<circle r="1.51241" transform="matrix(-0.996628 0.0820553 0.0820553 0.996628 99.3551 21.981)" fill="#0A1153"/>
<path opacity="0.6" d="M70.4248 16.2139C74.0646 17.3437 79.0933 21.9752 81.1527 24.1496C79.1638 27.5261 73.7353 29.8524 71.2697 30.5935C72.1169 28.9034 74.7244 25.5481 75.9223 24.0818C74.7028 22.6743 71.7492 18.2501 70.4248 16.2139Z" fill="url(#paint13_linear)"/>
<path opacity="0.6" d="M83.7403 27.4379C89.6991 26.9044 92.3246 27.603 92.6711 27.9569C92.1615 28.0704 91.5019 28.8769 89.8513 29.1531C86.2527 29.7554 76.2919 28.1049 83.7403 27.4379Z" fill="url(#paint14_linear)"/>
<path opacity="0.6" d="M81.1986 18.9216C79.4048 19.0776 80.6754 20.974 81.5349 21.9027L86.9148 19.6703C85.7569 19.3557 82.9925 18.7656 81.1986 18.9216Z" fill="url(#paint15_linear)"/>
<path opacity="0.6" d="M127.42 101.106C120.253 91.3814 107.445 92.5025 101.923 93.8483C110 106.032 122.716 104.975 128.064 102.923L127.508 101.986L124.423 102.738L126.293 101.981L127.42 101.106Z" fill="url(#paint16_linear)"/>
<circle r="1.51241" transform="matrix(-0.954666 -0.297678 -0.297678 0.954666 122.949 99.8462)" fill="#0A1153"/>
<path opacity="0.6" d="M98.2935 83.6494C101.244 86.0618 104.169 92.241 105.262 95.0291C102.152 97.4133 96.2478 97.5341 93.6842 97.2965C95.1033 96.0474 98.7789 93.9149 100.439 93.0047C99.8365 91.2427 98.7576 86.0337 98.2935 83.6494Z" fill="url(#paint17_linear)"/>
<path opacity="0.6" d="M106.428 99.0483C112.152 100.788 114.324 102.421 114.513 102.879C113.998 102.793 113.084 103.293 111.45 102.93C107.888 102.139 99.2735 96.8734 106.428 99.0483Z" fill="url(#paint18_linear)"/>
<path opacity="0.6" d="M107.266 90.2014C105.544 89.6734 106.011 91.9078 106.459 93.0911L112.284 93.0391C111.328 92.3133 108.987 90.7295 107.266 90.2014Z" fill="url(#paint19_linear)"/>
<path opacity="0.6" d="M39.7738 115.877C29.6721 109.252 18.0541 114.758 13.3444 117.94C25.1548 126.554 36.7092 121.14 41.0101 117.356L40.1626 116.671L37.5324 118.449L39.0219 117.089L39.7738 115.877Z" fill="url(#paint20_linear)"/>
<circle r="1.51241" transform="matrix(-0.998597 0.05296 0.05296 0.998597 35.1445 116.25)" fill="#0A1153"/>
<path opacity="0.6" d="M4.21387 111.428C8.01012 111.764 13.9028 115.23 16.3746 116.922C15.1428 120.642 10.3273 124.061 8.07357 125.305C8.54508 123.475 10.3861 119.645 11.2476 117.959C9.75857 116.84 5.93802 113.139 4.21387 111.428Z" fill="url(#paint21_linear)"/>
<path opacity="0.6" d="M19.3777 121.248C25.3495 120.888 27.9535 121.663 28.2895 122.027C27.7769 122.125 27.094 122.912 25.436 123.14C21.8214 123.637 11.913 121.697 19.3777 121.248Z" fill="url(#paint22_linear)"/>
<path opacity="0.6" d="M17.0852 112.662C15.2876 112.766 16.5023 114.699 17.3344 115.652L22.7771 113.577C21.6289 113.229 18.8829 112.559 17.0852 112.662Z" fill="url(#paint23_linear)"/>
<path opacity="0.6" d="M75.3638 49.2609C64.8979 43.2279 53.6157 49.3926 49.0968 52.8409C61.3831 60.7614 72.607 54.6915 76.6832 50.6665L75.7977 50.031L73.2741 51.9579L74.6828 50.5139L75.3638 49.2609Z" fill="url(#paint24_linear)"/>
<circle r="1.51241" transform="matrix(-0.993899 0.110295 0.110295 0.993899 70.7632 49.8995)" fill="#0A1153"/>
<path opacity="0.6" d="M41.0469 44.7568C44.7061 45.822 49.8162 50.3635 51.9138 52.5012C49.985 55.9124 44.5987 58.3345 42.1466 59.1192C42.9636 57.4144 45.5113 54.0134 46.683 52.526C45.4387 51.1404 42.4071 46.7692 41.0469 44.7568Z" fill="url(#paint25_linear)"/>
<path opacity="0.6" d="M55.3099 55.7964C61.2511 55.094 63.8953 55.7179 64.2518 56.0618C63.7456 56.1896 63.1091 57.0145 61.467 57.3375C57.887 58.0416 47.8834 56.6743 55.3099 55.7964Z" fill="url(#paint26_linear)"/>
<path opacity="0.6" d="M52.5281 47.3565C50.7394 47.5634 52.0633 49.4229 52.9488 50.3269L58.2632 47.9428C57.0968 47.6612 54.3168 47.1497 52.5281 47.3565Z" fill="url(#paint27_linear)"/>
<path opacity="0.6" d="M192.465 32.8685C182.897 25.4936 170.894 30.0985 165.955 32.9133C177.075 42.4017 189.009 37.883 193.585 34.4376L192.792 33.6896L190.034 35.2628L191.623 34.0196L192.465 32.8685Z" fill="url(#paint28_linear)"/>
<circle r="1.51241" transform="matrix(-0.99973 -0.0232488 -0.0232488 0.99973 187.821 32.888)" fill="#0A1153"/>
<path opacity="0.6" d="M159.056 23.8281C162.54 25.3718 166.999 30.5543 168.793 32.9526C166.426 36.0761 160.765 37.7582 158.23 38.2089C159.267 36.6282 162.246 33.5974 163.605 32.2796C162.557 30.7404 160.135 26.004 159.056 23.8281Z" fill="url(#paint29_linear)"/>
<path opacity="0.6" d="M171.719 36.6711C177.701 36.7673 180.238 37.7383 180.546 38.1267C180.027 38.1859 179.286 38.9186 177.615 39.0196C173.974 39.24 164.242 36.5507 171.719 36.6711Z" fill="url(#paint30_linear)"/>
<path opacity="0.6" d="M170.087 27.9353C168.287 27.9017 169.351 29.9213 170.108 30.9352L175.693 29.2812C174.574 28.8466 171.887 27.9689 170.087 27.9353Z" fill="url(#paint31_linear)"/>
<defs>
<linearGradient id="paint0_linear" x1="26.94" y1="19.4383" x2="25.9296" y2="5.37656" gradientUnits="userSpaceOnUse">
<stop stop-color="#3745A5"/>
<stop offset="0.348859" stop-color="#3745A5" stop-opacity="0.266667"/>
<stop offset="1" stop-color="#3745A5"/>
</linearGradient>
<linearGradient id="paint1_linear" x1="6.1029" y1="18.5937" x2="16.9663" y2="18.7073" gradientUnits="userSpaceOnUse">
<stop stop-color="#030724"/>
<stop offset="0.668508" stop-color="#3745A5"/>
<stop offset="1" stop-color="#3745A5" stop-opacity="0"/>
</linearGradient>
<linearGradient id="paint2_linear" x1="21.9608" y1="21.6252" x2="23.4452" y2="16.5771" gradientUnits="userSpaceOnUse">
<stop stop-color="#3745A5"/>
<stop offset="0.348859" stop-color="#3745A5" stop-opacity="0.266667"/>
<stop offset="1" stop-color="#3745A5"/>
</linearGradient>
<linearGradient id="paint3_linear" x1="21.7274" y1="13.3095" x2="14.4516" y2="8.52106" gradientUnits="userSpaceOnUse">
<stop stop-color="#3745A5"/>
<stop offset="0.348859" stop-color="#3745A5" stop-opacity="0.266667"/>
<stop offset="1" stop-color="#3745A5"/>
</linearGradient>
<linearGradient id="paint4_linear" x1="62.9037" y1="37.1189" x2="65.7973" y2="23.3211" gradientUnits="userSpaceOnUse">
<stop stop-color="#3745A5"/>
<stop offset="0.348859" stop-color="#3745A5" stop-opacity="0.266667"/>
<stop offset="1" stop-color="#3745A5"/>
</linearGradient>
<linearGradient id="paint5_linear" x1="43.1008" y1="30.5796" x2="53.5145" y2="33.6748" gradientUnits="userSpaceOnUse">
<stop stop-color="#030724"/>
<stop offset="0.668508" stop-color="#3745A5"/>
<stop offset="1" stop-color="#3745A5" stop-opacity="0"/>
</linearGradient>
<linearGradient id="paint6_linear" x1="57.515" y1="37.8536" x2="60.3298" y2="33.4079" gradientUnits="userSpaceOnUse">
<stop stop-color="#3745A5"/>
<stop offset="0.348859" stop-color="#3745A5" stop-opacity="0.266667"/>
<stop offset="1" stop-color="#3745A5"/>
</linearGradient>
<linearGradient id="paint7_linear" x1="59.5762" y1="29.7948" x2="53.8968" y2="23.191" gradientUnits="userSpaceOnUse">
<stop stop-color="#3745A5"/>
<stop offset="0.348859" stop-color="#3745A5" stop-opacity="0.266667"/>
<stop offset="1" stop-color="#3745A5"/>
</linearGradient>
<linearGradient id="paint8_linear" x1="96.7894" y1="70.2177" x2="96.1547" y2="56.134" gradientUnits="userSpaceOnUse">
<stop stop-color="#3745A5"/>
<stop offset="0.348859" stop-color="#3745A5" stop-opacity="0.266667"/>
<stop offset="1" stop-color="#3745A5"/>
</linearGradient>
<linearGradient id="paint9_linear" x1="75.9823" y1="68.8172" x2="86.8388" y2="69.2208" gradientUnits="userSpaceOnUse">
<stop stop-color="#030724"/>
<stop offset="0.668508" stop-color="#3745A5"/>
<stop offset="1" stop-color="#3745A5" stop-opacity="0"/>
</linearGradient>
<linearGradient id="paint10_linear" x1="91.7538" y1="72.271" x2="93.3724" y2="67.2644" gradientUnits="userSpaceOnUse">
<stop stop-color="#3745A5"/>
<stop offset="0.348859" stop-color="#3745A5" stop-opacity="0.266667"/>
<stop offset="1" stop-color="#3745A5"/>
</linearGradient>
<linearGradient id="paint11_linear" x1="91.7421" y1="63.9525" x2="84.5967" y2="58.9716" gradientUnits="userSpaceOnUse">
<stop stop-color="#3745A5"/>
<stop offset="0.348859" stop-color="#3745A5" stop-opacity="0.266667"/>
<stop offset="1" stop-color="#3745A5"/>
</linearGradient>
<linearGradient id="paint12_linear" x1="91.0867" y1="26.2524" x2="88.5948" y2="12.3764" gradientUnits="userSpaceOnUse">
<stop stop-color="#3745A5"/>
<stop offset="0.348859" stop-color="#3745A5" stop-opacity="0.266667"/>
<stop offset="1" stop-color="#3745A5"/>
</linearGradient>
<linearGradient id="paint13_linear" x1="70.2768" y1="27.6166" x2="81.0913" y2="26.5807" gradientUnits="userSpaceOnUse">
<stop stop-color="#030724"/>
<stop offset="0.668508" stop-color="#3745A5"/>
<stop offset="1" stop-color="#3745A5" stop-opacity="0"/>
</linearGradient>
<linearGradient id="paint14_linear" x1="86.3664" y1="28.954" x2="87.3085" y2="23.7772" gradientUnits="userSpaceOnUse">
<stop stop-color="#3745A5"/>
<stop offset="0.348859" stop-color="#3745A5" stop-opacity="0.266667"/>
<stop offset="1" stop-color="#3745A5"/>
</linearGradient>
<linearGradient id="paint15_linear" x1="85.2548" y1="20.7093" x2="77.5134" y2="16.7172" gradientUnits="userSpaceOnUse">
<stop stop-color="#3745A5"/>
<stop offset="0.348859" stop-color="#3745A5" stop-opacity="0.266667"/>
<stop offset="1" stop-color="#3745A5"/>
</linearGradient>
<linearGradient id="paint16_linear" x1="113.683" y1="100.704" x2="116.577" y2="86.9061" gradientUnits="userSpaceOnUse">
<stop stop-color="#3745A5"/>
<stop offset="0.348859" stop-color="#3745A5" stop-opacity="0.266667"/>
<stop offset="1" stop-color="#3745A5"/>
</linearGradient>
<linearGradient id="paint17_linear" x1="93.8801" y1="94.1645" x2="104.294" y2="97.2597" gradientUnits="userSpaceOnUse">
<stop stop-color="#030724"/>
<stop offset="0.668508" stop-color="#3745A5"/>
<stop offset="1" stop-color="#3745A5" stop-opacity="0"/>
</linearGradient>
<linearGradient id="paint18_linear" x1="108.294" y1="101.439" x2="111.109" y2="96.9929" gradientUnits="userSpaceOnUse">
<stop stop-color="#3745A5"/>
<stop offset="0.348859" stop-color="#3745A5" stop-opacity="0.266667"/>
<stop offset="1" stop-color="#3745A5"/>
</linearGradient>
<linearGradient id="paint19_linear" x1="110.355" y1="93.3797" x2="104.676" y2="86.7759" gradientUnits="userSpaceOnUse">
<stop stop-color="#3745A5"/>
<stop offset="0.348859" stop-color="#3745A5" stop-opacity="0.266667"/>
<stop offset="1" stop-color="#3745A5"/>
</linearGradient>
<linearGradient id="paint20_linear" x1="26.755" y1="120.277" x2="24.6688" y2="106.335" gradientUnits="userSpaceOnUse">
<stop stop-color="#3745A5"/>
<stop offset="0.348859" stop-color="#3745A5" stop-opacity="0.266667"/>
<stop offset="1" stop-color="#3745A5"/>
</linearGradient>
<linearGradient id="paint21_linear" x1="6.47498" y1="122.605" x2="16.8274" y2="119.311" gradientUnits="userSpaceOnUse">
<stop stop-color="#030724"/>
<stop offset="0.668508" stop-color="#3745A5"/>
<stop offset="1" stop-color="#3745A5" stop-opacity="0"/>
</linearGradient>
<linearGradient id="paint22_linear" x1="21.9584" y1="122.84" x2="23.0511" y2="117.693" gradientUnits="userSpaceOnUse">
<stop stop-color="#3745A5"/>
<stop offset="0.348859" stop-color="#3745A5" stop-opacity="0.266667"/>
<stop offset="1" stop-color="#3745A5"/>
</linearGradient>
<linearGradient id="paint23_linear" x1="21.0875" y1="114.568" x2="13.4658" y2="110.351" gradientUnits="userSpaceOnUse">
<stop stop-color="#3745A5"/>
<stop offset="0.348859" stop-color="#3745A5" stop-opacity="0.266667"/>
<stop offset="1" stop-color="#3745A5"/>
</linearGradient>
<linearGradient id="paint24_linear" x1="62.6197" y1="54.4029" x2="59.7351" y2="40.6032" gradientUnits="userSpaceOnUse">
<stop stop-color="#3745A5"/>
<stop offset="0.348859" stop-color="#3745A5" stop-opacity="0.266667"/>
<stop offset="1" stop-color="#3745A5"/>
</linearGradient>
<linearGradient id="paint25_linear" x1="41.1011" y1="56.1604" x2="51.8955" y2="54.933" gradientUnits="userSpaceOnUse">
<stop stop-color="#030724"/>
<stop offset="0.668508" stop-color="#3745A5"/>
<stop offset="1" stop-color="#3745A5" stop-opacity="0"/>
</linearGradient>
<linearGradient id="paint26_linear" x1="57.9778" y1="57.2373" x2="58.7728" y2="52.0359" gradientUnits="userSpaceOnUse">
<stop stop-color="#3745A5"/>
<stop offset="0.348859" stop-color="#3745A5" stop-opacity="0.266667"/>
<stop offset="1" stop-color="#3745A5"/>
</linearGradient>
<linearGradient id="paint27_linear" x1="56.6334" y1="49.0284" x2="48.7818" y2="45.2576" gradientUnits="userSpaceOnUse">
<stop stop-color="#3745A5"/>
<stop offset="0.348859" stop-color="#3745A5" stop-opacity="0.266667"/>
<stop offset="1" stop-color="#3745A5"/>
</linearGradient>
<linearGradient id="paint28_linear" x1="179.149" y1="36.2649" x2="178.131" y2="22.2037" gradientUnits="userSpaceOnUse">
<stop stop-color="#3745A5"/>
<stop offset="0.348859" stop-color="#3745A5" stop-opacity="0.266667"/>
<stop offset="1" stop-color="#3745A5"/>
</linearGradient>
<linearGradient id="paint29_linear" x1="157.588" y1="35.1371" x2="168.45" y2="35.3602" gradientUnits="userSpaceOnUse">
<stop stop-color="#030724"/>
<stop offset="0.668508" stop-color="#3745A5"/>
<stop offset="1" stop-color="#3745A5" stop-opacity="0"/>
</linearGradient>
<linearGradient id="paint30_linear" x1="174.171" y1="38.455" x2="175.652" y2="33.406" gradientUnits="userSpaceOnUse">
<stop stop-color="#3745A5"/>
<stop offset="0.348859" stop-color="#3745A5" stop-opacity="0.266667"/>
<stop offset="1" stop-color="#3745A5"/>
</linearGradient>
<linearGradient id="paint31_linear" x1="173.933" y1="30.1398" x2="166.654" y2="25.3554" gradientUnits="userSpaceOnUse">
<stop stop-color="#3745A5"/>
<stop offset="0.348859" stop-color="#3745A5" stop-opacity="0.266667"/>
<stop offset="1" stop-color="#3745A5"/>
</linearGradient>
</defs>
</svg>
