<svg width="31" height="26" viewBox="0 0 31 26" fill="none" xmlns="http://www.w3.org/2000/svg">
<path d="M8.47612 23.5978C6.84789 24.4926 3.98239 23.6162 3.50977 22.0949C4.42595 22.028 5.31653 21.7352 6.24171 21.9454C7.22432 22.1686 7.85195 22.849 8.47612 23.5985V23.5978Z" fill="url(#paint0_linear_5210_1772)"/>
<path d="M27.4634 22.1045C26.8911 23.6449 24.0159 24.5097 22.4922 23.589C23.1295 22.8396 23.7606 22.0669 24.8055 21.9543C25.5127 21.8779 26.2427 21.9966 26.9617 22.0349C27.1195 22.0431 27.2766 22.0779 27.4634 22.1045Z" fill="url(#paint1_linear_5210_1772)"/>
<path d="M8.63475 23.4732C7.95522 22.8452 7.31929 22.2453 7.10685 21.3423C6.87366 20.3527 7.24318 19.4306 7.36496 18.4443C9.13229 19.6701 9.52464 21.6419 8.63475 23.4725V23.4732Z" fill="url(#paint2_linear_5210_1772)"/>
<path d="M23.6028 18.4722C23.7281 19.4407 24.0955 20.3696 23.8568 21.3606C23.6402 22.2615 22.9897 22.8464 22.3565 23.4675C21.3338 22.0158 22.0479 19.1731 23.6028 18.4722Z" fill="url(#paint3_linear_5210_1772)"/>
<path d="M5.59195 20.6754C5.01692 19.9021 4.43081 19.1138 4.58858 18.118C4.71729 17.3037 5.05428 16.5216 5.30686 15.7012C6.68252 16.555 6.82368 19.4441 5.59195 20.6754Z" fill="url(#paint4_linear_5210_1772)"/>
<path d="M25.3708 20.6657C24.1502 19.1696 24.1785 17.1978 25.5369 15.7461C25.557 15.7516 25.5929 15.7516 25.5971 15.7625C25.8635 16.5194 26.197 17.262 26.3735 18.0387C26.5583 18.8536 26.1272 19.5593 25.6995 20.2303C25.604 20.3804 25.4843 20.5162 25.3708 20.665V20.6657Z" fill="url(#paint5_linear_5210_1772)"/>
<path d="M5.43853 20.8046C3.30169 21.1806 1.61118 20.1698 1.00293 18.4321C1.91911 18.5263 2.83807 18.4301 3.68644 18.8239C4.54934 19.2239 5.00051 19.978 5.43853 20.8053V20.8046Z" fill="url(#paint6_linear_5210_1772)"/>
<path d="M25.5944 20.8034C25.5944 20.7611 25.5785 20.7092 25.5965 20.6737C26.1874 19.5073 27.0019 18.6234 28.4274 18.5299C28.9297 18.4965 29.4328 18.4692 29.9407 18.4385C29.7906 19.9714 27.4261 21.245 25.5944 20.8034Z" fill="url(#paint7_linear_5210_1772)"/>
<path d="M30.9665 13.7505C31.0004 15.6356 29.7376 17.0512 27.9121 17.3617C27.5744 15.9455 28.9937 14.2562 30.9665 13.7505Z" fill="url(#paint8_linear_5210_1772)"/>
<path d="M0.0136051 13.6597C0.715275 14.0467 1.38857 14.3661 2.00444 14.7708C2.73725 15.252 3.10815 16.3863 3.07562 17.3432C1.54773 17.4142 -0.170462 15.4165 0.0136051 13.6597Z" fill="url(#paint9_linear_5210_1772)"/>
<path d="M3.34844 17.2982C2.59141 15.9612 3.32491 13.8924 4.91924 12.8687C5.75031 14.1108 4.78223 16.8402 3.34844 17.2982Z" fill="url(#paint10_linear_5210_1772)"/>
<path d="M27.6285 17.3085C26.1504 16.7734 25.2861 14.3627 26.0224 12.8742C26.0445 12.8721 26.0778 12.8592 26.0868 12.8687C26.6424 13.4529 27.2943 13.9594 27.652 14.7061C27.9807 15.3927 27.9683 16.5318 27.6285 17.3078V17.3085Z" fill="url(#paint11_linear_5210_1772)"/>
<path d="M28.7271 13.5143C28.2012 12.0735 29.0655 10.4027 30.8024 9.46289C31.4771 10.6867 30.3346 12.9321 28.7271 13.5143Z" fill="url(#paint12_linear_5210_1772)"/>
<path d="M26.0203 9.60742C26.5649 9.98622 27.0936 10.3084 27.569 10.6947C28.4762 11.4311 28.553 12.4494 28.4879 13.5142C26.7296 13.0098 25.7041 11.3854 26.021 9.60742H26.0203Z" fill="url(#paint13_linear_5210_1772)"/>
<path d="M0.160768 9.38477C0.697746 9.84342 1.22919 10.2297 1.67621 10.6938C2.45054 11.4979 2.41455 12.4937 2.272 13.5188C0.503299 12.7701 -0.280716 11.1859 0.160768 9.38477Z" fill="url(#paint14_linear_5210_1772)"/>
<path d="M4.93942 9.67334C5.52622 10.9271 4.181 13.0675 2.52578 13.5146C2.06631 12.1174 3.12919 10.4255 4.93942 9.67334Z" fill="url(#paint15_linear_5210_1772)"/>
<path d="M7.37072 0.5C7.51465 2.09437 6.4746 3.60343 4.67129 3.95219C4.38827 2.59125 5.35843 1.34155 7.37072 0.5Z" fill="url(#paint16_linear_5210_1772)"/>
<path d="M26.3074 3.96162C24.6972 3.7282 23.3976 2.08674 23.5831 0.544922C25.0902 0.70941 26.4901 2.44984 26.3074 3.96162Z" fill="url(#paint17_linear_5210_1772)"/>
<path d="M1.56684 5.68164C2.96741 6.75866 3.39367 8.2916 2.70099 9.70374C1.4409 9.23894 0.837487 7.13405 1.56684 5.68164Z" fill="url(#paint18_linear_5210_1772)"/>
<path d="M28.2981 9.72678C27.5445 8.50029 27.9618 6.94141 29.3603 5.69922C30.2245 6.6527 29.6364 8.91935 28.2981 9.72678Z" fill="url(#paint19_linear_5210_1772)"/>
<path d="M2.89941 9.77151C2.96238 8.24061 4.1609 7.0503 5.86317 6.80322C5.83619 8.40647 4.52211 9.6821 2.89941 9.77151Z" fill="url(#paint20_linear_5210_1772)"/>
<path d="M25.0948 6.79199C26.9521 7.18854 28.0938 8.342 28.053 9.75823C26.6947 9.92135 25.0823 8.31811 25.0948 6.79199Z" fill="url(#paint21_linear_5210_1772)"/>
<path d="M6.97102 3.74463C6.86099 5.27962 5.48879 6.42557 3.95605 6.39622C4.06331 4.9759 5.22169 3.95689 6.97102 3.74463Z" fill="url(#paint22_linear_5210_1772)"/>
<path d="M28.0111 2.40234C28.7813 3.74486 28.5003 5.35834 27.2388 6.31524C26.4085 5.31261 26.7406 3.59403 28.0111 2.40234Z" fill="url(#paint23_linear_5210_1772)"/>
<path d="M23.9834 3.73047C25.9272 4.11063 26.8053 4.88188 27.0129 6.37592C25.7929 6.70012 24.0547 5.19789 23.9834 3.73047Z" fill="url(#paint24_linear_5210_1772)"/>
<path d="M3.73926 6.32932C2.45563 5.3342 2.18507 3.68932 2.95524 2.42529C4.16068 3.33714 4.53158 5.14787 3.73926 6.32932Z" fill="url(#paint25_linear_5210_1772)"/>
<path d="M22.079 23.7979C22.0098 23.8607 21.9482 23.933 21.8714 23.9849C20.4868 24.9145 18.9547 25.4073 17.2836 25.4885C17.2144 25.4919 17.1307 25.5151 17.0795 25.4851C16.9646 25.4182 16.8656 25.324 16.7598 25.2408C16.8649 25.1752 16.9639 25.0647 17.076 25.051C17.7818 24.963 18.4959 24.9302 19.1969 24.8149C20.1242 24.662 20.9795 24.2968 21.7815 23.8116C21.8528 23.7686 21.933 23.7406 22.0084 23.7051C22.032 23.7365 22.0555 23.7672 22.079 23.7986V23.7979Z" fill="url(#paint26_linear_5210_1772)"/>
<path d="M8.94305 23.708C9.0254 23.7415 9.11467 23.764 9.1894 23.8097C10.5782 24.6581 12.104 25.0116 13.7212 25.0458C13.9004 25.0498 14.1876 24.9707 14.1917 25.2444C14.1966 25.5235 13.9163 25.4969 13.7115 25.488C12.0272 25.4184 10.4855 24.9181 9.09183 23.9817C9.0164 23.9312 8.95551 23.8588 8.8877 23.7974C8.90638 23.7674 8.92437 23.738 8.94305 23.708Z" fill="url(#paint27_linear_5210_1772)"/>
<path d="M11.4268 15.7102V14.0149L15.6775 7.31818H17.1392V9.66477H16.2741L13.5944 13.9055V13.9851H19.6349V15.7102H11.4268ZM16.3139 17.5V15.1932L16.3537 14.4425V7.31818H18.3721V17.5H16.3139Z" fill="url(#paint28_linear_5210_1772)"/>
<defs>
<linearGradient id="paint0_linear_5210_1772" x1="5.99294" y1="21.8706" x2="5.99294" y2="23.9576" gradientUnits="userSpaceOnUse">
<stop stop-color="#E6B594"/>
<stop offset="1" stop-color="#685141"/>
</linearGradient>
<linearGradient id="paint1_linear_5210_1772" x1="24.9778" y1="21.9292" x2="24.9778" y2="23.9668" gradientUnits="userSpaceOnUse">
<stop stop-color="#E6B594"/>
<stop offset="1" stop-color="#685141"/>
</linearGradient>
<linearGradient id="paint2_linear_5210_1772" x1="8.0627" y1="18.4443" x2="8.0627" y2="23.4732" gradientUnits="userSpaceOnUse">
<stop stop-color="#E6B594"/>
<stop offset="1" stop-color="#685141"/>
</linearGradient>
<linearGradient id="paint3_linear_5210_1772" x1="22.9073" y1="18.4722" x2="22.9073" y2="23.4675" gradientUnits="userSpaceOnUse">
<stop stop-color="#E6B594"/>
<stop offset="1" stop-color="#685141"/>
</linearGradient>
<linearGradient id="paint4_linear_5210_1772" x1="5.4981" y1="15.7012" x2="5.4981" y2="20.6754" gradientUnits="userSpaceOnUse">
<stop stop-color="#E6B594"/>
<stop offset="1" stop-color="#685141"/>
</linearGradient>
<linearGradient id="paint5_linear_5210_1772" x1="25.4514" y1="15.7461" x2="25.4514" y2="20.6657" gradientUnits="userSpaceOnUse">
<stop stop-color="#E6B594"/>
<stop offset="1" stop-color="#685141"/>
</linearGradient>
<linearGradient id="paint6_linear_5210_1772" x1="3.22073" y1="18.4321" x2="3.22073" y2="20.8828" gradientUnits="userSpaceOnUse">
<stop stop-color="#E6B594"/>
<stop offset="1" stop-color="#685141"/>
</linearGradient>
<linearGradient id="paint7_linear_5210_1772" x1="27.7643" y1="18.4385" x2="27.7643" y2="20.8921" gradientUnits="userSpaceOnUse">
<stop stop-color="#E6B594"/>
<stop offset="1" stop-color="#685141"/>
</linearGradient>
<linearGradient id="paint8_linear_5210_1772" x1="29.4147" y1="13.7505" x2="29.4147" y2="17.3617" gradientUnits="userSpaceOnUse">
<stop stop-color="#E6B594"/>
<stop offset="1" stop-color="#685141"/>
</linearGradient>
<linearGradient id="paint9_linear_5210_1772" x1="1.5388" y1="13.6597" x2="1.5388" y2="17.3451" gradientUnits="userSpaceOnUse">
<stop stop-color="#E6B594"/>
<stop offset="1" stop-color="#685141"/>
</linearGradient>
<linearGradient id="paint10_linear_5210_1772" x1="4.13749" y1="12.8687" x2="4.13749" y2="17.2982" gradientUnits="userSpaceOnUse">
<stop stop-color="#E6B594"/>
<stop offset="1" stop-color="#685141"/>
</linearGradient>
<linearGradient id="paint11_linear_5210_1772" x1="26.823" y1="12.8652" x2="26.823" y2="17.3085" gradientUnits="userSpaceOnUse">
<stop stop-color="#E6B594"/>
<stop offset="1" stop-color="#685141"/>
</linearGradient>
<linearGradient id="paint12_linear_5210_1772" x1="29.7871" y1="9.46289" x2="29.7871" y2="13.5143" gradientUnits="userSpaceOnUse">
<stop stop-color="#E6B594"/>
<stop offset="1" stop-color="#685141"/>
</linearGradient>
<linearGradient id="paint13_linear_5210_1772" x1="27.2347" y1="9.60742" x2="27.2347" y2="13.5142" gradientUnits="userSpaceOnUse">
<stop stop-color="#E6B594"/>
<stop offset="1" stop-color="#685141"/>
</linearGradient>
<linearGradient id="paint14_linear_5210_1772" x1="1.19655" y1="9.38477" x2="1.19655" y2="13.5188" gradientUnits="userSpaceOnUse">
<stop stop-color="#E6B594"/>
<stop offset="1" stop-color="#685141"/>
</linearGradient>
<linearGradient id="paint15_linear_5210_1772" x1="3.74917" y1="9.67334" x2="3.74917" y2="13.5146" gradientUnits="userSpaceOnUse">
<stop stop-color="#E6B594"/>
<stop offset="1" stop-color="#685141"/>
</linearGradient>
<linearGradient id="paint16_linear_5210_1772" x1="6.00349" y1="0.5" x2="6.00349" y2="3.95219" gradientUnits="userSpaceOnUse">
<stop stop-color="#E6B594"/>
<stop offset="1" stop-color="#685141"/>
</linearGradient>
<linearGradient id="paint17_linear_5210_1772" x1="24.9445" y1="0.544922" x2="24.9445" y2="3.96162" gradientUnits="userSpaceOnUse">
<stop stop-color="#E6B594"/>
<stop offset="1" stop-color="#685141"/>
</linearGradient>
<linearGradient id="paint18_linear_5210_1772" x1="2.13948" y1="5.68164" x2="2.13948" y2="9.70374" gradientUnits="userSpaceOnUse">
<stop stop-color="#E6B594"/>
<stop offset="1" stop-color="#685141"/>
</linearGradient>
<linearGradient id="paint19_linear_5210_1772" x1="28.8473" y1="5.69922" x2="28.8473" y2="9.72678" gradientUnits="userSpaceOnUse">
<stop stop-color="#E6B594"/>
<stop offset="1" stop-color="#685141"/>
</linearGradient>
<linearGradient id="paint20_linear_5210_1772" x1="4.38129" y1="6.80322" x2="4.38129" y2="9.77151" gradientUnits="userSpaceOnUse">
<stop stop-color="#E6B594"/>
<stop offset="1" stop-color="#685141"/>
</linearGradient>
<linearGradient id="paint21_linear_5210_1772" x1="26.5744" y1="6.79199" x2="26.5744" y2="9.76972" gradientUnits="userSpaceOnUse">
<stop stop-color="#E6B594"/>
<stop offset="1" stop-color="#685141"/>
</linearGradient>
<linearGradient id="paint22_linear_5210_1772" x1="5.46354" y1="3.74463" x2="5.46354" y2="6.39678" gradientUnits="userSpaceOnUse">
<stop stop-color="#E6B594"/>
<stop offset="1" stop-color="#685141"/>
</linearGradient>
<linearGradient id="paint23_linear_5210_1772" x1="27.6105" y1="2.40234" x2="27.6105" y2="6.31524" gradientUnits="userSpaceOnUse">
<stop stop-color="#E6B594"/>
<stop offset="1" stop-color="#685141"/>
</linearGradient>
<linearGradient id="paint24_linear_5210_1772" x1="25.4981" y1="3.73047" x2="25.4981" y2="6.42048" gradientUnits="userSpaceOnUse">
<stop stop-color="#E6B594"/>
<stop offset="1" stop-color="#685141"/>
</linearGradient>
<linearGradient id="paint25_linear_5210_1772" x1="3.3422" y1="2.42529" x2="3.3422" y2="6.32932" gradientUnits="userSpaceOnUse">
<stop stop-color="#E6B594"/>
<stop offset="1" stop-color="#685141"/>
</linearGradient>
<linearGradient id="paint26_linear_5210_1772" x1="19.4194" y1="23.7051" x2="19.4194" y2="25.5003" gradientUnits="userSpaceOnUse">
<stop stop-color="#E6B594"/>
<stop offset="1" stop-color="#685141"/>
</linearGradient>
<linearGradient id="paint27_linear_5210_1772" x1="11.5397" y1="23.708" x2="11.5397" y2="25.493" gradientUnits="userSpaceOnUse">
<stop stop-color="#E6B594"/>
<stop offset="1" stop-color="#685141"/>
</linearGradient>
<linearGradient id="paint28_linear_5210_1772" x1="15.4998" y1="3.5" x2="15.4998" y2="20.5" gradientUnits="userSpaceOnUse">
<stop stop-color="#E6B594"/>
<stop offset="1" stop-color="#685141"/>
</linearGradient>
</defs>
</svg>
