<?xml version="1.0" encoding="UTF-8"?>
<!-- Generated by Pixelmator Pro 3.2.3 -->
<svg width="24" height="24" viewBox="0 0 24 24" xmlns="http://www.w3.org/2000/svg" xmlns:xlink="http://www.w3.org/1999/xlink">
    <path id="Path" fill="#ffffff" stroke="none" d="M 12 0 C 5.374 0 0 5.373001 0 12 C 0 17.302 3.438 21.799999 8.207 23.386999 C 8.806 23.497999 9 23.125999 9 22.809999 L 9 20.576 C 5.662 21.302 4.967 19.16 4.967 19.16 C 4.421 17.773001 3.634 17.403999 3.634 17.403999 C 2.545 16.659 3.717 16.674999 3.717 16.674999 C 4.922 16.759001 5.556 17.912001 5.556 17.912001 C 6.626 19.746 8.363 19.216 9.048 18.909 C 9.155 18.134001 9.466 17.604 9.81 17.305 C 7.145 17 4.343 15.971 4.343 11.374 C 4.343 10.063 4.812 8.993 5.579 8.153 C 5.455 7.85 5.044 6.629 5.696 4.977001 C 5.696 4.977001 6.704 4.655001 8.997 6.207001 C 9.954 5.941 10.98 5.808001 12 5.802999 C 13.02 5.808001 14.047 5.941 15.006 6.207001 C 17.297001 4.655001 18.302999 4.977001 18.302999 4.977001 C 18.955999 6.630001 18.545 7.851 18.421 8.153 C 19.191 8.993 19.656 10.064 19.656 11.374 C 19.656 15.983 16.849001 16.997999 14.177 17.295 C 14.607 17.667 15 18.396999 15 19.517 L 15 22.809999 C 15 23.129 15.192 23.504 15.801 23.386 C 20.566 21.797001 24 17.299999 24 12 C 24 5.373001 18.627001 0 12 0 Z"/>
</svg>
