<svg width="20" height="21" viewBox="0 0 20 21" fill="none" xmlns="http://www.w3.org/2000/svg">
<path d="M10.3467 0.854969C10.1368 0.71501 9.8633 0.71501 9.65336 0.854969L0.278361 7.10497C0.0492002 7.25774 -0.0529454 7.54252 0.0268661 7.80612C0.106678 8.06971 0.349632 8.25 0.625049 8.25H2.9688V17H1.87505C1.52987 17 1.25005 17.2798 1.25005 17.625C1.25005 17.9702 1.52987 18.25 1.87505 18.25H18.125C18.4702 18.25 18.75 17.9702 18.75 17.625C18.75 17.2798 18.4702 17 18.125 17H17.0313V8.25H19.375C19.6505 8.25 19.8934 8.06971 19.9732 7.80612C20.053 7.54252 19.9509 7.25774 19.7217 7.10497L10.3467 0.854969ZM15.4688 8.25V17H13.9063V8.25H15.4688ZM12.3438 8.25V17H10.7813V8.25H12.3438ZM9.2188 8.25V17H7.6563V8.25H9.2188ZM6.0938 8.25V17H4.5313V8.25H6.0938ZM10 5.75C9.30964 5.75 8.75 5.19036 8.75 4.5C8.75 3.80964 9.30964 3.25 10 3.25C10.6904 3.25 11.25 3.80964 11.25 4.5C11.25 5.19036 10.6904 5.75 10 5.75Z" fill="white"/>
<path d="M0.625049 19.5C0.279871 19.5 4.85938e-05 19.7798 4.85938e-05 20.125C4.85938e-05 20.4702 0.279871 20.75 0.625049 20.75H19.375C19.7202 20.75 20 20.4702 20 20.125C20 19.7798 19.7202 19.5 19.375 19.5H0.625049Z" fill="white"/>
</svg>
