<svg width="22" height="22" viewBox="0 0 22 22" fill="none" xmlns="http://www.w3.org/2000/svg">
<mask id="mask0_1988_6837" style="mask-type:alpha" maskUnits="userSpaceOnUse" x="0" y="0" width="22" height="22">
<rect width="22" height="22" fill="#D9D9D9"/>
</mask>
<g mask="url(#mask0_1988_6837)">
<path d="M0.916992 18.3337V15.767C0.916992 15.2475 1.05067 14.7701 1.31803 14.3347C1.5854 13.8993 1.9406 13.567 2.38366 13.3378C3.33088 12.8642 4.29338 12.509 5.27116 12.2722C6.24894 12.0354 7.24199 11.917 8.25033 11.917C9.25866 11.917 10.2517 12.0354 11.2295 12.2722C12.2073 12.509 13.1698 12.8642 14.117 13.3378C14.56 13.567 14.9153 13.8993 15.1826 14.3347C15.45 14.7701 15.5837 15.2475 15.5837 15.767V18.3337H0.916992ZM17.417 18.3337V15.5837C17.417 14.9114 17.2298 14.266 16.8555 13.6472C16.4812 13.0285 15.9503 12.4975 15.2628 12.0545C16.042 12.1462 16.7753 12.3028 17.4628 12.5243C18.1503 12.7458 18.792 13.017 19.3878 13.3378C19.9378 13.6434 20.358 13.9833 20.6482 14.3576C20.9385 14.7319 21.0837 15.1406 21.0837 15.5837V18.3337H17.417ZM8.25033 11.0003C7.24199 11.0003 6.3788 10.6413 5.66074 9.92324C4.94269 9.20519 4.58366 8.34199 4.58366 7.33366C4.58366 6.32533 4.94269 5.46213 5.66074 4.74408C6.3788 4.02602 7.24199 3.66699 8.25033 3.66699C9.25866 3.66699 10.1219 4.02602 10.8399 4.74408C11.558 5.46213 11.917 6.32533 11.917 7.33366C11.917 8.34199 11.558 9.20519 10.8399 9.92324C10.1219 10.6413 9.25866 11.0003 8.25033 11.0003ZM17.417 7.33366C17.417 8.34199 17.058 9.20519 16.3399 9.92324C15.6219 10.6413 14.7587 11.0003 13.7503 11.0003C13.5823 11.0003 13.3684 10.9812 13.1087 10.943C12.8489 10.9048 12.635 10.8628 12.467 10.817C12.8795 10.3281 13.1965 9.78574 13.418 9.18991C13.6396 8.59408 13.7503 7.97533 13.7503 7.33366C13.7503 6.69199 13.6396 6.07324 13.418 5.47741C13.1965 4.88158 12.8795 4.33921 12.467 3.85033C12.6809 3.77394 12.8948 3.72428 13.1087 3.70137C13.3225 3.67845 13.5364 3.66699 13.7503 3.66699C14.7587 3.66699 15.6219 4.02602 16.3399 4.74408C17.058 5.46213 17.417 6.32533 17.417 7.33366ZM2.75033 16.5003H13.7503V15.767C13.7503 15.5989 13.7083 15.4462 13.6243 15.3087C13.5403 15.1712 13.4295 15.0642 13.292 14.9878C12.467 14.5753 11.6344 14.266 10.7941 14.0597C9.9538 13.8535 9.10588 13.7503 8.25033 13.7503C7.39477 13.7503 6.54685 13.8535 5.70658 14.0597C4.8663 14.266 4.03366 14.5753 3.20866 14.9878C3.07116 15.0642 2.9604 15.1712 2.87637 15.3087C2.79234 15.4462 2.75033 15.5989 2.75033 15.767V16.5003ZM8.25033 9.16699C8.75449 9.16699 9.18609 8.98748 9.54512 8.62845C9.90415 8.26942 10.0837 7.83783 10.0837 7.33366C10.0837 6.82949 9.90415 6.39789 9.54512 6.03887C9.18609 5.67984 8.75449 5.50033 8.25033 5.50033C7.74616 5.50033 7.31456 5.67984 6.95553 6.03887C6.59651 6.39789 6.41699 6.82949 6.41699 7.33366C6.41699 7.83783 6.59651 8.26942 6.95553 8.62845C7.31456 8.98748 7.74616 9.16699 8.25033 9.16699Z" fill="#7E7D85"/>
</g>
</svg>
