<svg width="137" height="288" viewBox="0 0 137 288" fill="none" xmlns="http://www.w3.org/2000/svg">
<g opacity="0.5">
<path opacity="0.7" d="M78.913 42.8939C79.0926 47.706 80.7466 59.3722 85.9253 67.5406C92.3986 77.7511 100.873 83.857 104.519 106.019C107.965 126.961 95.0362 129.733 103.434 152.083C111.832 174.432 118.982 170.907 123.135 194.464" stroke="url(#paint0_linear)" stroke-width="3.14507" stroke-linecap="round"/>
<path opacity="0.7" d="M78.913 42.8939C79.0926 47.706 80.7466 59.3722 85.9253 67.5406C92.3986 77.7511 100.873 83.857 104.519 106.019C107.965 126.961 95.0362 129.733 103.434 152.083C111.832 174.432 118.982 170.907 123.135 194.464" stroke="url(#paint1_linear)" stroke-width="3.14507" stroke-linecap="round"/>
<path opacity="0.7" d="M78.913 42.8939C79.0926 47.706 80.7466 59.3722 85.9253 67.5406C92.3986 77.7511 100.873 83.857 104.519 106.019C107.965 126.961 95.0362 129.733 103.434 152.083C111.832 174.432 118.982 170.907 123.135 194.464" stroke="url(#paint2_linear)" stroke-width="3.14507" stroke-linecap="round"/>
<path opacity="0.7" d="M66.5456 44.1374C66.4767 47.2373 71.4248 66.8011 75.3295 75.0109C84.303 93.8777 100.977 91.2564 109.401 113.97C117.824 136.684 99.025 152.076 103.202 166.757C106.544 178.502 109.136 184.689 110.014 186.314" stroke="url(#paint3_linear)" stroke-width="3.14507" stroke-linecap="round"/>
<path opacity="0.7" d="M72.8916 44.6069C72.6168 51.6763 73.7611 68.6005 80.5367 79.7428C89.0063 93.6708 94.9241 109.649 94.3922 120.177C93.8603 130.705 82.777 142.027 83.5696 146.879" stroke="url(#paint4_linear)" stroke-width="3.14507" stroke-linecap="round"/>
<path opacity="0.7" d="M82.1121 37.0104C86.894 45.8251 96.005 67.7459 94.1941 84.9121C91.9305 106.37 74.747 114.563 82.7789 136.598C90.8109 158.633 93.5271 169.774 90.1732 177.173" stroke="url(#paint5_linear)" stroke-width="3.14507" stroke-linecap="round"/>
<path opacity="0.7" d="M33.0416 157.629C31.4997 166.217 29.8037 187.314 35.3546 202.997C47.7484 238.014 89.4764 235.484 85.7758 285.894" stroke="url(#paint6_linear)" stroke-width="3.14507" stroke-linecap="round"/>
<path opacity="0.7" d="M25.3715 160.605C23.7222 174.587 29.0007 190.615 36.9183 198.804C46.8153 209.04 64.3415 203.048 68.0529 234.755C70.354 254.414 73.0702 263.883 75.2695 265.963" stroke="url(#paint7_linear)" stroke-width="3.14507" stroke-linecap="round"/>
<path opacity="0.7" d="M40.0308 157.396C43.528 162.728 50.2117 179.415 48.9682 203.505C47.7246 227.595 59.1323 249.54 65.9972 254.245C83.2597 269.626 103.136 269.941 105.312 285.373" stroke="url(#paint8_linear)" stroke-width="3.14507" stroke-linecap="round"/>
<path opacity="0.7" d="M36.4131 154.927C36.4131 161.843 36.2997 187.895 53.7807 193.431C69.6805 198.466 75.7957 210.546 75.7957 228.974C75.7957 247.041 87.048 250.99 92.6741 254.15" stroke="url(#paint9_linear)" stroke-width="3.14507" stroke-linecap="round"/>
<path d="M11.5747 132.832L12.8667 131.723C22.3748 123.559 36.3697 122.26 47.1967 128.536L50.996 130.739C52.7865 131.777 54.3576 133.118 55.6319 134.696L58.4225 138.152C61.8819 142.435 61.5627 148.486 57.6653 152.505C55.3941 154.847 52.1924 156.182 48.8523 156.18L36.4076 156.172C33.5298 156.17 30.658 156.491 27.852 157.127L17.871 159.391C14.7156 160.106 11.4036 159.595 8.68011 157.972C3.39544 154.823 1.60029 148.335 4.55428 143.06L7.51373 137.776C8.55367 135.919 9.92823 134.246 11.5747 132.832Z" fill="url(#paint10_radial)"/>
<path d="M17.2024 137.376L18.1262 136.406C24.9247 129.268 35.1189 128.351 43.1329 134.156L45.9451 136.193C47.2705 137.153 48.4409 138.38 49.3988 139.815L51.4966 142.955C54.097 146.849 53.9698 152.257 51.1949 155.784C49.5778 157.84 47.2637 158.978 44.8253 158.918L35.7399 158.693C33.639 158.641 31.548 158.878 29.5106 159.398L22.2636 161.248C19.9726 161.833 17.5457 161.318 15.529 159.818C11.6159 156.908 10.1918 151.072 12.2561 146.404L14.3242 141.729C15.0509 140.085 16.0251 138.612 17.2024 137.376Z" fill="url(#paint11_radial)"/>
<mask id="mask0" mask-type="alpha" maskUnits="userSpaceOnUse" x="3" y="124" width="58" height="36">
<path d="M11.5747 132.832L12.8667 131.723C22.3748 123.559 36.3697 122.26 47.1967 128.536L50.996 130.739C52.7865 131.777 54.3576 133.118 55.6319 134.696L58.4225 138.152C61.8819 142.435 61.5627 148.486 57.6653 152.505C55.3941 154.847 52.1924 156.182 48.8523 156.18L36.4076 156.172C33.5298 156.17 30.658 156.491 27.852 157.127L17.871 159.391C14.7156 160.106 11.4036 159.595 8.68011 157.972C3.39544 154.823 1.60029 148.335 4.55428 143.06L7.51373 137.776C8.55367 135.919 9.92823 134.246 11.5747 132.832Z" fill="#5663BF"/>
</mask>
<g mask="url(#mask0)">
<path d="M17.4862 136.367C15.5683 139.827 13.2924 147.447 14.7077 152.203C16.521 158.296 21.3031 159.103 22.0169 159.42" stroke="url(#paint12_linear)" stroke-width="3.14507" stroke-linecap="round"/>
<path d="M42.0802 133.782C44.6754 136.767 48.4859 143.748 48.0902 148.694C47.5833 155.031 43.0734 156.815 42.4413 157.274" stroke="url(#paint13_linear)" stroke-width="3.14507" stroke-linecap="round"/>
<path d="M11.9283 136.951C8.99045 140.518 5.33901 148.283 7.16351 152.996C9.50128 159.034 16.3834 159.62 17.4013 159.906" stroke="url(#paint14_linear)" stroke-width="3.14507" stroke-linecap="round"/>
<path d="M47.6386 133.198C51.2537 136.076 56.4398 142.912 55.6349 147.901C54.6035 154.293 47.9937 156.297 47.0573 156.788" stroke="url(#paint15_linear)" stroke-width="3.14507" stroke-linecap="round"/>
<path d="M24.1616 134.044C23.2184 137.832 21.2311 145.799 22.3407 151.236C23.7625 158.203 27.739 159.455 28.1809 159.853" stroke="url(#paint16_linear)" stroke-width="3.14507" stroke-linecap="round"/>
<path d="M35.0679 132.897C36.778 136.407 40.3784 143.787 40.4233 149.336C40.481 156.445 36.8517 158.497 36.5022 158.978" stroke="url(#paint17_linear)" stroke-width="3.14507" stroke-linecap="round"/>
<path d="M29.4317 130.581C29.7414 134.663 30.5514 143.9 31.2426 150.022C32.1283 157.865 32.2978 158.19 32.3845 158.677" stroke="url(#paint18_linear)" stroke-width="3.14507" stroke-linecap="round"/>
</g>
<path d="M46.1287 25.4312L47.1827 23.9036C54.9388 12.6616 69.3283 7.41043 82.4804 11.0222L87.0956 12.2896C89.2707 12.8869 91.2985 13.8644 93.0792 15.174L96.979 18.0421C101.813 21.5975 103.155 28.0633 100.163 33.3801C98.4186 36.4785 95.4146 38.7737 91.8938 39.698L78.7755 43.1417C75.7421 43.938 72.8042 45.0725 70.0234 46.5216L60.1319 51.6759C57.0048 53.3054 53.3723 53.6853 50.0518 52.7302C43.6084 50.877 39.9166 44.5369 41.5669 38.1586L43.2201 31.7685C43.8011 29.523 44.7856 27.378 46.1287 25.4312Z" fill="url(#paint19_radial)"/>
<path d="M53.3208 28.6592L54.0253 27.3807C59.2104 17.9718 69.7 14.1771 79.7567 18.0723L83.2857 19.4391C84.9488 20.0833 86.5228 21.0521 87.9302 22.2978L91.0123 25.026C94.8331 28.4079 96.1993 34.1431 94.2532 38.6306C93.119 41.2457 90.996 43.0875 88.4093 43.7003L78.7714 45.9835C76.5428 46.5115 74.4046 47.3408 72.4017 48.4543L65.2771 52.4149C63.0248 53.667 60.324 53.7971 57.7826 52.7759C52.851 50.7942 49.7312 45.0382 50.6121 39.5465L51.4946 34.0447C51.8047 32.1114 52.4229 30.2886 53.3208 28.6592Z" fill="url(#paint20_radial)"/>
<mask id="mask1" mask-type="alpha" maskUnits="userSpaceOnUse" x="41" y="9" width="61" height="45">
<path d="M46.1287 25.4312L47.1827 23.9036C54.9388 12.6616 69.3283 7.41043 82.4804 11.0222L87.0956 12.2896C89.2707 12.8869 91.2985 13.8644 93.0792 15.174L96.979 18.0421C101.813 21.5975 103.155 28.0633 100.163 33.3801C98.4186 36.4785 95.4146 38.7737 91.8938 39.698L78.7755 43.1417C75.7421 43.938 72.8042 45.0725 70.0234 46.5216L60.1319 51.6759C57.0048 53.3054 53.3723 53.6853 50.0518 52.7302C43.6084 50.877 39.9166 44.5369 41.5669 38.1586L43.2201 31.7685C43.8011 29.523 44.7856 27.378 46.1287 25.4312Z" fill="#5663BF"/>
</mask>
<g mask="url(#mask1)">
<path d="M53.3394 27.5169C52.2777 31.6949 51.993 40.3578 54.8038 44.9773C58.4052 50.8963 63.669 50.4201 64.5094 50.5567" stroke="url(#paint21_linear)" stroke-width="3.14507" stroke-linecap="round"/>
<path d="M78.5434 17.9709C82.1066 20.3971 88.0591 26.6975 89.0141 32.0199C90.2378 38.8396 85.9794 41.9701 85.4404 42.6292" stroke="url(#paint22_linear)" stroke-width="3.14507" stroke-linecap="round"/>
<path d="M47.6436 29.6752C45.5366 34.2491 43.8423 43.446 47.0725 47.9066C51.2113 53.6221 58.6272 52.3306 59.7793 52.3492" stroke="url(#paint23_linear)" stroke-width="3.14507" stroke-linecap="round"/>
<path d="M84.2392 15.8131C88.8477 17.8434 96.2098 23.6099 96.7454 29.0911C97.4317 36.1144 91.0212 40.0601 90.1705 40.8372" stroke="url(#paint24_linear)" stroke-width="3.14507" stroke-linecap="round"/>
<path d="M59.7307 23.2166C59.7875 27.4708 59.9031 36.4192 62.5808 41.8416C66.0117 48.7895 70.5502 49.0063 71.1263 49.3032" stroke="url(#paint25_linear)" stroke-width="3.14507" stroke-linecap="round"/>
<path d="M70.907 18.9831C73.6829 22.2074 79.5246 28.9868 81.1113 34.8225C83.1443 42.2999 79.8884 45.469 79.6536 46.0731" stroke="url(#paint26_linear)" stroke-width="3.14507" stroke-linecap="round"/>
<path d="M64.3243 18.1057C65.7831 22.322 69.1992 31.8332 71.6258 38.093C74.7351 46.114 75.0038 46.4091 75.2302 46.8979" stroke="url(#paint27_linear)" stroke-width="3.14507" stroke-linecap="round"/>
</g>
</g>
<defs>
<linearGradient id="paint0_linear" x1="71.0669" y1="32.1666" x2="146.641" y2="171.103" gradientUnits="userSpaceOnUse">
<stop stop-color="#5562BE"/>
<stop offset="0.330123" stop-color="#3543A1"/>
<stop offset="0.784145" stop-color="#142177"/>
<stop offset="1" stop-color="#081258"/>
</linearGradient>
<linearGradient id="paint1_linear" x1="79.5921" y1="62.1781" x2="115.611" y2="98.5081" gradientUnits="userSpaceOnUse">
<stop stop-color="#5562BE" stop-opacity="0"/>
<stop offset="0.361661" stop-color="#192681"/>
<stop offset="0.569725" stop-color="#182680"/>
<stop offset="0.994172" stop-color="#142177" stop-opacity="0"/>
</linearGradient>
<linearGradient id="paint2_linear" x1="112.86" y1="98.5889" x2="102.423" y2="126.075" gradientUnits="userSpaceOnUse">
<stop stop-color="#5562BE" stop-opacity="0"/>
<stop offset="0.361661" stop-color="#0E1C7B"/>
<stop offset="0.595148" stop-color="#0E1A6C"/>
<stop offset="0.994172" stop-color="#142177" stop-opacity="0"/>
</linearGradient>
<linearGradient id="paint3_linear" x1="68.1911" y1="33.9233" x2="129.224" y2="169.606" gradientUnits="userSpaceOnUse">
<stop stop-color="#5562BE"/>
<stop offset="0.330123" stop-color="#3543A1"/>
<stop offset="0.784145" stop-color="#142177"/>
<stop offset="1" stop-color="#081258"/>
</linearGradient>
<linearGradient id="paint4_linear" x1="56.1257" y1="41.0629" x2="94.746" y2="136.998" gradientUnits="userSpaceOnUse">
<stop stop-color="#5562BE"/>
<stop offset="0.330123" stop-color="#3543A1"/>
<stop offset="0.784145" stop-color="#142177"/>
<stop offset="1" stop-color="#081258"/>
</linearGradient>
<linearGradient id="paint5_linear" x1="40.5683" y1="41.0862" x2="101.275" y2="173.445" gradientUnits="userSpaceOnUse">
<stop stop-color="#5562BE"/>
<stop offset="0.330123" stop-color="#3543A1"/>
<stop offset="0.784145" stop-color="#142177"/>
<stop offset="1" stop-color="#081258"/>
</linearGradient>
<linearGradient id="paint6_linear" x1="78.8825" y1="147.503" x2="72.5272" y2="278.885" gradientUnits="userSpaceOnUse">
<stop stop-color="#5562BE"/>
<stop offset="0.330123" stop-color="#3543A1"/>
<stop offset="0.784145" stop-color="#142177"/>
<stop offset="1" stop-color="#081258"/>
</linearGradient>
<linearGradient id="paint7_linear" x1="68.7433" y1="152.288" x2="64.06" y2="260.256" gradientUnits="userSpaceOnUse">
<stop stop-color="#5562BE"/>
<stop offset="0.330123" stop-color="#3543A1"/>
<stop offset="0.784145" stop-color="#142177"/>
<stop offset="1" stop-color="#081258"/>
</linearGradient>
<linearGradient id="paint8_linear" x1="96.8254" y1="147.292" x2="91.5102" y2="278.472" gradientUnits="userSpaceOnUse">
<stop stop-color="#5562BE"/>
<stop offset="0.330123" stop-color="#3543A1"/>
<stop offset="0.784145" stop-color="#142177"/>
<stop offset="1" stop-color="#081258"/>
</linearGradient>
<linearGradient id="paint9_linear" x1="83.9376" y1="149.016" x2="80.5018" y2="243.297" gradientUnits="userSpaceOnUse">
<stop stop-color="#5562BE"/>
<stop offset="0.330123" stop-color="#3543A1"/>
<stop offset="0.784145" stop-color="#142177"/>
<stop offset="1" stop-color="#081258"/>
</linearGradient>
<radialGradient id="paint10_radial" cx="0" cy="0" r="1" gradientUnits="userSpaceOnUse" gradientTransform="translate(27.2143 119.609) rotate(78.4321) scale(38.8859 52.0414)">
<stop offset="0.374469" stop-color="#5663BF" stop-opacity="0.52"/>
<stop offset="0.608833" stop-color="#3745A5"/>
<stop offset="0.825522" stop-color="#28348A"/>
<stop offset="1" stop-color="#1A277B"/>
</radialGradient>
<radialGradient id="paint11_radial" cx="0" cy="0" r="1" gradientUnits="userSpaceOnUse" gradientTransform="translate(28.3886 125.819) rotate(77.262) scale(36.2344 39.5882)">
<stop offset="0.196062" stop-color="#5663BF" stop-opacity="0.26"/>
<stop offset="0.374469" stop-color="#5663BF" stop-opacity="0.56"/>
<stop offset="0.535757" stop-color="#3745A5"/>
<stop offset="0.69627" stop-color="#28348A"/>
<stop offset="0.800182" stop-color="#1A277B"/>
<stop offset="1" stop-color="#101A5C"/>
</radialGradient>
<linearGradient id="paint12_linear" x1="17.2896" y1="134.497" x2="17.6325" y2="158.851" gradientUnits="userSpaceOnUse">
<stop stop-color="#5562BE" stop-opacity="0"/>
<stop offset="0.330123" stop-color="#3543A1" stop-opacity="0.55"/>
<stop offset="0.784145" stop-color="#142177"/>
<stop offset="1" stop-color="#081258"/>
</linearGradient>
<linearGradient id="paint13_linear" x1="41.8836" y1="131.912" x2="46.6114" y2="155.805" gradientUnits="userSpaceOnUse">
<stop stop-color="#5562BE" stop-opacity="0"/>
<stop offset="0.330123" stop-color="#3543A1" stop-opacity="0.55"/>
<stop offset="0.784145" stop-color="#142177"/>
<stop offset="1" stop-color="#081258"/>
</linearGradient>
<linearGradient id="paint14_linear" x1="11.7317" y1="135.081" x2="12.7616" y2="159.468" gradientUnits="userSpaceOnUse">
<stop stop-color="#5562BE" stop-opacity="0"/>
<stop offset="0.330123" stop-color="#3543A1" stop-opacity="0.55"/>
<stop offset="0.784145" stop-color="#142177"/>
<stop offset="1" stop-color="#081258"/>
</linearGradient>
<linearGradient id="paint15_linear" x1="47.442" y1="131.328" x2="51.5048" y2="155.396" gradientUnits="userSpaceOnUse">
<stop stop-color="#5562BE" stop-opacity="0"/>
<stop offset="0.330123" stop-color="#3543A1" stop-opacity="0.55"/>
<stop offset="0.784145" stop-color="#142177"/>
<stop offset="1" stop-color="#081258"/>
</linearGradient>
<linearGradient id="paint16_linear" x1="23.9295" y1="134.068" x2="22.3577" y2="159.18" gradientUnits="userSpaceOnUse">
<stop stop-color="#5664C0" stop-opacity="0"/>
<stop offset="0.330123" stop-color="#3543A1" stop-opacity="0.55"/>
<stop offset="0.784145" stop-color="#142177"/>
<stop offset="1" stop-color="#081258"/>
</linearGradient>
<linearGradient id="paint17_linear" x1="35.3" y1="132.873" x2="42.0583" y2="157.11" gradientUnits="userSpaceOnUse">
<stop stop-color="#5664C0" stop-opacity="0"/>
<stop offset="0.330123" stop-color="#3543A1" stop-opacity="0.55"/>
<stop offset="0.784145" stop-color="#142177"/>
<stop offset="1" stop-color="#081258"/>
</linearGradient>
<linearGradient id="paint18_linear" x1="29.411" y1="130.583" x2="32.3968" y2="158.675" gradientUnits="userSpaceOnUse">
<stop offset="0.102118" stop-color="#5664C0" stop-opacity="0"/>
<stop offset="0.441084" stop-color="#3543A1" stop-opacity="0.37"/>
<stop offset="0.784145" stop-color="#142177"/>
<stop offset="1" stop-color="#081258"/>
</linearGradient>
<radialGradient id="paint19_radial" cx="0" cy="0" r="1" gradientUnits="userSpaceOnUse" gradientTransform="translate(58.9436 7.15604) rotate(63.6862) scale(42.3792 56.7164)">
<stop offset="0.374469" stop-color="#5663BF" stop-opacity="0.52"/>
<stop offset="0.608833" stop-color="#3745A5"/>
<stop offset="0.825522" stop-color="#28348A"/>
<stop offset="1" stop-color="#1A277B"/>
</radialGradient>
<radialGradient id="paint20_radial" cx="0" cy="0" r="1" gradientUnits="userSpaceOnUse" gradientTransform="translate(61.9043 13.3754) rotate(62.5161) scale(39.4895 43.1446)">
<stop offset="0.196062" stop-color="#5663BF" stop-opacity="0.26"/>
<stop offset="0.374469" stop-color="#5663BF" stop-opacity="0.56"/>
<stop offset="0.535757" stop-color="#3745A5"/>
<stop offset="0.69627" stop-color="#28348A"/>
<stop offset="0.800182" stop-color="#1A277B"/>
<stop offset="1" stop-color="#101A5C"/>
</radialGradient>
<linearGradient id="paint21_linear" x1="52.6134" y1="25.6002" x2="59.7306" y2="51.1727" gradientUnits="userSpaceOnUse">
<stop stop-color="#5562BE" stop-opacity="0"/>
<stop offset="0.330123" stop-color="#3543A1" stop-opacity="0.55"/>
<stop offset="0.784145" stop-color="#142177"/>
<stop offset="1" stop-color="#081258"/>
</linearGradient>
<linearGradient id="paint22_linear" x1="77.8174" y1="16.0543" x2="89.4282" y2="39.9247" gradientUnits="userSpaceOnUse">
<stop stop-color="#5562BE" stop-opacity="0"/>
<stop offset="0.330123" stop-color="#3543A1" stop-opacity="0.55"/>
<stop offset="0.784145" stop-color="#142177"/>
<stop offset="1" stop-color="#081258"/>
</linearGradient>
<linearGradient id="paint23_linear" x1="46.9176" y1="27.7585" x2="54.768" y2="53.1755" gradientUnits="userSpaceOnUse">
<stop stop-color="#5562BE" stop-opacity="0"/>
<stop offset="0.330123" stop-color="#3543A1" stop-opacity="0.55"/>
<stop offset="0.784145" stop-color="#142177"/>
<stop offset="1" stop-color="#081258"/>
</linearGradient>
<linearGradient id="paint24_linear" x1="83.5132" y1="13.8965" x2="94.4717" y2="38.1362" gradientUnits="userSpaceOnUse">
<stop stop-color="#5562BE" stop-opacity="0"/>
<stop offset="0.330123" stop-color="#3543A1" stop-opacity="0.55"/>
<stop offset="0.784145" stop-color="#142177"/>
<stop offset="1" stop-color="#081258"/>
</linearGradient>
<linearGradient id="paint25_linear" x1="59.4929" y1="23.3067" x2="64.8023" y2="50.2094" gradientUnits="userSpaceOnUse">
<stop stop-color="#5664C0" stop-opacity="0"/>
<stop offset="0.330123" stop-color="#3543A1" stop-opacity="0.55"/>
<stop offset="0.784145" stop-color="#142177"/>
<stop offset="1" stop-color="#081258"/>
</linearGradient>
<linearGradient id="paint26_linear" x1="71.1448" y1="18.893" x2="84.9909" y2="42.5622" gradientUnits="userSpaceOnUse">
<stop stop-color="#5664C0" stop-opacity="0"/>
<stop offset="0.330123" stop-color="#3543A1" stop-opacity="0.55"/>
<stop offset="0.784145" stop-color="#142177"/>
<stop offset="1" stop-color="#081258"/>
</linearGradient>
<linearGradient id="paint27_linear" x1="64.3032" y1="18.1137" x2="75.2428" y2="46.8931" gradientUnits="userSpaceOnUse">
<stop offset="0.102118" stop-color="#5664C0" stop-opacity="0"/>
<stop offset="0.441084" stop-color="#3543A1" stop-opacity="0.37"/>
<stop offset="0.784145" stop-color="#142177"/>
<stop offset="1" stop-color="#081258"/>
</linearGradient>
</defs>
</svg>
