<svg width="63" height="26" viewBox="0 0 63 26" fill="none" xmlns="http://www.w3.org/2000/svg">
<path d="M16.3041 13.4562C16.3041 16.7891 15.1863 19.5851 12.9507 21.8376C10.7152 24.0967 7.99144 25.223 4.77945 25.223H0V20.3905H4.77945C6.68095 20.3905 8.2805 19.7292 9.57815 18.3999C10.8758 17.0772 11.5246 15.4271 11.5246 13.4627L11.4861 0H16.3041V13.4562Z" fill="white"/>
<path d="M19.7407 0.229492H24.5201L24.443 4.98336H19.7021L19.7407 0.229492ZM19.7407 6.90847H24.5201V25.2167H19.7021L19.7407 6.90847Z" fill="white"/>
<path d="M32.8596 5.21823H41.0694V10.09H32.7825V16.8344C32.7825 17.8363 33.0909 18.6744 33.714 19.3554C34.3371 20.0364 35.1144 20.3835 36.0459 20.3835H41.0245V25.2159H36.0908C33.8296 25.2159 31.9217 24.3974 30.3671 22.7539C28.8125 21.1103 28.0352 19.1132 28.0352 16.7493V0.0649414H32.7761L32.8532 5.21167L32.8596 5.21823Z" fill="white"/>
<path d="M59.8538 22.3484C57.9523 24.267 55.6268 25.223 52.8773 25.223C50.1279 25.223 47.7703 24.2604 45.8816 22.3287C43.993 20.3971 43.0486 18.0333 43.0486 15.2242C43.0486 12.4151 43.9994 10.0447 45.9009 8.09991C47.8024 6.15515 50.1279 5.18604 52.8773 5.18604C55.6268 5.18604 57.9523 6.15515 59.8538 8.09991C61.7553 10.0447 62.706 12.4151 62.706 15.2242C62.706 18.0333 61.7553 20.4364 59.8538 22.3484ZM56.4041 11.4984C55.4662 10.5358 54.2906 10.0578 52.8773 10.0578C51.4641 10.0578 50.2692 10.5554 49.2928 11.5573C48.3163 12.5591 47.8281 13.7771 47.8281 15.2242C47.8281 16.6713 48.3163 17.8957 49.2928 18.891C50.2692 19.8929 51.4641 20.3906 52.8773 20.3906C54.2906 20.3906 55.5176 19.8995 56.4812 18.9107C57.4448 17.922 57.9266 16.6975 57.9266 15.2242L57.811 15.0277C57.811 13.633 57.342 12.4609 56.4041 11.4984Z" fill="white"/>
</svg>
