<svg xmlns="http://www.w3.org/2000/svg" width="129" height="40" viewBox="0 0 129 40" fill="none">
    <path d="M80.9985 26.9202H80.7835C80.5685 26.9202 80.3926 26.7454 80.3926 26.5318V13.6774C80.3926 13.4638 80.5685 13.2891 80.7835 13.2891H80.9985C81.2135 13.2891 81.3894 13.4638 81.3894 13.6774V26.5318C81.3894 26.7454 81.2135 26.9202 80.9985 26.9202Z"
          fill="white"/>
    <path d="M54.5535 26.9202H54.7685C54.9835 26.9202 55.1594 26.7454 55.1594 26.5318V13.6774C55.1594 13.4638 54.9835 13.2891 54.7685 13.2891H54.5535C54.3385 13.2891 54.1626 13.4638 54.1626 13.6774V26.5318C54.1626 26.7454 54.3385 26.9202 54.5535 26.9202Z"
          fill="white"/>
    <path d="M71.4211 13.7745C71.4211 13.7551 71.4211 13.7551 71.4211 13.7357C71.4016 13.6192 71.3625 13.5027 71.2648 13.4056C71.2452 13.3861 71.2061 13.3667 71.1866 13.3473C71.1866 13.3473 71.1866 13.3473 71.167 13.3473C71.1475 13.3279 71.1084 13.3279 71.0888 13.3085H71.0693C71.0498 13.3085 71.0302 13.2891 70.9911 13.2891C70.9716 13.2891 70.9716 13.2891 70.952 13.2891C70.9325 13.2891 70.9129 13.2891 70.8934 13.2891C70.8738 13.2891 70.8738 13.2891 70.8543 13.2891C70.8348 13.2891 70.8152 13.2891 70.7957 13.2891H70.7761C70.7566 13.2891 70.7175 13.3085 70.6979 13.3085C70.6979 13.3085 70.6784 13.3085 70.6784 13.3279C70.6588 13.3473 70.6393 13.3473 70.6198 13.3667C70.6002 13.3667 70.6002 13.3861 70.5807 13.3861C70.5611 13.4056 70.5416 13.4056 70.5416 13.425C70.522 13.4444 70.522 13.4444 70.522 13.4638C70.5025 13.4832 70.5025 13.4832 70.4829 13.5027L62.8016 25.4639L58.9511 19.4833C58.7948 19.2502 58.482 19.1726 58.2475 19.3279C58.0129 19.4833 57.9348 19.794 58.0911 20.027L62.3716 26.6872C62.3911 26.7066 62.3911 26.726 62.4107 26.726C62.4107 26.7454 62.4302 26.7454 62.4302 26.7649C62.4498 26.7843 62.4498 26.7843 62.4693 26.8037C62.4888 26.8231 62.4888 26.8231 62.5084 26.8425C62.5279 26.8425 62.5279 26.8619 62.5475 26.8619C62.567 26.8619 62.5866 26.8814 62.5866 26.8814C62.6061 26.8814 62.6257 26.9008 62.6452 26.9008C62.6647 26.9008 62.6648 26.9008 62.6843 26.9202C62.7038 26.9202 62.7234 26.9202 62.7429 26.9202C62.7625 26.9202 62.7625 26.9202 62.782 26.9202C62.8016 26.9202 62.8211 26.9202 62.8407 26.9202C62.8602 26.9202 62.8602 26.9202 62.8798 26.9202C62.8993 26.9202 62.9188 26.9202 62.9384 26.9008C62.9579 26.9008 62.9579 26.9008 62.9775 26.8814C62.997 26.8814 63.0166 26.8619 63.0361 26.8425C63.0361 26.8425 63.0557 26.8425 63.0557 26.8231C63.0752 26.8037 63.0948 26.8037 63.1143 26.7843L63.1338 26.7649C63.1534 26.7454 63.1534 26.7454 63.1729 26.726C63.1925 26.7066 63.1925 26.7066 63.212 26.6872L70.3852 15.5221V26.4153C70.3852 26.6872 70.6198 26.9202 70.8934 26.9202C71.167 26.9202 71.4016 26.6872 71.4016 26.4153L71.4211 13.7745Z"
          fill="white"/>
    <path d="M103.593 22.0851H103.828C104.043 22.0851 104.219 21.9104 104.219 21.6968V13.6579C104.219 13.4443 104.043 13.2695 103.828 13.2695H103.593C103.378 13.2695 103.202 13.4443 103.202 13.6579V21.6774C103.202 21.9104 103.378 22.0851 103.593 22.0851Z"
          fill="white"/>
    <path d="M104.082 26.0658L91.3576 13.4249C91.1621 13.2308 90.8298 13.2308 90.6344 13.4249C90.5367 13.522 90.478 13.6579 90.478 13.7939V26.4153C90.478 26.6871 90.7126 26.9201 90.9862 26.9201C91.2598 26.9201 91.4944 26.6871 91.4944 26.4153V14.9977L103.339 26.7648C103.534 26.959 103.867 26.959 104.062 26.7648C104.277 26.5706 104.277 26.2599 104.082 26.0658Z"
          fill="white"/>
    <path d="M47.0284 26.1816L44.5071 21.3272C44.3702 21.0748 44.0771 20.9777 43.823 21.1136C43.5689 21.2496 43.4712 21.5408 43.608 21.7933L43.8034 22.1816H36.2393L40.4807 14.0068C40.6175 13.7544 40.5198 13.4631 40.2657 13.3272C40.0116 13.1913 39.6989 13.2883 39.5816 13.5408L33.0339 26.1622C32.8971 26.4146 32.9948 26.7059 33.2489 26.8418C33.503 26.9777 33.7961 26.8806 33.933 26.6282L35.7116 23.1913H44.3116L46.0902 26.6282C46.2271 26.8806 46.5202 26.9777 46.7743 26.8418C47.0675 26.7253 47.1652 26.434 47.0284 26.1816Z"
          fill="white"/>
    <path d="M25.6849 26.0075L15.5603 19.3084V13.7744C15.5603 13.5025 15.3258 13.2695 15.0521 13.2695C14.7785 13.2695 14.5439 13.5025 14.5439 13.7744V26.3958C14.5439 26.6676 14.7785 26.9007 15.0521 26.9007C15.3258 26.9007 15.5603 26.6676 15.5603 26.3958V20.5123L25.118 26.8424C25.3526 26.9977 25.6653 26.9395 25.8217 26.7065V26.6871C25.978 26.4735 25.9194 26.1628 25.6849 26.0075Z"
          fill="white"/>
    <path d="M19.1177 17.7932L19.2349 17.968C19.3522 18.1427 19.6063 18.201 19.7822 18.0845L25.6849 14.1622C25.8608 14.0457 25.9195 13.7932 25.8022 13.6185L25.6849 13.4437C25.5677 13.269 25.3136 13.2107 25.1377 13.3272L19.2349 17.2495C19.059 17.366 19.0004 17.5991 19.1177 17.7932Z"
          fill="white"/>
    <path d="M127.79 17.9096C127.673 18.0262 127.615 18.2203 127.654 18.3757C127.751 18.8417 127.81 19.3465 127.81 19.9097C127.81 20.9971 127.615 21.9291 127.224 22.7058C126.833 23.4825 126.285 24.1427 125.601 24.6476C124.917 25.1524 124.096 25.5408 123.158 25.7738C122.22 26.0262 121.223 26.1427 120.129 26.1427C119.034 26.1427 118.018 26.0262 117.08 25.7738C116.141 25.5214 115.32 25.1524 114.636 24.6476C113.933 24.1427 113.405 23.4825 113.014 22.7058C112.623 21.9291 112.428 20.9777 112.428 19.9097C112.428 19.1912 112.525 18.531 112.701 17.9485C112.877 17.366 113.131 16.8417 113.464 16.3757C113.796 15.9096 114.187 15.5019 114.656 15.1718C115.125 14.8417 115.653 14.5504 116.22 14.3174C116.786 14.0844 117.412 13.9291 118.076 13.8126C118.741 13.6961 119.425 13.6572 120.148 13.6572C121.223 13.6572 122.24 13.7737 123.178 14.0262C123.217 14.0262 123.256 14.0456 123.275 14.0456C123.393 14.0844 123.53 14.0456 123.627 13.9485L123.745 13.832C123.94 13.6378 123.862 13.2883 123.588 13.23C122.533 12.9582 121.38 12.8223 120.168 12.8223C119.347 12.8223 118.565 12.8805 117.822 12.997C117.08 13.1135 116.376 13.3077 115.731 13.5601C115.086 13.8126 114.5 14.1427 113.972 14.5116C113.444 14.8999 112.995 15.3465 112.623 15.8708C112.252 16.3951 111.959 16.997 111.763 17.6572C111.548 18.3174 111.45 19.0553 111.45 19.8709C111.45 21.0942 111.665 22.1621 112.115 23.0359C112.565 23.9291 113.17 24.667 113.972 25.2495C114.773 25.832 115.692 26.2592 116.747 26.5311C117.822 26.8029 118.956 26.9388 120.187 26.9388C121.419 26.9388 122.552 26.8029 123.608 26.5311C124.663 26.2592 125.582 25.832 126.364 25.2495C127.145 24.667 127.751 23.9291 128.201 23.0359C128.65 22.1427 128.865 21.0942 128.865 19.8709C128.865 19.2495 128.807 18.6669 128.69 18.1232C128.553 17.7737 128.084 17.6184 127.79 17.9096Z"
          fill="white"/>
    <path d="M126.344 15.6962C126.625 15.6962 126.852 15.4702 126.852 15.1914C126.852 14.9125 126.625 14.6865 126.344 14.6865C126.063 14.6865 125.836 14.9125 125.836 15.1914C125.836 15.4702 126.063 15.6962 126.344 15.6962Z"
          fill="white"/>
    <path d="M35.8094 30.8616C35.6531 30.8616 35.5162 30.9392 35.4185 31.0557C31.6462 36.1819 25.6067 39.0751 19.2349 38.8227C9.36442 38.4344 1.33124 30.4538 0.959881 20.648C0.764427 15.444 2.64079 10.5314 6.27624 6.78383C9.9117 3.03625 14.7785 0.958583 20.0167 0.958583C26.0758 0.958583 31.8222 3.8712 35.4185 8.74499C35.5162 8.8615 35.6531 8.93917 35.8094 8.93917C35.9853 8.93917 36.1612 8.84208 36.2394 8.68674C36.3176 8.5314 36.2981 8.33722 36.2003 8.18188C32.2912 2.88091 26.0367 -0.167632 19.4499 0.00712555C14.2899 0.143048 9.42306 2.25955 5.76806 5.94887C2.1326 9.63819 0.0803361 14.4731 0.00215421 19.6188C-0.0760275 24.9781 1.97624 30.046 5.76806 33.8713C9.55988 37.6965 14.6417 39.813 20.0362 39.813C26.3885 39.813 32.4476 36.7645 36.2199 31.6383C36.3372 31.4829 36.3372 31.2887 36.259 31.1334C36.1612 30.9586 36.0049 30.8616 35.8094 30.8616Z"
          fill="url(#paint0_radial_2395_96491)"/>
    <defs>
        <radialGradient id="paint0_radial_2395_96491" cx="0" cy="0" r="1" gradientUnits="userSpaceOnUse"
                        gradientTransform="translate(12 41.5) rotate(-54.3815) scale(41.2098 87.0991)">
            <stop stop-color="white"/>
            <stop offset="1" stop-color="white" stop-opacity="0"/>
        </radialGradient>
    </defs>
</svg>