<svg width="500" height="156" viewBox="0 0 500 156" fill="none" xmlns="http://www.w3.org/2000/svg">
<g clip-path="url(#clip0_941_6962)">
<path d="M311.663 103.331C311.663 104.427 312.551 105.315 313.647 105.315C314.742 105.315 315.63 104.427 315.63 103.331V53.9144C315.63 52.8188 314.742 51.9307 313.647 51.9307C312.551 51.9307 311.663 52.8188 311.663 53.9144V103.331Z" fill="white"/>
<path d="M213.733 53.8948C213.733 52.7992 212.845 51.9111 211.749 51.9111C210.654 51.9111 209.765 52.7992 209.765 53.8948V103.311C209.765 104.407 210.654 105.295 211.749 105.295C212.845 105.295 213.733 104.407 213.733 103.311V53.8948Z" fill="white"/>
<path d="M276.839 53.8752C276.839 53.8752 276.839 53.7966 276.839 53.7573C276.8 53.2663 276.584 52.8145 276.25 52.5003C276.25 52.5003 276.054 52.3235 275.936 52.2646H275.897C275.897 52.2646 275.7 52.1271 275.602 52.0878C275.563 52.0878 275.543 52.0682 275.504 52.0486C275.425 52.0289 275.327 51.9896 275.229 51.97C275.19 51.97 275.131 51.97 275.072 51.97C275.013 51.97 274.934 51.9503 274.875 51.9503H274.836C274.836 51.9503 274.738 51.9503 274.699 51.9503C274.62 51.9503 274.541 51.9503 274.463 51.9896C274.443 51.9896 274.404 51.9896 274.384 52.0093C274.286 52.0289 274.188 52.0682 274.09 52.1075C274.07 52.1075 274.031 52.1468 274.011 52.1468C273.932 52.186 273.834 52.2253 273.756 52.2842C273.716 52.3235 273.677 52.3628 273.638 52.3824C273.579 52.4217 273.52 52.4807 273.461 52.5199C273.422 52.5592 273.383 52.5985 273.363 52.6574C273.324 52.7163 273.265 52.7753 273.225 52.8342L243.352 99.6779L228.385 76.2462C227.796 75.3231 226.578 75.0481 225.655 75.6373C224.732 76.2266 224.457 77.4443 225.046 78.3674L241.682 104.431C241.682 104.431 241.78 104.568 241.82 104.627C241.859 104.667 241.898 104.706 241.918 104.745C241.957 104.785 242.016 104.824 242.055 104.863C242.114 104.902 242.173 104.961 242.232 105.001H242.252C242.252 105.001 242.33 105.06 242.389 105.079C242.448 105.118 242.507 105.138 242.566 105.177C242.625 105.197 242.703 105.217 242.762 105.236C242.821 105.236 242.88 105.276 242.919 105.276C242.998 105.276 243.057 105.295 243.135 105.295C243.194 105.295 243.253 105.295 243.293 105.295C243.371 105.295 243.43 105.295 243.509 105.295C243.568 105.295 243.627 105.295 243.685 105.276C243.764 105.276 243.823 105.236 243.901 105.217C243.96 105.217 244 105.197 244.059 105.158C244.137 105.118 244.216 105.079 244.294 105.04C244.334 105.04 244.353 105.02 244.393 105.001C244.393 105.001 244.53 104.883 244.589 104.824C244.628 104.785 244.667 104.765 244.687 104.726C244.726 104.686 244.785 104.627 244.825 104.568C244.864 104.51 244.903 104.47 244.942 104.411H244.962L272.852 60.6709V103.292C272.852 104.392 273.736 105.276 274.836 105.276C275.936 105.276 276.82 104.392 276.82 103.292V53.8752H276.839Z" fill="white"/>
<path d="M402.483 51.9111H402.365C401.302 51.9111 400.44 52.7728 400.44 53.8359V84.4168C400.44 85.4799 401.302 86.3417 402.365 86.3417H402.483C403.546 86.3417 404.407 85.4799 404.407 84.4168V53.8359C404.407 52.7728 403.546 51.9111 402.483 51.9111Z" fill="white"/>
<path d="M403.799 101.917L354.382 52.5006C353.616 51.7346 352.359 51.7346 351.573 52.5006C351.18 52.8935 350.984 53.4041 350.984 53.9148V103.351C350.984 104.451 351.868 105.335 352.968 105.335C354.068 105.335 354.951 104.451 354.951 103.351V58.6875L400.99 104.726C401.756 105.492 403.013 105.492 403.799 104.726C404.565 103.96 404.565 102.703 403.799 101.917Z" fill="white"/>
<path d="M182.072 102.388L172.31 83.4152C171.799 82.4331 170.621 82.0599 169.639 82.551C168.657 83.0616 168.284 84.2401 168.775 85.2221L169.56 86.7541H140.178L156.637 54.7983C157.128 53.8359 156.755 52.6378 155.792 52.1271C154.83 51.6164 153.632 52.0093 153.121 52.9717L127.686 102.388C127.195 103.351 127.568 104.549 128.53 105.06C129.493 105.57 130.691 105.177 131.202 104.215L138.135 90.7412H171.603L178.536 104.215C179.047 105.197 180.225 105.57 181.208 105.079C182.19 104.568 182.563 103.39 182.072 102.408V102.388Z" fill="white"/>
<path d="M99.0887 101.74L59.7478 75.5195V53.9144C59.7478 52.8146 58.864 51.9307 57.7641 51.9307C56.6642 51.9307 55.7803 52.8146 55.7803 53.9144V103.331C55.7803 104.431 56.6642 105.315 57.7641 105.315C58.864 105.315 59.7478 104.431 59.7478 103.331V80.2923L96.8889 105.06C97.7924 105.649 99.0101 105.413 99.5993 104.51L99.6386 104.47C100.228 103.567 99.9921 102.349 99.0887 101.76V101.74Z" fill="white"/>
<path d="M98.854 55.666C99.7656 55.0582 100.012 53.8266 99.4042 52.915C98.7965 52.0034 97.5648 51.7571 96.6532 52.3648L74.395 67.2036C73.4835 67.8113 73.2371 69.0429 73.8449 69.9545C74.4526 70.8661 75.6842 71.1124 76.5958 70.5047L98.854 55.666Z" fill="white"/>
<path d="M495.974 70.0397C495.483 70.5307 495.306 71.2181 495.443 71.9056C495.836 73.7518 496.033 75.7355 496.033 77.8764C496.033 82.0992 495.267 85.7524 493.735 88.8361C492.203 91.9197 490.101 94.4534 487.43 96.4568C484.759 98.4601 481.596 99.9332 477.963 100.896C474.329 101.858 470.401 102.329 466.198 102.329C461.995 102.329 458.027 101.858 454.374 100.896C450.721 99.9332 447.539 98.4601 444.848 96.4568C442.157 94.4534 440.036 91.9197 438.504 88.8361C436.972 85.7524 436.206 82.0992 436.206 77.8764C436.206 75.0678 436.56 72.5144 437.267 70.2164C437.974 67.9184 438.975 65.8561 440.252 64.0492C441.529 62.2226 443.08 60.6513 444.907 59.3353C446.734 57.9998 448.737 56.8999 450.976 56.016C453.196 55.1322 455.592 54.484 458.165 54.0519C460.718 53.6198 463.409 53.4234 466.218 53.4234C470.421 53.4234 474.349 53.8948 477.982 54.8572C478.12 54.8965 478.257 54.9358 478.395 54.975C478.886 55.1125 479.416 54.975 479.77 54.6019L480.182 54.1894C480.948 53.4234 480.614 52.0878 479.573 51.8128H479.554C475.429 50.713 470.99 50.1826 466.237 50.1826C463.055 50.1826 460.011 50.4183 457.104 50.9094C454.197 51.3807 451.487 52.1271 448.973 53.1288C446.439 54.1305 444.161 55.3679 442.098 56.8802C440.036 58.3926 438.288 60.1603 436.835 62.2226C435.381 64.2849 434.262 66.6221 433.456 69.2147C432.651 71.827 432.258 74.7142 432.258 77.896C432.258 82.6884 433.122 86.8327 434.851 90.3091C436.579 93.7856 438.976 96.6728 442.039 98.9315C445.103 101.19 448.698 102.879 452.842 103.96C456.986 105.04 461.445 105.59 466.237 105.59C471.03 105.59 475.449 105.04 479.554 103.96C483.678 102.879 487.233 101.19 490.278 98.9315C493.302 96.6728 495.679 93.7856 497.427 90.3091C499.155 86.8327 500.02 82.6884 500.02 77.896C500.02 75.4409 499.784 73.1822 499.332 71.0806C498.998 69.529 497.093 68.9594 495.993 70.0789L495.974 70.0397Z" fill="white"/>
<path d="M490.396 61.4173C491.491 61.4173 492.379 60.5291 492.379 59.4335C492.379 58.3379 491.491 57.4498 490.396 57.4498C489.3 57.4498 488.412 58.3379 488.412 59.4335C488.412 60.5291 489.3 61.4173 490.396 61.4173Z" fill="white"/>
<path d="M139.235 120.733C138.646 120.733 138.076 121.028 137.723 121.499C123.09 141.533 99.5798 152.905 74.8518 151.923C36.5126 150.391 5.28349 119.162 3.81041 80.8028C3.02477 60.4744 10.3705 41.187 24.4727 26.5152C38.5946 11.8238 57.5481 3.75136 77.8568 3.75136C101.406 3.75136 123.777 15.1431 137.723 34.2341C138.076 34.7055 138.646 35.0001 139.235 35.0001C139.942 35.0001 140.59 34.6073 140.904 33.9788C141.219 33.3503 141.16 32.5843 140.747 32.0147C125.584 11.2738 101.249 -0.687502 75.6571 0.0392137C55.584 0.589161 36.709 8.83836 22.5086 23.2352C8.28855 37.6517 0.29468 56.6445 6.58892e-05 76.6979C-0.31419 97.6941 7.66004 117.492 22.4104 132.478C37.1804 147.464 56.8607 155.713 77.8372 155.713C102.565 155.713 126.075 143.752 140.728 123.718C141.16 123.149 141.219 122.383 140.885 121.754C140.57 121.126 139.922 120.733 139.215 120.733H139.235Z" fill="url(#paint0_radial_941_6962)"/>
</g>
<defs>
<radialGradient id="paint0_radial_941_6962" cx="0" cy="0" r="1" gradientUnits="userSpaceOnUse" gradientTransform="translate(152.218 39.2822) rotate(108.838) scale(88.1986 213.566)">
<stop offset="0.139194" stop-color="white" stop-opacity="0"/>
<stop offset="0.620501" stop-color="white" stop-opacity="0.536145"/>
<stop offset="1" stop-color="white"/>
</radialGradient>
<clipPath id="clip0_941_6962">
<rect width="500" height="155.733" fill="white"/>
</clipPath>
</defs>
</svg>
