<svg width="975" height="200" viewBox="0 0 975 200" fill="none" xmlns="http://www.w3.org/2000/svg">
<path d="M34.3479 115.916L49.7409 95.1367C50.7379 93.7917 52.8514 94.351 53.073 96.0156C57.7698 131.283 105.651 143.908 126.924 114.335L175.651 48.5589C176.395 47.5556 177.986 48.0795 177.986 49.3312V87.8347C177.986 89.4326 177.472 90.9907 176.519 92.2736L149.233 129.042C120.68 170.138 56.9988 165.832 33.8604 122.103C32.8147 120.124 33.0142 117.718 34.3479 115.916Z" fill="white"/>
<path d="M153.062 64.6394L137.58 85.5336C136.583 86.8786 134.474 86.3193 134.248 84.6591C129.511 49.5204 81.8876 36.8782 60.5393 66.2241L33.1472 103.138L12.3395 131.499C11.5996 132.511 10 131.983 10 130.731V91.9922C10 90.3941 10.514 88.8405 11.4622 87.5577L36.5236 53.7329C63.5789 10.2312 130.397 13.8978 153.567 58.4826C154.595 60.4579 154.387 62.8505 153.062 64.6394Z" fill="white"/>
<path d="M230.72 144.069V31.0713H251.846V126.151H308.612V144.069H269.666H230.72Z" fill="white"/>
<path d="M354.815 146.975C331.108 146.975 314.498 131.155 314.498 105.004C314.498 79.1763 331.27 62.7109 354.815 62.7109C378.521 62.7109 395.292 79.1763 395.292 105.004C395.292 131.155 378.521 146.975 354.815 146.975ZM354.815 131.478C367.071 131.478 375.295 121.792 375.295 105.004C375.295 87.8933 366.909 78.3692 354.815 78.3692C342.881 78.3692 334.495 87.8933 334.495 105.004C334.495 121.792 342.558 131.478 354.815 131.478Z" fill="white"/>
<path d="M446.629 146.975C422.923 146.975 406.312 131.155 406.312 105.004C406.312 79.1763 423.084 62.7109 446.629 62.7109C470.335 62.7109 487.107 79.1763 487.107 105.004C487.107 131.155 470.335 146.975 446.629 146.975ZM446.629 131.478C458.886 131.478 467.109 121.792 467.109 105.004C467.109 87.8933 458.724 78.3692 446.629 78.3692C434.696 78.3692 426.31 87.8933 426.31 105.004C426.31 121.792 434.373 131.478 446.629 131.478Z" fill="white"/>
<path d="M502.804 177V65.2937H522.479V68.8451C522.479 71.2664 522.317 73.365 521.834 76.5935C526.833 68.1994 535.219 62.7109 547.636 62.7109C568.44 62.7109 582.147 80.1449 582.147 105.166C582.147 130.671 566.827 146.975 546.83 146.975C533.606 146.975 526.833 141.325 521.834 133.254C522.317 136.482 522.479 138.581 522.479 140.841V177H502.804ZM541.992 131.478C554.087 131.478 562.15 120.662 562.15 104.843C562.15 89.3461 554.571 78.3692 541.992 78.3692C530.219 78.3692 521.672 88.539 521.672 104.843C521.672 120.662 530.058 131.478 541.992 131.478Z" fill="white"/>
<path d="M629.054 146.975C606.8 146.975 593.092 135.352 591.802 116.95H611.799C612.283 126.312 618.088 132.285 628.571 132.285C637.44 132.285 643.084 128.088 643.084 122.115C643.084 116.788 638.569 114.367 630.183 112.753L620.668 110.816C604.219 107.587 594.866 99.8388 594.866 86.7633C594.866 73.0421 607.767 62.7109 627.119 62.7109C648.245 62.7109 661.469 73.6878 661.953 90.1532H642.278C641.633 82.4048 635.989 77.4006 627.119 77.4006C619.862 77.4006 614.218 80.3063 614.218 85.9562C614.218 90.6375 617.282 93.0589 627.28 94.996L636.795 96.9331C652.277 100 662.437 107.103 662.437 120.985C662.437 135.998 649.374 146.975 629.054 146.975Z" fill="white"/>
<path d="M713.4 146.975C688.404 146.975 673.568 130.832 673.568 104.681C673.568 78.3692 691.468 62.7109 714.368 62.7109C737.268 62.7109 749.685 76.5935 751.621 94.996H731.624C730.979 86.1176 725.495 78.3692 714.368 78.3692C702.918 78.3692 693.565 87.7318 693.565 104.843C693.565 120.501 701.789 131.478 713.884 131.478C725.818 131.478 731.462 123.407 732.43 114.044H752.427C749.685 134.061 736.784 146.975 713.4 146.975Z" fill="white"/>
<path d="M789.809 146.975C776.102 146.975 762.716 137.935 762.716 122.438C762.716 104.681 776.424 98.5474 793.357 96.2874L804.646 94.8346C811.096 94.0275 813.354 91.6061 813.354 87.7319C813.354 82.2434 808.839 77.4006 800.453 77.4006C791.261 77.4006 785.455 82.5662 784.649 90.7989H764.329C765.619 74.3335 779.004 62.7109 799.324 62.7109C823.353 62.7109 833.029 75.6249 833.029 97.7402V144.069H814.806V140.841C814.806 138.258 815.128 135.836 815.612 133.254C811.419 141.002 803.356 146.975 789.809 146.975ZM795.131 132.447C805.613 132.447 813.999 124.698 813.999 113.56V105.004C812.225 106.618 809.484 107.426 804.646 108.394L798.195 109.686C789.003 111.461 782.714 114.528 782.714 121.631C782.714 128.572 788.197 132.447 795.131 132.447Z" fill="white"/>
<path d="M852.267 144.069V31.0713H871.942V144.069H852.267Z" fill="white"/>
<path d="M927.747 146.975C904.203 146.975 887.592 131.801 887.592 104.52C887.592 79.6606 904.203 62.7109 927.102 62.7109C951.131 62.7109 965 79.4992 965 105.166V109.524H907.75C907.912 121.954 915.814 131.478 927.747 131.478C936.295 131.478 943.229 126.635 944.519 118.403H964.516C962.904 134.545 949.035 146.975 927.747 146.975ZM944.842 95.3189C944.519 84.6648 937.585 77.4006 926.941 77.4006C916.298 77.4006 908.718 84.9876 907.589 95.3189H944.842Z" fill="white"/>
</svg>
