<svg width="142" height="32" viewBox="0 0 142 32" fill="none" xmlns="http://www.w3.org/2000/svg">
<g clip-path="url(#clip0_10704_13389)">
<path d="M133.95 25.7753C132.992 25.7753 132.129 25.609 131.361 25.2763C130.6 24.9374 129.996 24.4385 129.55 23.7798C129.11 23.121 128.891 22.3087 128.891 21.3429C128.891 20.5114 129.048 19.8239 129.363 19.2802C129.678 18.7366 130.108 18.3017 130.653 17.9754C131.197 17.6493 131.811 17.403 132.493 17.2367C133.182 17.0641 133.894 16.9393 134.629 16.8626C135.515 16.773 136.234 16.6931 136.785 16.6227C137.336 16.5459 137.737 16.4309 137.986 16.2774C138.241 16.1174 138.37 15.8713 138.37 15.5386V15.481C138.37 14.7583 138.15 14.1987 137.711 13.8021C137.27 13.4055 136.637 13.2073 135.811 13.2073C134.938 13.2073 134.245 13.3927 133.734 13.7638C133.228 14.1347 132.887 14.5729 132.71 15.0781L129.383 14.6177C129.645 13.7222 130.078 12.9738 130.682 12.3726C131.286 11.765 132.024 11.3109 132.897 11.0103C133.77 10.7033 134.734 10.5498 135.791 10.5498C136.519 10.5498 137.244 10.633 137.966 10.7992C138.689 10.9655 139.348 11.2406 139.945 11.6243C140.542 12.0017 141.021 12.5165 141.382 13.1689C141.749 13.8213 141.934 14.6367 141.934 15.6154V25.4778H138.508V23.4535H138.389C138.173 23.8629 137.868 24.2466 137.474 24.6049C137.087 24.9566 136.598 25.2413 136.007 25.4587C135.423 25.6698 134.738 25.7753 133.95 25.7753ZM134.875 23.2233C135.591 23.2233 136.211 23.0858 136.736 22.8107C137.261 22.5294 137.664 22.1583 137.946 21.6979C138.236 21.2374 138.38 20.7353 138.38 20.1917V18.4551C138.269 18.5447 138.077 18.6278 137.809 18.7046C137.546 18.7814 137.251 18.8485 136.923 18.9061C136.595 18.9637 136.27 19.0147 135.948 19.0595C135.627 19.1043 135.348 19.1427 135.112 19.1747C134.58 19.245 134.104 19.3602 133.684 19.5201C133.264 19.6799 132.933 19.9038 132.69 20.1917C132.447 20.473 132.326 20.8377 132.326 21.2854C132.326 21.925 132.566 22.4078 133.045 22.7341C133.524 23.0602 134.134 23.2233 134.875 23.2233Z" fill="#F9F9FB"/>
<path d="M119.662 25.4775V10.7413H123.117V13.1974H123.275C123.55 12.3467 124.023 11.6911 124.692 11.2306C125.368 10.7637 126.139 10.5303 127.005 10.5303C127.202 10.5303 127.422 10.5399 127.665 10.559C127.914 10.5718 128.121 10.5942 128.285 10.6262V13.821C128.134 13.7698 127.894 13.725 127.566 13.6866C127.245 13.6419 126.933 13.6195 126.631 13.6195C125.982 13.6195 125.398 13.757 124.879 14.0321C124.367 14.3006 123.964 14.6749 123.668 15.1545C123.373 15.6342 123.225 16.1874 123.225 16.8142V25.4775H119.662Z" fill="#F9F9FB"/>
<path d="M110.175 25.7657C108.698 25.7657 107.418 25.4491 106.335 24.8159C105.253 24.1827 104.413 23.2969 103.816 22.1583C103.225 21.0199 102.93 19.6895 102.93 18.1674C102.93 16.6451 103.225 15.3115 103.816 14.1667C104.413 13.0218 105.253 12.1328 106.335 11.4996C107.418 10.8664 108.698 10.5498 110.175 10.5498C111.651 10.5498 112.931 10.8664 114.013 11.4996C115.096 12.1328 115.933 13.0218 116.524 14.1667C117.121 15.3115 117.419 16.6451 117.419 18.1674C117.419 19.6895 117.121 21.0199 116.524 22.1583C115.933 23.2969 115.096 24.1827 114.013 24.8159C112.931 25.4491 111.651 25.7657 110.175 25.7657ZM110.194 22.9834C110.995 22.9834 111.664 22.7691 112.202 22.3407C112.74 21.9058 113.141 21.3237 113.403 20.5946C113.672 19.8654 113.807 19.0531 113.807 18.1578C113.807 17.2559 113.672 16.4405 113.403 15.7113C113.141 14.9758 112.74 14.3906 112.202 13.9557C111.664 13.5207 110.995 13.3032 110.194 13.3032C109.374 13.3032 108.691 13.5207 108.147 13.9557C107.609 14.3906 107.205 14.9758 106.936 15.7113C106.674 16.4405 106.542 17.2559 106.542 18.1578C106.542 19.0531 106.674 19.8654 106.936 20.5946C107.205 21.3237 107.609 21.9058 108.147 22.3407C108.691 22.7691 109.374 22.9834 110.194 22.9834Z" fill="#F9F9FB"/>
<path d="M94.6245 25.7657C93.1086 25.7657 91.7994 25.4587 90.6969 24.8447C89.601 24.2243 88.7578 23.3481 88.1672 22.2159C87.5766 21.0775 87.2812 19.7375 87.2812 18.1961C87.2812 16.6803 87.5766 15.3499 88.1672 14.2051C88.7643 13.0538 89.5977 12.1584 90.6674 11.5188C91.737 10.8728 92.9937 10.5498 94.4375 10.5498C95.3692 10.5498 96.2486 10.6969 97.0754 10.9911C97.9088 11.2789 98.6438 11.7266 99.2804 12.3343C99.9235 12.9419 100.429 13.7158 100.796 14.6559C101.164 15.5898 101.347 16.7027 101.347 17.9946V19.0595H88.9546V16.7186H97.9318C97.9252 16.0535 97.7776 15.4619 97.4888 14.9438C97.2002 14.4194 96.7966 14.0067 96.2781 13.7062C95.7662 13.4055 95.1691 13.2553 94.4866 13.2553C93.7583 13.2553 93.1184 13.4279 92.5671 13.7734C92.0159 14.1123 91.5861 14.5601 91.2776 15.1165C90.9759 15.6666 90.8217 16.271 90.8151 16.9297V18.9733C90.8151 19.8303 90.9758 20.5658 91.2973 21.1798C91.619 21.7874 92.0685 22.2543 92.6459 22.5805C93.2234 22.9003 93.8993 23.0602 94.6737 23.0602C95.1921 23.0602 95.6613 22.9898 96.0813 22.8491C96.5013 22.7021 96.8654 22.4878 97.1739 22.2063C97.4823 21.925 97.7152 21.5763 97.8728 21.1606L101.2 21.5251C100.99 22.3822 100.59 23.1306 99.999 23.7702C99.4149 24.4034 98.6668 24.8958 97.7546 25.2477C96.8424 25.593 95.7991 25.7657 94.6245 25.7657Z" fill="#F9F9FB"/>
<path d="M85.8948 10.7415V13.4277H77.2031V10.7415H85.8948ZM79.349 7.21094H82.9123V21.0453C82.9123 21.5121 82.9845 21.8704 83.1288 22.1199C83.2797 22.3628 83.4766 22.5292 83.7194 22.6187C83.9622 22.7083 84.2313 22.7531 84.5265 22.7531C84.7496 22.7531 84.9531 22.7371 85.1369 22.7051C85.3272 22.6731 85.4715 22.6443 85.57 22.6187L86.1705 25.3337C85.9802 25.3977 85.7078 25.468 85.3535 25.5448C85.0056 25.6216 84.5791 25.6664 84.0738 25.6791C83.1814 25.7047 82.3774 25.5736 81.6622 25.2857C80.9468 24.9916 80.3792 24.5375 79.9593 23.9235C79.5458 23.3095 79.3424 22.542 79.349 21.6209V7.21094Z" fill="#F9F9FB"/>
<path d="M69.39 25.7657C67.8742 25.7657 66.565 25.4587 65.4625 24.8447C64.3666 24.2243 63.5234 23.3481 62.9328 22.2159C62.3421 21.0775 62.0469 19.7375 62.0469 18.1961C62.0469 16.6803 62.3421 15.3499 62.9328 14.2051C63.5299 13.0538 64.3633 12.1584 65.433 11.5188C66.5026 10.8728 67.7593 10.5498 69.203 10.5498C70.1349 10.5498 71.0142 10.6969 71.841 10.9911C72.6744 11.2789 73.4095 11.7266 74.046 12.3343C74.6891 12.9419 75.1943 13.7158 75.5619 14.6559C75.9294 15.5898 76.1131 16.7027 76.1131 17.9946V19.0595H63.7202V16.7186H72.6974C72.6909 16.0535 72.5432 15.4619 72.2545 14.9438C71.9657 14.4194 71.5621 14.0067 71.0438 13.7062C70.5319 13.4055 69.9347 13.2553 69.2522 13.2553C68.5239 13.2553 67.8841 13.4279 67.3328 13.7734C66.7816 14.1123 66.3517 14.5601 66.0433 15.1165C65.7415 15.6666 65.5872 16.271 65.5806 16.9297V18.9733C65.5806 19.8303 65.7415 20.5658 66.063 21.1798C66.3846 21.7874 66.834 22.2543 67.4115 22.5805C67.989 22.9003 68.6649 23.0602 69.4392 23.0602C69.9577 23.0602 70.4269 22.9898 70.8469 22.8491C71.2669 22.7021 71.6311 22.4878 71.9395 22.2063C72.2479 21.925 72.4809 21.5763 72.6383 21.1606L75.9655 21.5251C75.7555 22.3822 75.3552 23.1306 74.7645 23.7702C74.1805 24.4034 73.4325 24.8958 72.5203 25.2477C71.6081 25.593 70.5647 25.7657 69.39 25.7657Z" fill="#F9F9FB"/>
<path d="M38.5156 5.8291H42.9845L48.9693 20.0663H49.2056L55.1904 5.8291H59.6594V25.4774H56.1551V11.9788H55.9681L50.3967 25.4198H47.7783L42.2069 11.95H42.0199V25.4774H38.5156V5.8291Z" fill="#F9F9FB"/>
<path d="M25.108 7.32857C25.663 6.78764 26.5228 6.8195 26.8784 7.39225C27.2628 8.00741 27.5531 8.67207 27.7598 9.36855C27.8758 9.76453 27.7416 10.2278 27.4043 10.5566L16.5326 21.1526C15.876 21.7926 15.0597 22.2345 14.1928 22.4147L13.2896 22.6022C12.4262 22.7859 11.6028 23.2281 10.9499 23.8643L2.60288 31.9997C2.24739 30.6633 2.09149 29.7617 3.20512 28.6762L25.108 7.32857ZM27.4627 11.8937C27.8255 11.5402 28.384 11.7452 28.3478 12.2119C28.1229 15.0686 26.7263 18.0774 24.2379 20.5027C22.3407 22.5287 16.9863 25.6258 13.1593 27.7013C12.3758 28.1255 11.7373 27.2203 12.3794 26.5946L27.459 11.8972L27.4627 11.8937ZM22.46 3.04407C22.8046 2.7082 23.3124 2.63755 23.6607 2.87089C24.3861 3.35172 25.0645 4.0482 25.4128 4.88964C25.5434 5.21492 25.431 5.61451 25.1444 5.89382L13.4348 17.3066C12.7782 17.9465 11.962 18.3885 11.095 18.5689L10.1918 18.7562C9.32841 18.9401 8.50492 19.3819 7.85197 20.0183L0.629541 27.0577C0.274061 25.7213 0.444566 24.5015 1.55816 23.4161L5.77335 19.3078L22.46 3.04407ZM17.4974 1.01504C18.1503 0.378675 19.0862 0.131165 19.8553 0.413995C20.3376 0.594308 20.8021 0.813582 21.2411 1.07168C21.8214 1.41111 21.8503 2.23836 21.3062 2.76868L10.5978 13.2057C9.98472 13.8031 9.15045 14.1213 8.35242 14.0647C7.51447 14.0047 6.63296 14.3406 5.98364 14.9735L0.117872 20.6905C-0.237609 19.3539 0.223027 17.8514 1.33666 16.7659L3.23759 14.9134L17.4974 1.01504ZM15.7819 6.21939e-05C16.2971 -0.00700893 16.4965 0.590487 16.1049 0.972328L5.90054 10.9179L4.72157 12.0669L4.71796 12.0704L2.92605 13.817L2.91509 13.8277C2.53783 14.1953 1.97919 13.863 2.18954 13.3963L3.94537 9.50709C4.04331 9.27023 4.15205 9.0298 4.27175 8.78587L4.28271 8.76114C5.29478 6.67161 6.92354 4.45483 8.45435 2.96283C10.9102 0.569263 13.1157 0.0248136 15.7819 6.21939e-05Z" fill="url(#paint0_linear_10704_13389)"/>
</g>
<defs>
<linearGradient id="paint0_linear_10704_13389" x1="33.6354" y1="0.0381421" x2="6.17295" y2="32.6177" gradientUnits="userSpaceOnUse">
<stop stop-color="#F5BD00"/>
<stop offset="0.364891" stop-color="#F54B00"/>
<stop offset="1" stop-color="#6E45FF"/>
</linearGradient>
<clipPath id="clip0_10704_13389">
<rect width="142" height="32" fill="white"/>
</clipPath>
</defs>
</svg>
