<svg width="13" height="16" viewBox="0 0 13 16" fill="none" xmlns="http://www.w3.org/2000/svg">
<g clip-path="url(#clip0_8869_12629)">
<path d="M12.927 4.1272C12.9261 3.95033 12.8825 3.77663 12.8002 3.62267C12.7169 3.47003 12.5972 3.34323 12.453 3.25501L7.77146 0.367357C7.37309 0.126616 6.92228 0 6.46357 0C6.00486 0 5.55408 0.126616 5.1557 0.367357L1.01404 2.91687C0.702241 3.11092 0.444321 3.38863 0.26631 3.72197C0.0905409 4.0539 -0.00114231 4.42833 0.000170026 4.80887V7.31277C-0.000279484 7.69487 0.0929021 8.07057 0.270609 8.40313C0.448316 8.7357 0.70447 9.01373 1.01404 9.21013L6.17969 12.3876C6.26695 12.4403 6.36566 12.4681 6.4661 12.4681C6.56655 12.4681 6.66529 12.4403 6.75255 12.3876L9.48997 10.7023C9.57599 10.6479 9.64749 10.5712 9.69781 10.4795C9.74794 10.3863 9.77416 10.2808 9.77388 10.1736V9.68517C9.77394 9.57793 9.74772 9.4725 9.69781 9.3792C9.64825 9.2869 9.57656 9.21007 9.48997 9.15647L8.22266 8.36747L7.09724 9.084L8.46344 9.92937L6.4661 11.1612L4.47133 9.92937L9.03373 7.1088L7.90834 6.39493L6.46357 7.2913L4.47133 6.06753L6.46357 4.83033L11.3302 7.8361C11.4674 7.92273 11.581 8.04577 11.6597 8.19303C11.7399 8.3409 11.7827 8.50823 11.7839 8.67877V11.1827C11.7823 11.3531 11.7395 11.5204 11.6597 11.6684C11.5803 11.816 11.4658 11.939 11.3276 12.0253L7.19864 14.5749C6.97396 14.7106 6.71973 14.7821 6.46103 14.7821C6.20236 14.7821 5.94813 14.7106 5.72346 14.5749L1.34608 11.8724L2.72241 11.0163L1.58434 10.3051L0.471618 11.0028C0.329991 11.089 0.21137 11.2118 0.126903 11.3598C0.0437504 11.5134 0 11.6873 0 11.8643C0 12.0413 0.0437504 12.2153 0.126903 12.3689C0.210002 12.5208 0.328738 12.6474 0.471618 12.7365L5.1557 15.6269C5.5529 15.8713 6.00416 16 6.46357 16C6.92301 16 7.37423 15.8713 7.77146 15.6269L11.9131 13.0773C12.223 12.8814 12.4795 12.6034 12.6572 12.2707C12.835 11.9381 12.9279 11.5622 12.927 11.18V8.67877C12.9279 8.29657 12.835 7.92067 12.6572 7.588C12.4795 7.25537 12.223 6.97737 11.9131 6.7814L10.7472 6.06217L12.4657 5.0021C12.61 4.91283 12.7297 4.78517 12.8129 4.63177C12.8952 4.47877 12.9388 4.30593 12.9397 4.1299M3.4372 5.30537C3.35102 5.35897 3.27952 5.43543 3.22974 5.5272C3.17996 5.61893 3.15362 5.72287 3.1533 5.82867V6.31173C3.15455 6.41793 3.18069 6.52213 3.22933 6.615C3.28063 6.70683 3.35299 6.78343 3.4397 6.83777L5.32299 7.9971L3.33073 9.22623L1.59701 8.15277C1.45847 8.0656 1.34362 7.9419 1.26366 7.79373C1.1837 7.6456 1.14137 7.47803 1.14077 7.3074V4.81157C1.14105 4.64123 1.18329 4.4739 1.2633 4.32613C1.34331 4.17833 1.45833 4.0552 1.59701 3.96887L5.72599 1.41937C5.94978 1.28225 6.20376 1.21005 6.4623 1.21005C6.72087 1.21005 6.97485 1.28225 7.19864 1.41937L11.5608 4.146L9.5939 5.3671L6.75001 3.60657C6.66275 3.55387 6.56405 3.52613 6.46357 3.52613C6.36312 3.52613 6.26441 3.55387 6.17716 3.60657L3.4372 5.30537Z" fill="white"/>
</g>
<defs>
<clipPath id="clip0_8869_12629">
<rect width="13" height="16" fill="white"/>
</clipPath>
</defs>
</svg>
