<svg width="485" height="247" viewBox="0 0 485 247" fill="none" xmlns="http://www.w3.org/2000/svg">
<path d="M476.098 4.13034C460.093 10.8749 447.568 20.8311 429.743 37.6389C415.076 32.072 403.675 28.9139 391.577 28.4856C383.869 28.218 381.888 32.982 384.779 38.8166C389.918 49.3081 399.767 53.2157 411.65 57.0697C415.558 58.3544 417.806 59.7461 415.022 65.2595C395.217 104.121 324.613 111.026 289.767 91.6489C278.526 85.3861 272.156 76.1257 272.798 68.4176C273.762 56.8555 282.059 32.7679 292.764 13.1766C297.796 3.91624 295.976 -1.43658 283.343 1.72158C264.234 6.53911 242.715 27.5222 222.161 48.7728C203.8 67.7218 184.263 71.6293 161.727 66.7583C130.092 59.9067 98.1894 41.1719 69.9801 30.4662C48.7294 22.3835 25.7658 27.5757 13.5614 31.965C14.4714 35.3372 15.0066 39.8337 15.0066 45.7217C15.1137 80.515 48.9435 105.513 69.0165 114.505C72.4423 116.058 74.6905 118.413 76.1893 121.625L49.2646 119.216C36.4179 142.019 27.0505 160.272 29.4057 179.649C30.5833 189.498 34.9191 193.673 41.7172 189.338C52.2622 182.593 67.1966 170.389 81.0604 158.398C81.4886 162.895 82.0774 167.766 82.8803 172.958C83.0945 174.189 83.3085 175.42 83.5227 176.598C82.2915 202.72 82.1844 223.275 92.9436 239.494C98.457 247.79 104.185 249.557 108.306 242.598C116.71 228.413 127.683 202.238 135.873 181.576C160.496 189.498 189.187 183.503 219.217 165.946C255.348 144.856 277.83 140.895 293.567 145.177C300.044 146.943 302.56 152.671 296.351 155.508C286.394 160.058 276.331 165.625 272.638 174.51C269.319 182.593 273.387 187.357 283.986 186.608C294.691 185.858 310.482 180.72 321.669 189.659C323.061 190.783 324.56 192.442 326.112 194.53C395.538 163.751 425.407 111.668 442.429 67.24C444.517 61.7802 444.838 58.5685 449.655 56.3738C469.889 44.9723 480.594 27.8969 483.806 11.7314C485.305 4.61214 482.147 1.56099 476.098 4.13034Z" fill="#13174D"/>
<path d="M109.269 89.9894C119.172 95.6633 120.029 101.712 112.642 107.975C105.469 114.023 94.3886 115.629 84.3788 109.795C77.4737 105.727 71.1574 99.4103 66.6075 93.094C62.1111 86.7777 63.824 83.0842 72.2814 80.9431C80.7924 78.7484 99.2596 84.2618 109.269 89.9894Z" fill="white"/>
<path d="M98.9386 132.973C100.683 132.973 102.097 131.559 102.097 129.814C102.097 128.07 100.683 126.656 98.9386 126.656C97.1944 126.656 95.7804 128.07 95.7804 129.814C95.7804 131.559 97.1944 132.973 98.9386 132.973Z" fill="white"/>
<path d="M68.9093 114.345C48.8363 105.352 15.0065 80.3544 14.8994 45.5611C14.8994 39.7266 14.3641 35.2302 13.4541 31.8044C9.43952 33.2497 6.54904 34.5879 5.26436 35.3373C0.232718 38.2813 -0.249061 42.403 0.821502 48.2376C10.1889 99.1428 40.5929 146.462 83.8437 178.472C83.4154 176.598 83.0943 174.671 82.7731 172.798C77.6344 139.664 82.452 120.447 68.9093 114.345Z" fill="white"/>
<path d="M321.723 189.552C310.535 180.613 294.744 185.805 284.039 186.501C273.44 187.25 269.372 182.486 272.691 174.403C276.384 165.518 286.448 159.951 296.404 155.401C302.613 152.564 300.097 146.836 293.62 145.07C277.83 140.788 255.401 144.749 219.27 165.839C189.241 183.396 160.549 189.391 135.927 181.469C133.197 188.321 130.199 195.761 127.094 203.202C157.766 216.262 192.238 222.258 228.798 218.618C267.98 214.657 299.99 206.092 326.326 194.423C324.667 192.335 323.168 190.676 321.723 189.552Z" fill="white"/>
</svg>
