<svg width="11" height="11" viewBox="0 0 11 11" fill="none" xmlns="http://www.w3.org/2000/svg">
<g opacity="0.5">
<path d="M4.8125 9.625C4.8125 9.625 4.125 9.625 4.125 8.9375C4.125 8.25 4.8125 6.1875 7.5625 6.1875C10.3125 6.1875 11 8.25 11 8.9375C11 9.625 10.3125 9.625 10.3125 9.625H4.8125Z" fill="white"/>
<path d="M7.5625 5.5C8.70159 5.5 9.625 4.57659 9.625 3.4375C9.625 2.29841 8.70159 1.375 7.5625 1.375C6.42341 1.375 5.5 2.29841 5.5 3.4375C5.5 4.57659 6.42341 5.5 7.5625 5.5Z" fill="white"/>
<path d="M3.4375 6.1875C3.94978 6.1875 4.39053 6.25896 4.76855 6.37988C3.90438 7.04717 3.4375 8.00559 3.4375 8.9375C3.4375 9.19828 3.49003 9.42964 3.58691 9.625H0.6875C0.6875 9.625 0 9.625 0 8.9375C0 8.25 0.6875 6.1875 3.4375 6.1875Z" fill="white"/>
<path d="M3.09375 5.5C4.04299 5.5 4.8125 4.73049 4.8125 3.78125C4.8125 2.83201 4.04299 2.0625 3.09375 2.0625C2.14451 2.0625 1.375 2.83201 1.375 3.78125C1.375 4.73049 2.14451 5.5 3.09375 5.5Z" fill="white"/>
</g>
</svg>
