<?xml version="1.0" encoding="UTF-8"?>
<!-- Generated by Pixelmator Pro 3.2.3 -->
<svg width="108" height="108" viewBox="0 0 108 108" xmlns="http://www.w3.org/2000/svg" xmlns:xlink="http://www.w3.org/1999/xlink">
    <path id="Path" fill="#fffdf8" fill-rule="evenodd" stroke="none" d="M 46.526699 69.922897 C 42.005402 76.850899 34.429199 85.618202 24.348 85.618202 C 19.582399 85.618202 15 83.656303 15 75.134201 C 15 53.4305 44.632599 19.832703 72.126801 19.832703 C 87.767998 19.832703 94 30.684601 94 43.007904 C 94 58.825802 83.735497 76.912201 73.532097 76.912201 C 70.2939 76.912201 68.705299 75.134201 68.705299 72.314003 C 68.705299 71.5783 68.827499 70.781197 69.071899 69.922897 C 65.589302 75.869904 58.8685 81.387802 52.575401 81.387802 C 47.993 81.387802 45.671299 78.506302 45.671299 74.459801 C 45.671299 72.988403 45.976799 71.455597 46.526699 69.922897 Z M 83.676102 42.579399 C 83.676102 46.170399 81.557503 47.965801 79.1875 47.965801 C 76.781601 47.965801 74.698898 46.170399 74.698898 42.579399 C 74.698898 38.988495 76.781601 37.1931 79.1875 37.1931 C 81.557503 37.1931 83.676102 38.988495 83.676102 42.579399 Z M 70.210297 42.579498 C 70.210297 46.170399 68.091599 47.965801 65.721603 47.965801 C 63.315701 47.965801 61.233002 46.170399 61.233002 42.579498 C 61.233002 38.988495 63.315701 37.1931 65.721603 37.1931 C 68.091599 37.1931 70.210297 38.988495 70.210297 42.579498 Z"/>
</svg>
