<?xml version="1.0" encoding="UTF-8"?>
<svg width="113" height="122" viewBox="0 0 113 122" xmlns="http://www.w3.org/2000/svg" xmlns:xlink="http://www.w3.org/1999/xlink">
    <g id="Group">
        <path id="Path" fill="#ffffff" stroke="none" d="M 53.113998 1.577003 C 53.113998 0.220001 54.643002 -0.879997 56.527 -0.879997 C 58.410999 -0.879997 59.939999 0.220001 59.939999 1.577003 L 59.939999 45.954002 C 59.939999 47.311005 58.411999 48.411003 56.527 48.411003 C 54.641998 48.411003 53.113998 47.311005 53.113998 45.954002 L 53.113998 1.577003 L 53.113998 1.577003 Z M 73.614998 18.780998 C 71.847 18.133003 70.940002 16.176003 71.588997 14.407997 C 72.236 12.640999 74.193001 11.734001 75.960999 12.382004 C 86.922997 16.397003 96.300003 23.721001 102.885002 33.148003 C 109.293999 42.321999 113.055 53.468002 113.055 65.472992 C 113.055 81.078995 106.725998 95.211006 96.496002 105.442001 C 86.265999 115.671005 72.134003 122.000999 56.527 122.000999 C 40.919998 122.000999 26.788 115.672005 16.558001 105.442001 C 6.329 95.211006 0 81.078995 0 65.472992 C 0 53.468002 3.76 42.321999 10.169 33.148003 C 16.754 23.721001 26.131001 16.397003 37.092999 12.382004 C 38.860001 11.735001 40.818001 12.641998 41.465 14.407997 C 42.112999 16.175003 41.206001 18.133003 39.438999 18.780998 C 29.780001 22.319 21.525999 28.759003 15.741 37.040001 C 10.122 45.084 6.825 54.886002 6.825 65.472992 C 6.825 79.195999 12.389 91.621002 21.384001 100.616005 C 30.379 109.611 42.804001 115.176003 56.527 115.176003 C 70.25 115.176003 82.675003 109.612 91.669998 100.616005 C 100.665001 91.622002 106.228996 79.195999 106.228996 65.472992 C 106.228996 54.886002 102.931999 45.084 97.313004 37.040001 C 91.527 28.758003 83.274002 22.318001 73.614998 18.780998 L 73.614998 18.780998 Z"/>
    </g>
</svg>
