<?xml version="1.0" encoding="UTF-8"?>
<!-- Generated by Pixelmator Pro 3.2.3 -->
<svg width="800" height="800" viewBox="0 0 800 800" xmlns="http://www.w3.org/2000/svg" xmlns:xlink="http://www.w3.org/1999/xlink">
    <g id="XMLID826">
        <path id="XMLID827" fill="#ffffff" stroke="none" d="M 781.865784 148.098083 C 769.298035 153.672241 756.37677 158.37677 743.174194 162.196106 C 758.805115 144.518738 770.722595 123.718689 777.997437 100.957397 C 779.628357 95.855469 777.938049 90.270996 773.744507 86.934204 C 769.556152 83.594849 763.736755 83.194824 759.125183 85.927734 C 731.086426 102.557434 700.836121 114.508362 669.117371 121.496765 C 637.166443 90.276123 593.770325 72.508362 548.908386 72.508362 C 454.211609 72.508362 377.169037 149.548401 377.169037 244.242554 C 377.169037 251.700623 377.641296 259.117432 378.57547 266.430969 C 261.065826 256.113586 151.819366 198.35614 76.800003 106.332886 C 74.126457 103.052917 70.007744 101.285156 65.79097 101.62323 C 61.571609 101.953552 57.780643 104.332886 55.649029 107.989685 C 40.433548 134.098083 32.389675 163.95874 32.389675 194.340637 C 32.389675 235.721313 47.163868 274.983215 73.261932 305.661926 C 65.326447 302.913544 57.625805 299.478699 50.276131 295.398712 C 46.330318 293.202576 41.514839 293.236115 37.594837 295.483856 C 33.67226 297.731628 31.212904 301.865814 31.109678 306.384521 C 31.091614 307.145813 31.091614 307.907104 31.091614 308.678711 C 31.091614 370.446472 64.335487 426.056763 115.161293 456.366425 C 110.794838 455.930328 106.430969 455.298035 102.095482 454.469666 C 97.625809 453.615479 93.029678 455.181915 90.015488 458.590942 C 86.996124 461.997437 85.997421 466.745789 87.388382 471.081299 C 106.201286 529.816772 154.637421 573.019348 213.192261 586.190979 C 164.62709 616.609009 109.089027 632.541931 50.787098 632.541931 C 38.621933 632.541931 26.387098 631.827087 14.412904 630.410278 C 8.464516 629.703247 2.776774 633.215454 0.750968 638.872253 C -1.274839 644.531616 0.872258 650.841309 5.932903 654.085144 C 80.830971 702.108337 167.43483 727.491638 256.37677 727.491638 C 431.22583 727.491638 540.606445 645.040039 601.574219 575.870972 C 677.600037 489.62323 721.202576 375.463226 721.202576 262.665771 C 721.202576 257.953552 721.13031 253.194824 720.985779 248.451599 C 750.980652 225.852905 776.805115 198.503235 797.819336 167.068359 C 801.011597 162.294189 800.665771 155.984497 796.967773 151.589661 C 793.274841 147.192261 787.119995 145.770325 781.865784 148.098083 Z"/>
    </g>
</svg>
