<svg width="647" height="147" viewBox="0 0 647 147" fill="none" xmlns="http://www.w3.org/2000/svg">
<g clip-path="url(#clip0_1570_9610)">
<g opacity="0.3" filter="url(#filter0_f_1570_9610)">
<rect x="0.730073" y="0.376415" width="94.0317" height="71.558" rx="7.5" transform="matrix(0.991445 -0.130526 0.468701 0.883357 518.83 73.5435)" fill="#060F18" stroke="#15202C"/>
<rect x="0.730073" y="0.376415" width="87.6107" height="6.70528" rx="3.35264" transform="matrix(0.991445 -0.130526 0.468701 0.883357 529.236 86.7378)" fill="#101925" stroke="#1E2C3C"/>
<rect x="0.730073" y="0.376415" width="31.7474" height="6.70528" rx="3.35264" transform="matrix(0.991445 -0.130526 0.468701 0.883357 524.119 77.0953)" fill="#101925" stroke="#1E2C3C"/>
<rect opacity="0.5" x="0.730073" y="0.376415" width="31.7474" height="6.70528" rx="3.35264" transform="matrix(0.991445 -0.130526 0.468701 0.883357 579.505 69.8033)" fill="#101925" stroke="#1E2C3C"/>
<rect x="0.730073" y="0.376415" width="87.6107" height="6.70528" rx="3.35264" transform="matrix(0.991445 -0.130526 0.468701 0.883357 534.653 96.9478)" fill="#101925" stroke="#1E2C3C"/>
<rect x="0.730073" y="0.376415" width="87.6107" height="6.70528" rx="3.35264" transform="matrix(0.991445 -0.130526 0.468701 0.883357 539.769 106.589)" fill="#101925" stroke="#1E2C3C"/>
<rect x="0.730073" y="0.376415" width="87.6107" height="6.70528" rx="3.35264" transform="matrix(0.991445 -0.130526 0.468701 0.883357 544.885 116.233)" fill="#101925" stroke="#1E2C3C"/>
<rect x="0.730073" y="0.376415" width="87.6107" height="6.70528" rx="3.35264" transform="matrix(0.991445 -0.130526 0.468701 0.883357 550.002 125.875)" fill="#101925" stroke="#1E2C3C"/>
</g>
<g opacity="0.3" filter="url(#filter1_f_1570_9610)">
<rect x="0.726365" y="0.378363" width="28.096" height="66.4395" rx="7.5" transform="matrix(0.991445 -0.130526 0.461284 0.887253 190.832 65.9353)" fill="#060F18" stroke="#15202C"/>
<rect x="0.726365" y="0.378363" width="18.9097" height="12.1132" rx="5.5" transform="matrix(0.991445 -0.130526 0.461284 0.887253 197.33 69.0769)" fill="#101925" stroke="#1E2C3C"/>
<rect x="0.726365" y="0.378363" width="18.9097" height="12.1132" rx="5.5" transform="matrix(0.991445 -0.130526 0.461284 0.887253 204.459 82.7898)" fill="#101925" stroke="#1E2C3C"/>
<rect x="0.726365" y="0.378363" width="18.9097" height="12.1132" rx="5.5" transform="matrix(0.991445 -0.130526 0.461284 0.887253 211.588 96.5017)" fill="#101925" stroke="#1E2C3C"/>
<rect x="0.726365" y="0.378363" width="18.9097" height="12.1132" rx="5.5" transform="matrix(0.991445 -0.130526 0.461284 0.887253 218.717 110.214)" fill="#101925" stroke="#1E2C3C"/>
</g>
<g opacity="0.6">
<rect x="0.726365" y="0.378363" width="191.739" height="114.163" rx="7.5" transform="matrix(0.991445 -0.130526 0.461284 0.887253 236.832 35.2947)" fill="#060F18" stroke="#15202C"/>
<rect x="0.726365" y="0.378363" width="22.9924" height="22.9924" rx="11.4962" transform="matrix(0.991445 -0.130526 0.461284 0.887253 248.136 39.1131)" fill="#101925" stroke="#1E2C3C"/>
<rect x="0.726365" y="0.378363" width="37.3878" height="6.19771" rx="3.09886" transform="matrix(0.991445 -0.130526 0.461284 0.887253 282.583 46.7088)" fill="#101925" stroke="#1E2C3C"/>
<rect x="0.726365" y="0.378363" width="16.5944" height="6.19771" rx="3.09886" transform="matrix(0.991445 -0.130526 0.461284 0.887253 278.525 38.9031)" fill="#101925" stroke="#1E2C3C"/>
<rect x="0.726365" y="0.378363" width="174.144" height="41.3865" rx="5.5" transform="matrix(0.991445 -0.130526 0.461284 0.887253 275.066 90.9129)" fill="#101925" stroke="#1E2C3C"/>
<rect x="0.726365" y="0.378363" width="40.5868" height="22.1926" rx="5.5" transform="matrix(0.991445 -0.130526 0.461284 0.887253 262.523 66.7869)" fill="#101925" stroke="#1E2C3C"/>
<rect x="0.726365" y="0.378363" width="128.559" height="22.1926" rx="5.5" transform="matrix(0.991445 -0.130526 0.461284 0.887253 307.719 60.8367)" fill="#101925" stroke="#1E2C3C"/>
</g>
<g opacity="0.3">
<rect x="0.730073" y="0.376415" width="130.721" height="20.2452" rx="7.5" transform="matrix(0.991445 -0.130526 0.468701 0.883357 31.9791 116.923)" fill="#060F18" stroke="#15202C"/>
<rect x="0.730073" y="0.376415" width="59.7007" height="12.3542" rx="5.5" transform="matrix(0.991445 -0.130526 0.468701 0.883357 37.5814 120.201)" fill="#101925" stroke="#1E2C3C"/>
<rect x="0.730073" y="0.376415" width="59.7007" height="12.3542" rx="5.5" transform="matrix(0.991445 -0.130526 0.468701 0.883357 100.772 111.882)" fill="#101925" stroke="#1E2C3C"/>
<rect x="0.730073" y="0.376415" width="130.721" height="64.5568" rx="7.5" transform="matrix(0.991445 -0.130526 0.468701 0.883357 -0.17018 56.3326)" fill="#060F18" stroke="#15202C"/>
<rect x="0.730073" y="0.376415" width="119.794" height="31.1714" rx="5.5" transform="matrix(0.991445 -0.130526 0.468701 0.883357 17.7646 79.2124)" fill="#101925" stroke="#1E2C3C"/>
<rect x="0.730073" y="0.376415" width="119.794" height="16.6032" rx="5.5" transform="matrix(0.991445 -0.130526 0.468701 0.883357 8.09165 60.981)" fill="#101925" stroke="#1E2C3C"/>
</g>
<g opacity="0.3" filter="url(#filter2_f_1570_9610)">
<rect x="-0.730073" y="-0.376415" width="71.0498" height="34.8589" rx="7.5" transform="matrix(-0.991445 0.130526 -0.468701 -0.883357 544.61 54.0622)" fill="#060F18" stroke="#15202C"/>
<rect x="-0.730073" y="-0.376415" width="65.0733" height="16.5974" rx="5.5" transform="matrix(-0.991445 0.130526 -0.468701 -0.883357 534.8 41.5475)" fill="#101925" stroke="#1E2C3C"/>
<rect x="-0.730073" y="-0.376415" width="65.0733" height="8.62878" rx="4.31439" transform="matrix(-0.991445 0.130526 -0.468701 -0.883357 540.091 51.5192)" fill="#101925" stroke="#1E2C3C"/>
</g>
</g>
<defs>
<filter id="filter0_f_1570_9610" x="517.906" y="57.9668" width="130.415" height="82.5654" filterUnits="userSpaceOnUse" color-interpolation-filters="sRGB">
<feFlood flood-opacity="0" result="BackgroundImageFix"/>
<feBlend mode="normal" in="SourceGraphic" in2="BackgroundImageFix" result="shape"/>
<feGaussianBlur stdDeviation="2" result="effect1_foregroundBlur_1570_9610"/>
</filter>
<filter id="filter1_f_1570_9610" x="191.872" y="60.9668" width="58.2124" height="65.7002" filterUnits="userSpaceOnUse" color-interpolation-filters="sRGB">
<feFlood flood-opacity="0" result="BackgroundImageFix"/>
<feBlend mode="normal" in="SourceGraphic" in2="BackgroundImageFix" result="shape"/>
<feGaussianBlur stdDeviation="1" result="effect1_foregroundBlur_1570_9610"/>
</filter>
<filter id="filter2_f_1570_9610" x="456.906" y="19.9658" width="90.4287" height="47.1475" filterUnits="userSpaceOnUse" color-interpolation-filters="sRGB">
<feFlood flood-opacity="0" result="BackgroundImageFix"/>
<feBlend mode="normal" in="SourceGraphic" in2="BackgroundImageFix" result="shape"/>
<feGaussianBlur stdDeviation="2" result="effect1_foregroundBlur_1570_9610"/>
</filter>
<clipPath id="clip0_1570_9610">
<rect width="647" height="147" fill="white"/>
</clipPath>
</defs>
</svg>
