<svg width="20" height="16" viewBox="0 0 20 16" fill="none" xmlns="http://www.w3.org/2000/svg">
<g clip-path="url(#clip0_7063_11200)">
<path d="M4.17817 14.4566C4.16481 13.6638 4.15729 12.9133 4.32396 12.1345C4.81937 9.81825 6.64857 7.82301 8.93767 7.15973C8.24217 6.62064 7.68827 5.95029 7.45602 5.08724C6.66068 2.13717 9.63568 -0.424165 12.4595 0.823482C14.4958 1.72308 15.2423 4.26406 14.0063 6.12016C13.7277 6.5384 13.3676 6.83951 12.9875 7.15973C14.2857 7.53727 15.4366 8.34259 16.2791 9.38506C16.2891 9.42992 16.3083 9.45276 16.2607 9.48516C16.173 9.54496 15.8906 9.61183 15.7561 9.68161C14.2933 10.44 13.5372 12.0656 13.9269 13.6692C13.9937 13.9437 14.1303 14.1854 14.1984 14.4566H4.17817Z" fill="white" fill-opacity="0.2"/>
<path d="M0.00396983 14.4561C-0.0106504 13.8023 0.0102356 13.1482 0.149754 12.5073C0.539904 10.7127 1.88246 9.27733 3.59385 8.6315C0.93089 6.49255 3.38416 2.38579 6.55173 3.6841C6.46944 4.86613 6.79442 5.92854 7.47489 6.88629C5.52372 7.9624 4.02912 9.7616 3.56587 11.9612C3.39126 12.7906 3.36285 13.6109 3.38583 14.4565H0.00396983V14.4561Z" fill="white" fill-opacity="0.2"/>
<path d="M17.1875 9.90625C15.634 9.90625 14.375 11.1585 14.375 12.7027C14.375 14.2468 15.6344 15.4991 17.1875 15.4991C18.7406 15.4991 20 14.2468 20 12.7027C20 11.1585 18.7406 9.90625 17.1875 9.90625ZM18.7364 12.9348H17.4206V14.2431C17.4206 14.371 17.3162 14.4749 17.1875 14.4749C17.0588 14.4749 16.9544 14.371 16.9544 14.2431V12.9348H15.6386C15.5099 12.9348 15.4055 12.831 15.4055 12.7031C15.4055 12.5751 15.5099 12.4713 15.6386 12.4713H16.9544V11.163C16.9544 11.0351 17.0588 10.9313 17.1875 10.9313C17.3162 10.9313 17.4206 11.0351 17.4206 11.163V12.4713H18.7364C18.8651 12.4713 18.9695 12.5751 18.9695 12.7031C18.9695 12.831 18.8651 12.9348 18.7364 12.9348Z" fill="white" fill-opacity="0.2"/>
</g>
<defs>
<clipPath id="clip0_7063_11200">
<rect width="20" height="15" fill="white" transform="translate(0 0.5)"/>
</clipPath>
</defs>
</svg>
