<svg width="20" height="21" viewBox="0 0 20 21" fill="none" xmlns="http://www.w3.org/2000/svg">
<g opacity="0.5">
<path d="M6.875 12.3888C6.97037 13.5807 7.91137 14.5098 9.60262 14.6198V15.5H10.3529V14.6137C12.1013 14.4914 13.125 13.5562 13.125 12.1993C13.125 10.9645 12.343 10.3289 10.9442 9.99878L10.3529 9.85819V7.4621C11.1031 7.54768 11.58 7.95721 11.6944 8.52567H13.0106C12.9152 7.37653 11.9297 6.478 10.3529 6.3802V5.5H9.60262V6.39853C8.10847 6.54523 7.09117 7.44377 7.09117 8.71516C7.09117 9.83985 7.84779 10.555 9.10669 10.8484L9.60262 10.9707V13.5134C8.83329 13.3973 8.32464 12.9756 8.2102 12.3888H6.875ZM9.59626 9.68093C8.85872 9.50978 8.45816 9.16137 8.45816 8.6357C8.45816 8.0489 8.89051 7.6088 9.60262 7.48044V9.68093H9.59626ZM10.461 11.1724C11.3575 11.3802 11.7707 11.7164 11.7707 12.3093C11.7707 12.9878 11.2557 13.4523 10.3529 13.5379V11.1479L10.461 11.1724Z" fill="white"/>
<path d="M10 19.25C5.16751 19.25 1.25 15.3325 1.25 10.5C1.25 5.66751 5.16751 1.75 10 1.75C14.8325 1.75 18.75 5.66751 18.75 10.5C18.75 15.3325 14.8325 19.25 10 19.25ZM10 20.5C15.5228 20.5 20 16.0228 20 10.5C20 4.97715 15.5228 0.5 10 0.5C4.47715 0.5 0 4.97715 0 10.5C0 16.0228 4.47715 20.5 10 20.5Z" fill="white"/>
<path d="M10 17.375C6.20304 17.375 3.125 14.297 3.125 10.5C3.125 6.70304 6.20304 3.625 10 3.625C13.797 3.625 16.875 6.70304 16.875 10.5C16.875 14.297 13.797 17.375 10 17.375ZM10 18C14.1421 18 17.5 14.6421 17.5 10.5C17.5 6.35786 14.1421 3 10 3C5.85786 3 2.5 6.35786 2.5 10.5C2.5 14.6421 5.85786 18 10 18Z" fill="white"/>
</g>
</svg>
