<svg width="9" height="8" viewBox="0 0 9 8" fill="none" xmlns="http://www.w3.org/2000/svg">
<g clip-path="url(#clip0_3594_1551)">
<path d="M4.49999 5.72291C4.28111 5.72331 4.06431 5.68046 3.86204 5.59683C3.65977 5.5132 3.47601 5.39043 3.32133 5.23557L0.59766 2.51157C0.536941 2.44871 0.503342 2.3645 0.504102 2.27711C0.504861 2.18971 0.539918 2.1061 0.60172 2.0443C0.663523 1.9825 0.747127 1.94744 0.834526 1.94668C0.921925 1.94592 1.00613 1.97952 1.06899 2.04024L3.79266 4.76424C3.98043 4.95151 4.2348 5.05667 4.49999 5.05667C4.76519 5.05667 5.01956 4.95151 5.20733 4.76424L7.93099 2.04024C7.96174 2.0084 7.99852 1.98301 8.03919 1.96554C8.07986 1.94807 8.1236 1.93887 8.16786 1.93849C8.21212 1.9381 8.25601 1.94654 8.29698 1.9633C8.33794 1.98006 8.37516 2.00481 8.40646 2.03611C8.43776 2.06741 8.46251 2.10462 8.47927 2.14559C8.49603 2.18655 8.50446 2.23045 8.50408 2.27471C8.50369 2.31897 8.4945 2.36271 8.47703 2.40337C8.45956 2.44404 8.43416 2.48082 8.40233 2.51157L5.67866 5.23557C5.52397 5.39043 5.34022 5.5132 5.13795 5.59683C4.93567 5.68046 4.71887 5.72331 4.49999 5.72291Z" fill="#EFEFEF"/>
</g>
<defs>
<clipPath id="clip0_3594_1551">
<rect width="8" height="8" fill="white" transform="translate(0.5)"/>
</clipPath>
</defs>
</svg>
