<svg width="20" height="21" viewBox="0 0 20 21" fill="none" xmlns="http://www.w3.org/2000/svg">
<g opacity="0.5">
<path fill-rule="evenodd" clip-rule="evenodd" d="M13.75 19.25C16.5114 19.25 18.75 17.0114 18.75 14.25C18.75 11.4886 16.5114 9.25 13.75 9.25C10.9886 9.25 8.75 11.4886 8.75 14.25C8.75 17.0114 10.9886 19.25 13.75 19.25ZM20 14.25C20 17.7018 17.2018 20.5 13.75 20.5C10.2982 20.5 7.5 17.7018 7.5 14.25C7.5 10.7982 10.2982 8 13.75 8C17.2018 8 20 10.7982 20 14.25Z" fill="white"/>
<path d="M11.7969 15.4305C11.8565 16.1754 12.4446 16.7561 13.5016 16.8249V17.375H13.9705V16.8211C15.0633 16.7447 15.7031 16.1601 15.7031 15.312C15.7031 14.5403 15.2143 14.143 14.3401 13.9367L13.9705 13.8489V12.3513C14.4395 12.4048 14.7375 12.6608 14.809 13.016H15.6316C15.572 12.2978 14.9561 11.7362 13.9705 11.6751V11.125H13.5016V11.6866C12.5678 11.7783 11.932 12.3399 11.932 13.1345C11.932 13.8374 12.4049 14.2844 13.1917 14.4678L13.5016 14.5442V16.1334C13.0208 16.0608 12.7029 15.7972 12.6314 15.4305H11.7969ZM13.4977 13.7381C13.0367 13.6311 12.7864 13.4134 12.7864 13.0848C12.7864 12.7181 13.0566 12.443 13.5016 12.3628V13.7381H13.4977ZM14.0381 14.6702C14.5984 14.8001 14.8567 15.0102 14.8567 15.3808C14.8567 15.8049 14.5348 16.0952 13.9705 16.1487V14.655L14.0381 14.6702Z" fill="white"/>
<path d="M1.25 0.5C0.559644 0.5 0 1.05964 0 1.75V11.75C0 12.4404 0.559644 13 1.25 13H6.3537C6.42587 12.5698 6.53466 12.152 6.67676 11.75H3.75C3.75 10.3693 2.63071 9.25 1.25 9.25V4.25C2.63071 4.25 3.75 3.13071 3.75 1.75H16.25C16.25 3.13071 17.3693 4.25 18.75 4.25V8.65973C19.2251 9.08499 19.6457 9.56992 20 10.1028V1.75C20 1.05964 19.4404 0.5 18.75 0.5H1.25Z" fill="white"/>
<path d="M12.4979 6.85406C12.4993 6.81955 12.5 6.78486 12.5 6.75C12.5 5.36929 11.3807 4.25 10 4.25C8.61929 4.25 7.5 5.36929 7.5 6.75C7.5 7.60563 7.92984 8.36087 8.58537 8.81155C9.64357 7.8063 10.9949 7.10666 12.4979 6.85406Z" fill="white"/>
</g>
</svg>
