<svg width="14" height="14" viewBox="0 0 14 14" fill="none" xmlns="http://www.w3.org/2000/svg">
<path d="M0.875 2.47387C1.64936 2.15032 2.75966 1.80176 3.83922 1.69287C5.00324 1.57546 5.9906 1.74807 6.5625 2.35062V10.8782C5.74447 10.4145 4.70807 10.3508 3.75141 10.4473C2.71856 10.5515 1.67799 10.8507 0.875 11.1569V2.47387ZM7.4375 2.35062C8.0094 1.74807 8.99676 1.57546 10.1608 1.69287C11.2403 1.80176 12.3506 2.15032 13.125 2.47387V11.1569C12.322 10.8507 11.2814 10.5515 10.2486 10.4473C9.29193 10.3508 8.25553 10.4145 7.4375 10.8782V2.35062ZM7 1.55993C6.1382 0.819156 4.88848 0.707601 3.75141 0.822291C2.42657 0.95592 1.08901 1.41055 0.256461 1.78898C0.100276 1.85998 0 2.01571 0 2.18727V11.8123C0 11.961 0.0755791 12.0996 0.200644 12.1801C0.325708 12.2606 0.483122 12.2721 0.618539 12.2106C1.39015 11.8598 2.63385 11.4395 3.83922 11.3179C5.0712 11.1936 6.10528 11.3942 6.65837 12.0856C6.7414 12.1894 6.86709 12.2498 7 12.2498C7.13291 12.2498 7.2586 12.1894 7.34163 12.0856C7.89472 11.3942 8.9288 11.1936 10.1608 11.3179C11.3661 11.4395 12.6098 11.8598 13.3815 12.2106C13.5169 12.2721 13.6743 12.2606 13.7994 12.1801C13.9244 12.0996 14 11.961 14 11.8123V2.18727C14 2.01571 13.8997 1.85998 13.7435 1.78898C12.911 1.41055 11.5734 0.95592 10.2486 0.822291C9.11152 0.707601 7.8618 0.819156 7 1.55993Z" fill="white"/>
</svg>
