<svg width="16" height="16" viewBox="0 0 16 16" fill="none" xmlns="http://www.w3.org/2000/svg">
<path d="M14 0H2C0.89543 0 0 0.89543 0 2V14C0 15.1046 0.89543 16 2 16H14C15.1046 16 16 15.1046 16 14V2C16 0.89543 15.1046 0 14 0ZM1 3.85714C1 3.38376 1.44772 3 2 3H14C14.5523 3 15 3.38376 15 3.85714V14.1429C15 14.6162 14.5523 15 14 15H2C1.44772 15 1 14.6162 1 14.1429V3.85714Z" fill="white"/>
<path d="M6.5 7C7.05228 7 7.5 6.55228 7.5 6C7.5 5.44772 7.05228 5 6.5 5C5.94772 5 5.5 5.44772 5.5 6C5.5 6.55228 5.94772 7 6.5 7Z" fill="white"/>
<path d="M9.5 7C10.0523 7 10.5 6.55228 10.5 6C10.5 5.44772 10.0523 5 9.5 5C8.94772 5 8.5 5.44772 8.5 6C8.5 6.55228 8.94772 7 9.5 7Z" fill="white"/>
<path d="M12.5 7C13.0523 7 13.5 6.55228 13.5 6C13.5 5.44772 13.0523 5 12.5 5C11.9477 5 11.5 5.44772 11.5 6C11.5 6.55228 11.9477 7 12.5 7Z" fill="white"/>
<path d="M3.5 10C4.05228 10 4.5 9.55228 4.5 9C4.5 8.44772 4.05228 8 3.5 8C2.94772 8 2.5 8.44772 2.5 9C2.5 9.55228 2.94772 10 3.5 10Z" fill="white"/>
<path d="M6.5 10C7.05228 10 7.5 9.55228 7.5 9C7.5 8.44772 7.05228 8 6.5 8C5.94772 8 5.5 8.44772 5.5 9C5.5 9.55228 5.94772 10 6.5 10Z" fill="white"/>
<path d="M9.5 10C10.0523 10 10.5 9.55228 10.5 9C10.5 8.44772 10.0523 8 9.5 8C8.94772 8 8.5 8.44772 8.5 9C8.5 9.55228 8.94772 10 9.5 10Z" fill="white"/>
<path d="M12.5 10C13.0523 10 13.5 9.55228 13.5 9C13.5 8.44772 13.0523 8 12.5 8C11.9477 8 11.5 8.44772 11.5 9C11.5 9.55228 11.9477 10 12.5 10Z" fill="white"/>
<path d="M3.5 13C4.05228 13 4.5 12.5523 4.5 12C4.5 11.4477 4.05228 11 3.5 11C2.94772 11 2.5 11.4477 2.5 12C2.5 12.5523 2.94772 13 3.5 13Z" fill="white"/>
<path d="M6.5 13C7.05228 13 7.5 12.5523 7.5 12C7.5 11.4477 7.05228 11 6.5 11C5.94772 11 5.5 11.4477 5.5 12C5.5 12.5523 5.94772 13 6.5 13Z" fill="white"/>
<path d="M9.5 13C10.0523 13 10.5 12.5523 10.5 12C10.5 11.4477 10.0523 11 9.5 11C8.94772 11 8.5 11.4477 8.5 12C8.5 12.5523 8.94772 13 9.5 13Z" fill="white"/>
</svg>
