<svg width="11" height="11" viewBox="0 0 11 11" fill="none" xmlns="http://www.w3.org/2000/svg">
<path d="M0 7.5C0 7.08579 0.335786 6.75 0.75 6.75H2.25C2.66421 6.75 3 7.08579 3 7.5V9.75C3 10.1642 2.66421 10.5 2.25 10.5H0.75C0.335786 10.5 0 10.1642 0 9.75V7.5Z" fill="white"/>
<path d="M3.75 4.5C3.75 4.08579 4.08579 3.75 4.5 3.75H6C6.41421 3.75 6.75 4.08579 6.75 4.5V9.75C6.75 10.1642 6.41421 10.5 6 10.5H4.5C4.08579 10.5 3.75 10.1642 3.75 9.75V4.5Z" fill="white"/>
<path d="M7.5 0.75C7.5 0.335787 7.83579 0 8.25 0H9.75C10.1642 0 10.5 0.335786 10.5 0.75V9.75C10.5 10.1642 10.1642 10.5 9.75 10.5H8.25C7.83579 10.5 7.5 10.1642 7.5 9.75V0.75Z" fill="white"/>
</svg>
