<svg width="9" height="8" viewBox="0 0 9 8" fill="none" xmlns="http://www.w3.org/2000/svg">
<g clip-path="url(#clip0_359_3051)">
<path d="M4.49999 5.723C4.28111 5.7234 4.06431 5.68055 3.86204 5.59692C3.65977 5.51329 3.47601 5.39052 3.32133 5.23566L0.59766 2.51166C0.536941 2.4488 0.503342 2.3646 0.504102 2.2772C0.504861 2.1898 0.539918 2.10619 0.60172 2.04439C0.663523 1.98259 0.747127 1.94753 0.834526 1.94677C0.921925 1.94601 1.00613 1.97961 1.06899 2.04033L3.79266 4.76433C3.98043 4.9516 4.2348 5.05676 4.49999 5.05676C4.76519 5.05676 5.01956 4.9516 5.20733 4.76433L7.93099 2.04033C7.96174 2.00849 7.99852 1.9831 8.03919 1.96563C8.07986 1.94816 8.1236 1.93897 8.16786 1.93858C8.21212 1.9382 8.25601 1.94663 8.29698 1.96339C8.33794 1.98015 8.37516 2.0049 8.40646 2.0362C8.43776 2.0675 8.46251 2.10471 8.47927 2.14568C8.49603 2.18664 8.50446 2.23054 8.50408 2.2748C8.50369 2.31906 8.4945 2.3628 8.47703 2.40347C8.45956 2.44413 8.43416 2.48092 8.40233 2.51166L5.67866 5.23566C5.52397 5.39052 5.34022 5.51329 5.13795 5.59692C4.93567 5.68055 4.71887 5.7234 4.49999 5.723Z" fill="#EFEFEF"/>
</g>
<defs>
<clipPath id="clip0_359_3051">
<rect width="8" height="8" fill="white" transform="translate(0.5)"/>
</clipPath>
</defs>
</svg>
