<svg width="800" height="800" viewBox="0 0 800 800" fill="none" xmlns="http://www.w3.org/2000/svg">
<path d="M290.237 400H650C659.205 400 666.667 407.462 666.667 416.667C666.667 425.871 659.205 433.333 650 433.333H290.237L395.118 538.215C401.627 544.724 401.627 555.276 395.118 561.785C388.61 568.294 378.057 568.294 371.548 561.785L238.215 428.452C231.706 421.943 231.706 411.39 238.215 404.882L371.548 271.548C378.057 265.039 388.61 265.039 395.118 271.548C401.627 278.057 401.627 288.61 395.118 295.118L290.237 400ZM133.333 183.333C133.333 174.129 140.795 166.667 150 166.667C159.205 166.667 166.667 174.129 166.667 183.333V650C166.667 659.205 159.205 666.667 150 666.667C140.795 666.667 133.333 659.205 133.333 650V183.333Z" fill="white"/>
</svg>
