<svg width="11" height="11" viewBox="0 0 11 11" fill="none" xmlns="http://www.w3.org/2000/svg">
<path fill-rule="evenodd" clip-rule="evenodd" d="M7.5625 10.3125C9.08128 10.3125 10.3125 9.08128 10.3125 7.5625C10.3125 6.04372 9.08128 4.8125 7.5625 4.8125C6.04372 4.8125 4.8125 6.04372 4.8125 7.5625C4.8125 9.08128 6.04372 10.3125 7.5625 10.3125ZM11 7.5625C11 9.46098 9.46098 11 7.5625 11C5.66402 11 4.125 9.46098 4.125 7.5625C4.125 5.66402 5.66402 4.125 7.5625 4.125C9.46098 4.125 11 5.66402 11 7.5625Z" fill="#F4CE7D"/>
<path d="M6.48828 8.21176C6.52107 8.62148 6.84453 8.94086 7.4259 8.97868V9.28125H7.6838V8.97658C8.28484 8.93456 8.63672 8.61308 8.63672 8.14662C8.63672 7.72219 8.36789 7.50367 7.88706 7.3902L7.6838 7.34188V6.51822C7.9417 6.54764 8.10562 6.68842 8.14496 6.88383H8.59738C8.56459 6.48881 8.22583 6.17994 7.6838 6.14632V5.84375H7.4259V6.15262C6.91229 6.20305 6.56259 6.51192 6.56259 6.94896C6.56259 7.33558 6.82268 7.58141 7.25542 7.68227L7.4259 7.72429V8.59837C7.16144 8.55845 6.9866 8.41347 6.94726 8.21176H6.48828ZM7.42371 7.28094C7.17019 7.22211 7.03249 7.10235 7.03249 6.92165C7.03249 6.71993 7.18111 6.56865 7.4259 6.52453V7.28094H7.42371ZM7.72096 7.79363C8.02912 7.86507 8.17119 7.98063 8.17119 8.18444C8.17119 8.41767 7.99415 8.57736 7.6838 8.60678V7.78522L7.72096 7.79363Z" fill="#F4CE7D"/>
<path d="M0.6875 0C0.307804 0 0 0.307804 0 0.6875V6.1875C0 6.5672 0.307804 6.875 0.6875 6.875H3.49453C3.53423 6.6384 3.59407 6.40862 3.67222 6.1875H2.0625C2.0625 5.42811 1.44689 4.8125 0.6875 4.8125V2.0625C1.44689 2.0625 2.0625 1.44689 2.0625 0.6875H8.9375C8.9375 1.44689 9.55311 2.0625 10.3125 2.0625V4.48785C10.5738 4.72174 10.8051 4.98846 11 5.28152V0.6875C11 0.307804 10.6922 0 10.3125 0H0.6875Z" fill="#F4CE7D"/>
<path d="M6.87383 3.49473C6.87461 3.47575 6.875 3.45667 6.875 3.4375C6.875 2.67811 6.25939 2.0625 5.5 2.0625C4.74061 2.0625 4.125 2.67811 4.125 3.4375C4.125 3.9081 4.36141 4.32348 4.72195 4.57135C5.30397 4.01846 6.04719 3.63366 6.87383 3.49473Z" fill="#F4CE7D"/>
</svg>
