<svg width="30" height="25" viewBox="0 0 30 25" fill="none" xmlns="http://www.w3.org/2000/svg">
<g clip-path="url(#clip0_6698_399)">
<path d="M8.47612 23.0983C6.84789 23.9931 3.98239 23.1167 3.50977 21.5954C4.42595 21.5285 5.31653 21.2357 6.24171 21.4459C7.22432 21.6691 7.85195 22.3488 8.47612 23.0983Z" fill="url(#paint0_linear_6698_399)"/>
<path d="M8.63475 22.9723C7.95522 22.3443 7.31929 21.7444 7.10685 20.8414C6.87366 19.8518 7.24318 18.9297 7.36496 17.9434C9.13229 19.1692 9.52464 21.1417 8.63475 22.9723Z" fill="url(#paint1_linear_6698_399)"/>
<path d="M5.59195 20.1754C5.01692 19.4021 4.43081 18.6138 4.58858 17.618C4.71729 16.8037 5.05428 16.0216 5.30686 15.2012C6.68252 16.055 6.82368 18.9441 5.59195 20.1754Z" fill="url(#paint2_linear_6698_399)"/>
<path d="M5.43853 20.3041C3.30169 20.6801 1.61118 19.6693 1.00293 17.9316C1.91911 18.0258 2.83807 17.9296 3.68644 18.3234C4.54934 18.7234 5.00051 19.4768 5.43853 20.3041Z" fill="url(#paint3_linear_6698_399)"/>
<path d="M0.0136051 13.1602C0.715275 13.5472 1.38857 13.8666 2.00444 14.2713C2.73725 14.7525 3.10815 15.8868 3.07562 16.8437C1.54773 16.9147 -0.170462 14.917 0.0136051 13.1602Z" fill="url(#paint4_linear_6698_399)"/>
<path d="M3.34844 16.7986C2.59141 15.4616 3.32491 13.3928 4.91924 12.3691C5.75031 13.6112 4.78223 16.3406 3.34844 16.7986Z" fill="url(#paint5_linear_6698_399)"/>
<path d="M0.160768 8.88477C0.697746 9.34342 1.22919 9.72973 1.67621 10.1938C2.45054 10.9979 2.41455 11.9937 2.272 13.0188C0.503299 12.2701 -0.280716 10.6859 0.160768 8.88477Z" fill="url(#paint6_linear_6698_399)"/>
<path d="M4.93942 9.17383C5.52622 10.4276 4.181 12.568 2.52578 13.0151C2.06631 11.6179 3.12919 9.92597 4.93942 9.17383Z" fill="url(#paint7_linear_6698_399)"/>
<path d="M7.37072 0C7.51465 1.59437 6.4746 3.10343 4.67129 3.45219C4.38827 2.09125 5.35843 0.841549 7.37072 0Z" fill="url(#paint8_linear_6698_399)"/>
<path d="M1.56684 5.18164C2.96741 6.25866 3.39367 7.7916 2.70099 9.20374C1.4409 8.73894 0.837485 6.63405 1.56684 5.18164Z" fill="url(#paint9_linear_6698_399)"/>
<path d="M2.89941 9.27102C2.96238 7.74012 4.1609 6.54981 5.86317 6.30273C5.83619 7.90598 4.52211 9.18161 2.89941 9.27102Z" fill="url(#paint10_linear_6698_399)"/>
<path d="M6.97102 3.24414C6.86099 4.77913 5.48879 5.92508 3.95605 5.89573C4.06331 4.47541 5.22169 3.4564 6.97102 3.24414Z" fill="url(#paint11_linear_6698_399)"/>
<path d="M3.73926 5.82981C2.45563 4.83469 2.18507 3.18981 2.95524 1.92578C4.16068 2.83763 4.53158 4.64836 3.73926 5.82981Z" fill="url(#paint12_linear_6698_399)"/>
<path d="M8.94305 23.207C9.0254 23.2405 9.11466 23.263 9.18939 23.3087C10.5782 24.1571 12.104 24.5106 13.7212 24.5448C13.9004 24.5488 14.1876 24.4697 14.1917 24.7434C14.1966 25.0225 13.9163 24.9959 13.7115 24.987C12.0272 24.9174 10.4855 24.4171 9.09183 23.4807C9.0164 23.4302 8.95551 23.3578 8.8877 23.2964C8.90638 23.2664 8.92437 23.237 8.94305 23.207Z" fill="url(#paint13_linear_6698_399)"/>
</g>
<g clip-path="url(#clip1_6698_399)">
<path d="M21.5239 23.0983C23.1521 23.9931 26.0176 23.1167 26.4902 21.5954C25.5741 21.5285 24.6835 21.2357 23.7583 21.4459C22.7757 21.6691 22.1481 22.3488 21.5239 23.0983Z" fill="url(#paint14_linear_6698_399)"/>
<path d="M21.3652 22.9723C22.0448 22.3443 22.6807 21.7444 22.8931 20.8414C23.1263 19.8518 22.7568 18.9297 22.635 17.9434C20.8677 19.1692 20.4754 21.1417 21.3652 22.9723Z" fill="url(#paint15_linear_6698_399)"/>
<path d="M24.4081 20.1754C24.9831 19.4021 25.5692 18.6138 25.4114 17.618C25.2827 16.8037 24.9457 16.0216 24.6931 15.2012C23.3175 16.055 23.1763 18.9441 24.4081 20.1754Z" fill="url(#paint16_linear_6698_399)"/>
<path d="M24.5615 20.3041C26.6983 20.6801 28.3888 19.6693 28.9971 17.9316C28.0809 18.0258 27.1619 17.9296 26.3136 18.3234C25.4507 18.7234 24.9995 19.4768 24.5615 20.3041Z" fill="url(#paint17_linear_6698_399)"/>
<path d="M29.9864 13.1602C29.2847 13.5472 28.6114 13.8666 27.9956 14.2713C27.2627 14.7525 26.8919 15.8868 26.9244 16.8437C28.4523 16.9147 30.1705 14.917 29.9864 13.1602Z" fill="url(#paint18_linear_6698_399)"/>
<path d="M26.6516 16.7986C27.4086 15.4616 26.6751 13.3928 25.0808 12.3691C24.2497 13.6112 25.2178 16.3406 26.6516 16.7986Z" fill="url(#paint19_linear_6698_399)"/>
<path d="M29.8392 8.88477C29.3023 9.34342 28.7708 9.72973 28.3238 10.1938C27.5495 10.9979 27.5854 11.9937 27.728 13.0188C29.4967 12.2701 30.2807 10.6859 29.8392 8.88477Z" fill="url(#paint20_linear_6698_399)"/>
<path d="M25.0606 9.17383C24.4738 10.4276 25.819 12.568 27.4742 13.0151C27.9337 11.6179 26.8708 9.92597 25.0606 9.17383Z" fill="url(#paint21_linear_6698_399)"/>
<path d="M22.6293 0C22.4853 1.59437 23.5254 3.10343 25.3287 3.45219C25.6117 2.09125 24.6416 0.841549 22.6293 0Z" fill="url(#paint22_linear_6698_399)"/>
<path d="M28.4332 5.18164C27.0326 6.25866 26.6063 7.7916 27.299 9.20374C28.5591 8.73894 29.1625 6.63405 28.4332 5.18164Z" fill="url(#paint23_linear_6698_399)"/>
<path d="M27.1006 9.27102C27.0376 7.74012 25.8391 6.54981 24.1368 6.30273C24.1638 7.90598 25.4779 9.18161 27.1006 9.27102Z" fill="url(#paint24_linear_6698_399)"/>
<path d="M23.029 3.24414C23.139 4.77913 24.5112 5.92508 26.0439 5.89573C25.9367 4.47541 24.7783 3.4564 23.029 3.24414Z" fill="url(#paint25_linear_6698_399)"/>
<path d="M26.2607 5.82981C27.5444 4.83469 27.8149 3.18981 27.0448 1.92578C25.8393 2.83763 25.4684 4.64836 26.2607 5.82981Z" fill="url(#paint26_linear_6698_399)"/>
<path d="M21.057 23.207C20.9746 23.2405 20.8853 23.263 20.8106 23.3087C19.4218 24.1571 17.896 24.5106 16.2788 24.5448C16.0996 24.5488 15.8124 24.4697 15.8083 24.7434C15.8034 25.0225 16.0837 24.9959 16.2885 24.987C17.9728 24.9174 19.5145 24.4171 20.9082 23.4807C20.9836 23.4302 21.0445 23.3578 21.1123 23.2964C21.0936 23.2664 21.0756 23.237 21.057 23.207Z" fill="url(#paint27_linear_6698_399)"/>
</g>
<defs>
<linearGradient id="paint0_linear_6698_399" x1="5.99294" y1="21.3711" x2="5.99294" y2="23.4581" gradientUnits="userSpaceOnUse">
<stop stop-color="white"/>
<stop offset="1" stop-color="#1D6ED9"/>
</linearGradient>
<linearGradient id="paint1_linear_6698_399" x1="8.0627" y1="17.9434" x2="8.0627" y2="22.9723" gradientUnits="userSpaceOnUse">
<stop stop-color="white"/>
<stop offset="1" stop-color="#1D6ED9"/>
</linearGradient>
<linearGradient id="paint2_linear_6698_399" x1="5.4981" y1="15.2012" x2="5.4981" y2="20.1754" gradientUnits="userSpaceOnUse">
<stop stop-color="white"/>
<stop offset="1" stop-color="#1D6ED9"/>
</linearGradient>
<linearGradient id="paint3_linear_6698_399" x1="3.22073" y1="17.9316" x2="3.22073" y2="20.3823" gradientUnits="userSpaceOnUse">
<stop stop-color="white"/>
<stop offset="1" stop-color="#1D6ED9"/>
</linearGradient>
<linearGradient id="paint4_linear_6698_399" x1="1.5388" y1="13.1602" x2="1.5388" y2="16.8456" gradientUnits="userSpaceOnUse">
<stop stop-color="white"/>
<stop offset="1" stop-color="#1D6ED9"/>
</linearGradient>
<linearGradient id="paint5_linear_6698_399" x1="4.13749" y1="12.3691" x2="4.13749" y2="16.7986" gradientUnits="userSpaceOnUse">
<stop stop-color="white"/>
<stop offset="1" stop-color="#1D6ED9"/>
</linearGradient>
<linearGradient id="paint6_linear_6698_399" x1="1.19655" y1="8.88477" x2="1.19655" y2="13.0188" gradientUnits="userSpaceOnUse">
<stop stop-color="white"/>
<stop offset="1" stop-color="#1D6ED9"/>
</linearGradient>
<linearGradient id="paint7_linear_6698_399" x1="3.74917" y1="9.17383" x2="3.74917" y2="13.0151" gradientUnits="userSpaceOnUse">
<stop stop-color="white"/>
<stop offset="1" stop-color="#1D6ED9"/>
</linearGradient>
<linearGradient id="paint8_linear_6698_399" x1="6.00349" y1="0" x2="6.00349" y2="3.45219" gradientUnits="userSpaceOnUse">
<stop stop-color="white"/>
<stop offset="1" stop-color="#1D6ED9"/>
</linearGradient>
<linearGradient id="paint9_linear_6698_399" x1="2.13948" y1="5.18164" x2="2.13948" y2="9.20374" gradientUnits="userSpaceOnUse">
<stop stop-color="white"/>
<stop offset="1" stop-color="#1D6ED9"/>
</linearGradient>
<linearGradient id="paint10_linear_6698_399" x1="4.38129" y1="6.30273" x2="4.38129" y2="9.27102" gradientUnits="userSpaceOnUse">
<stop stop-color="white"/>
<stop offset="1" stop-color="#1D6ED9"/>
</linearGradient>
<linearGradient id="paint11_linear_6698_399" x1="5.46354" y1="3.24414" x2="5.46354" y2="5.89629" gradientUnits="userSpaceOnUse">
<stop stop-color="white"/>
<stop offset="1" stop-color="#1D6ED9"/>
</linearGradient>
<linearGradient id="paint12_linear_6698_399" x1="3.3422" y1="1.92578" x2="3.3422" y2="5.82981" gradientUnits="userSpaceOnUse">
<stop stop-color="white"/>
<stop offset="1" stop-color="#1D6ED9"/>
</linearGradient>
<linearGradient id="paint13_linear_6698_399" x1="11.5397" y1="23.207" x2="11.5397" y2="24.992" gradientUnits="userSpaceOnUse">
<stop stop-color="white"/>
<stop offset="1" stop-color="#1D6ED9"/>
</linearGradient>
<linearGradient id="paint14_linear_6698_399" x1="24.0071" y1="21.3711" x2="24.0071" y2="23.4581" gradientUnits="userSpaceOnUse">
<stop stop-color="white"/>
<stop offset="1" stop-color="#1D6ED9"/>
</linearGradient>
<linearGradient id="paint15_linear_6698_399" x1="21.9373" y1="17.9434" x2="21.9373" y2="22.9723" gradientUnits="userSpaceOnUse">
<stop stop-color="white"/>
<stop offset="1" stop-color="#1D6ED9"/>
</linearGradient>
<linearGradient id="paint16_linear_6698_399" x1="24.5019" y1="15.2012" x2="24.5019" y2="20.1754" gradientUnits="userSpaceOnUse">
<stop stop-color="white"/>
<stop offset="1" stop-color="#1D6ED9"/>
</linearGradient>
<linearGradient id="paint17_linear_6698_399" x1="26.7793" y1="17.9316" x2="26.7793" y2="20.3823" gradientUnits="userSpaceOnUse">
<stop stop-color="white"/>
<stop offset="1" stop-color="#1D6ED9"/>
</linearGradient>
<linearGradient id="paint18_linear_6698_399" x1="28.4612" y1="13.1602" x2="28.4612" y2="16.8456" gradientUnits="userSpaceOnUse">
<stop stop-color="white"/>
<stop offset="1" stop-color="#1D6ED9"/>
</linearGradient>
<linearGradient id="paint19_linear_6698_399" x1="25.8625" y1="12.3691" x2="25.8625" y2="16.7986" gradientUnits="userSpaceOnUse">
<stop stop-color="white"/>
<stop offset="1" stop-color="#1D6ED9"/>
</linearGradient>
<linearGradient id="paint20_linear_6698_399" x1="28.8035" y1="8.88477" x2="28.8035" y2="13.0188" gradientUnits="userSpaceOnUse">
<stop stop-color="white"/>
<stop offset="1" stop-color="#1D6ED9"/>
</linearGradient>
<linearGradient id="paint21_linear_6698_399" x1="26.2508" y1="9.17383" x2="26.2508" y2="13.0151" gradientUnits="userSpaceOnUse">
<stop stop-color="white"/>
<stop offset="1" stop-color="#1D6ED9"/>
</linearGradient>
<linearGradient id="paint22_linear_6698_399" x1="23.9965" y1="0" x2="23.9965" y2="3.45219" gradientUnits="userSpaceOnUse">
<stop stop-color="white"/>
<stop offset="1" stop-color="#1D6ED9"/>
</linearGradient>
<linearGradient id="paint23_linear_6698_399" x1="27.8605" y1="5.18164" x2="27.8605" y2="9.20374" gradientUnits="userSpaceOnUse">
<stop stop-color="white"/>
<stop offset="1" stop-color="#1D6ED9"/>
</linearGradient>
<linearGradient id="paint24_linear_6698_399" x1="25.6187" y1="6.30273" x2="25.6187" y2="9.27102" gradientUnits="userSpaceOnUse">
<stop stop-color="white"/>
<stop offset="1" stop-color="#1D6ED9"/>
</linearGradient>
<linearGradient id="paint25_linear_6698_399" x1="24.5365" y1="3.24414" x2="24.5365" y2="5.89629" gradientUnits="userSpaceOnUse">
<stop stop-color="white"/>
<stop offset="1" stop-color="#1D6ED9"/>
</linearGradient>
<linearGradient id="paint26_linear_6698_399" x1="26.6578" y1="1.92578" x2="26.6578" y2="5.82981" gradientUnits="userSpaceOnUse">
<stop stop-color="white"/>
<stop offset="1" stop-color="#1D6ED9"/>
</linearGradient>
<linearGradient id="paint27_linear_6698_399" x1="18.4603" y1="23.207" x2="18.4603" y2="24.992" gradientUnits="userSpaceOnUse">
<stop stop-color="white"/>
<stop offset="1" stop-color="#1D6ED9"/>
</linearGradient>
<clipPath id="clip0_6698_399">
<rect width="15" height="25" fill="white"/>
</clipPath>
<clipPath id="clip1_6698_399">
<rect width="15" height="25" fill="white" transform="matrix(-1 0 0 1 30 0)"/>
</clipPath>
</defs>
</svg>
