<svg width="20" height="20" viewBox="0 0 20 20" fill="none" xmlns="http://www.w3.org/2000/svg">
<g opacity="0.5">
<path d="M7.5 0C7.84518 0 8.125 0.279822 8.125 0.625V3.75H11.875V0.625C11.875 0.279822 12.1548 0 12.5 0C12.8452 0 13.125 0.279822 13.125 0.625V3.75H14.375C14.7202 3.75 15 4.02982 15 4.375V8.125C15 10.5412 13.0412 12.5 10.625 12.5C10.6223 13.0424 10.6114 13.5557 10.5742 14.0241C10.5232 14.6671 10.4178 15.2786 10.1784 15.8055C9.93038 16.3511 9.54324 16.7947 8.96609 17.0897C8.40639 17.3758 7.71124 17.5 6.875 17.5C5.62807 17.5 4.8629 17.9126 4.40701 18.3971C3.93723 18.8963 3.75 19.5202 3.75 20H2.5C2.5 19.2298 2.79023 18.2912 3.49667 17.5404C4.21702 16.7749 5.32685 16.25 6.875 16.25C7.60126 16.25 8.07799 16.1398 8.3972 15.9767C8.69895 15.8225 8.89775 15.6021 9.0404 15.2882C9.19154 14.9557 9.28151 14.5126 9.32813 13.9252C9.36183 13.5005 9.3713 13.0282 9.37396 12.5C6.95819 12.4994 5 10.5409 5 8.125V4.375C5 4.02982 5.27982 3.75 5.625 3.75H6.875V0.625C6.875 0.279822 7.15482 0 7.5 0ZM6.25 5V8.125C6.25 9.85089 7.64911 11.25 9.375 11.25H10.625C12.3509 11.25 13.75 9.85089 13.75 8.125V5H6.25Z" fill="white"/>
</g>
</svg>
