<svg width="14" height="14" viewBox="0 0 14 14" fill="none" xmlns="http://www.w3.org/2000/svg">
<path d="M11.375 6.0498V11.375C11.375 11.7231 11.2367 12.0569 10.9906 12.3031C10.7444 12.5492 10.4106 12.6875 10.0625 12.6875H3.9375C3.5894 12.6875 3.25556 12.5492 3.00942 12.3031C2.76328 12.0569 2.625 11.7231 2.625 11.375V2.625C2.625 2.2769 2.76328 1.94306 3.00942 1.69692C3.25556 1.45078 3.5894 1.3125 3.9375 1.3125H6.6377C6.86968 1.31254 7.09215 1.40469 7.25621 1.56871L11.1188 5.43129C11.2828 5.59535 11.375 5.81782 11.375 6.0498Z" stroke="white" stroke-width="0.75" stroke-linejoin="round"/>
<path d="M7 1.53125V4.8125C7 5.04456 7.09219 5.26712 7.25628 5.43122C7.42038 5.59531 7.64294 5.6875 7.875 5.6875H11.1562M4.8125 7.875H9.1875M4.8125 10.0625H9.1875" stroke="white" stroke-width="0.75" stroke-linecap="round" stroke-linejoin="round"/>
</svg>
