<svg width="19" height="20" viewBox="0 0 19 20" fill="none" xmlns="http://www.w3.org/2000/svg">
<path d="M15.8691 6.3597C16.1684 6.06045 16.3331 5.66303 16.3331 5.24028C16.3331 4.81753 16.1684 4.42012 15.8691 4.12087L14.6136 2.86528C14.3143 2.56603 13.9169 2.40137 13.4941 2.40137C13.0714 2.40137 12.674 2.56603 12.3755 2.86449L3.9585 11.2554V14.7506H7.45213L15.8691 6.3597ZM13.4941 3.9847L14.7505 5.23949L13.4918 6.49349L12.2362 5.2387L13.4941 3.9847ZM5.54184 13.1672V11.9124L11.1152 6.35653L12.3708 7.61212L6.79821 13.1672H5.54184ZM3.9585 16.3339H16.6252V17.9172H3.9585V16.3339Z" fill="white"/>
</svg>
