<svg xmlns="http://www.w3.org/2000/svg" version="1.1" xmlns:xlink="http://www.w3.org/1999/xlink" width="512" height="512" x="0" y="0" viewBox="0 0 24 24" style="enable-background:new 0 0 512 512" xml:space="preserve" class=""><g><g fill="#000"><path fill-rule="evenodd" d="M12 3.538a8.462 8.462 0 1 0 0 16.924 8.462 8.462 0 0 0 0-16.924zM2 12C2 6.477 6.477 2 12 2s10 4.477 10 10-4.477 10-10 10S2 17.523 2 12z" clip-rule="evenodd" fill="#be3131" opacity="1" data-original="#000000"></path><path fill-rule="evenodd" d="M12 7.641a.77.77 0 0 1 .77.77v4.102a.77.77 0 1 1-1.54 0V8.41a.77.77 0 0 1 .77-.769z" clip-rule="evenodd" fill="#be3131" opacity="1" data-original="#000000"></path><path d="M13.026 15.59a1.026 1.026 0 1 1-2.052 0 1.026 1.026 0 0 1 2.052 0z" fill="#be3131" opacity="1" data-original="#000000"></path></g></g></svg>