<svg width="14" height="14" viewBox="0 0 14 14" fill="none" xmlns="http://www.w3.org/2000/svg">
<path d="M7 13.125C3.61726 13.125 0.875 10.3827 0.875 7C0.875 3.61726 3.61726 0.875 7 0.875C10.3827 0.875 13.125 3.61726 13.125 7C13.125 10.3827 10.3827 13.125 7 13.125ZM7 14C10.866 14 14 10.866 14 7C14 3.13401 10.866 0 7 0C3.13401 0 0 3.13401 0 7C0 10.866 3.13401 14 7 14Z" fill="white"/>
<path d="M6.125 10.0625C6.125 9.82088 6.32088 9.625 6.5625 9.625H7.4375C7.67912 9.625 7.875 9.82088 7.875 10.0625C7.875 10.3041 7.67912 10.5 7.4375 10.5H6.5625C6.32088 10.5 6.125 10.3041 6.125 10.0625Z" fill="white"/>
<path d="M4.375 7.4375C4.375 7.19588 4.57088 7 4.8125 7H9.1875C9.42912 7 9.625 7.19588 9.625 7.4375C9.625 7.67912 9.42912 7.875 9.1875 7.875H4.8125C4.57088 7.875 4.375 7.67912 4.375 7.4375Z" fill="white"/>
<path d="M2.625 4.8125C2.625 4.57088 2.82088 4.375 3.0625 4.375H10.9375C11.1791 4.375 11.375 4.57088 11.375 4.8125C11.375 5.05412 11.1791 5.25 10.9375 5.25H3.0625C2.82088 5.25 2.625 5.05412 2.625 4.8125Z" fill="white"/>
</svg>
