<svg width="16" height="16" viewBox="0 0 16 16" fill="none" xmlns="http://www.w3.org/2000/svg">
<path d="M1 2C1 0.89543 1.89543 0 3 0H9C10.1046 0 11 0.895431 11 2V10C12.1046 10 13 10.8954 13 12V12.5C13 12.7761 13.2239 13 13.5 13C13.7761 13 14 12.7761 14 12.5V8H13.5C13.2239 8 13 7.77615 13 7.5V4.375C13 4.09886 13.2239 3.875 13.5 3.875H14.9954C14.9836 3.39925 14.9415 2.98105 14.794 2.65332C14.704 2.45329 14.5797 2.30213 14.4003 2.19525C14.2161 2.0855 13.9359 2 13.5 2C13.2239 2 13 1.77614 13 1.5C13 1.22386 13.2239 1 13.5 1C14.0641 1 14.5339 1.11076 14.9122 1.33619C15.2953 1.56448 15.546 1.88741 15.706 2.24301C16.0006 2.89773 16.0002 3.70805 16 4.32397L16 7.49999C16 7.77615 15.7761 8 15.5 8H15V12.5C15 13.3284 14.3284 14 13.5 14C12.6716 14 12 13.3284 12 12.5V12C12 11.4477 11.5523 11 11 11V15H11.5C11.7761 15 12 15.2239 12 15.5C12 15.7761 11.7761 16 11.5 16H0.5C0.223858 16 0 15.7761 0 15.5C0 15.2239 0.223858 15 0.5 15H1V2ZM3.5 2C3.22386 2 3 2.22386 3 2.5V7.5C3 7.77614 3.22386 8 3.5 8H8.5C8.77614 8 9 7.77614 9 7.5V2.5C9 2.22386 8.77614 2 8.5 2H3.5Z" fill="white"/>
</svg>
