<svg width="103" height="16" viewBox="0 0 103 16" fill="none" xmlns="http://www.w3.org/2000/svg">
<path d="M102 8H21" stroke="url(#paint0_linear_3197_762)" stroke-linecap="round"/>
<path d="M8.46893 1.26725C8.30785 0.831943 7.69215 0.831944 7.53107 1.26725L5.91906 5.62365C5.86842 5.76051 5.76051 5.86842 5.62365 5.91906L1.26725 7.53107C0.831943 7.69215 0.831944 8.30785 1.26725 8.46893L5.62365 10.0809C5.76051 10.1316 5.86842 10.2395 5.91906 10.3763L7.53107 14.7327C7.69215 15.1681 8.30785 15.1681 8.46893 14.7327L10.0809 10.3763C10.1316 10.2395 10.2395 10.1316 10.3763 10.0809L14.7327 8.46893C15.1681 8.30785 15.1681 7.69215 14.7327 7.53107L10.3763 5.91906C10.2395 5.86842 10.1316 5.76051 10.0809 5.62365L8.46893 1.26725Z" fill="#8A9DA2"/>
<defs>
<linearGradient id="paint0_linear_3197_762" x1="102" y1="8.5" x2="21" y2="8.5" gradientUnits="userSpaceOnUse">
<stop stop-color="#080A0D" stop-opacity="0"/>
<stop offset="1" stop-color="#8A9DA2"/>
</linearGradient>
</defs>
</svg>
