<svg width="14" height="14" viewBox="0 0 14 14" fill="none" xmlns="http://www.w3.org/2000/svg">
<g clip-path="url(#clip0_8744_203)">
<path d="M5.30234 5.25008C5.43948 4.86022 5.71018 4.53148 6.06648 4.32208C6.42278 4.11267 6.84169 4.03613 7.24902 4.106C7.65635 4.17586 8.02581 4.38764 8.29197 4.70381C8.55812 5.01997 8.70379 5.42014 8.70317 5.83341C8.70317 7.00008 6.95317 7.58341 6.95317 7.58341M6.99984 9.91675H7.00567M12.8332 7.00008C12.8332 10.2217 10.2215 12.8334 6.99984 12.8334C3.77818 12.8334 1.1665 10.2217 1.1665 7.00008C1.1665 3.77842 3.77818 1.16675 6.99984 1.16675C10.2215 1.16675 12.8332 3.77842 12.8332 7.00008Z" stroke="white" stroke-linecap="round" stroke-linejoin="round"/>
</g>
<defs>
<clipPath id="clip0_8744_203">
<rect width="14" height="14" fill="white"/>
</clipPath>
</defs>
</svg>
