<svg width="16" height="16" viewBox="0 0 16 16" fill="none" xmlns="http://www.w3.org/2000/svg">
<path d="M4.50153 9C5.32995 9 6.00153 8.32843 6.00153 7.5C6.00153 6.67157 5.32995 6 4.50153 6C3.6731 6 3.00153 6.67157 3.00153 7.5C3.00153 8.32843 3.6731 9 4.50153 9Z" fill="white"/>
<path d="M14.0015 13C14.0015 14.1046 13.1061 15 12.0015 15H2.00153C0.896956 15 0.00152588 14.1046 0.00152588 13V5C0.00152588 3.89594 0.896124 3.00083 1.99998 3C1.99998 1.89543 2.89542 1 3.99998 1H14C15.1046 1 16 1.89543 16 3V11C16 12.1041 15.1054 12.9992 14.0015 13ZM14 2H3.99998C3.4477 2 2.99998 2.44772 2.99998 3L12.0015 3C13.1061 3 14.0015 3.89543 14.0015 5V12C14.5531 11.9992 15 11.5518 15 11V3C15 2.44772 14.5523 2 14 2ZM2.00153 4C1.44924 4 1.00153 4.44772 1.00153 5V13L3.64797 10.6465C3.8165 10.4779 4.08056 10.4518 4.27888 10.584L6.93782 12.3566L10.648 8.64646C10.8002 8.49428 11.0326 8.45655 11.2251 8.5528L13.0015 10.5V5C13.0015 4.44772 12.5538 4 12.0015 4H2.00153Z" fill="white"/>
</svg>
