<svg xmlns="http://www.w3.org/2000/svg" version="1.1" xmlns:xlink="http://www.w3.org/1999/xlink" width="512" height="512" x="0" y="0" viewBox="0 0 512 512" style="enable-background:new 0 0 512 512" xml:space="preserve" class=""><g><path d="M256 0C114.6 0 0 114.6 0 256s114.6 256 256 256 256-114.6 256-256S397.4 0 256 0zm33.7 415.7c0 7.4-6 13.5-13.4 13.5h-40.5c-7.4 0-13.5-6-13.5-13.4v-207c0-7.4 6-13.5 13.4-13.5h40.5c7.4 0 13.5 6 13.5 13.4zM256 160.8c-21.5 0-39-17.5-39-39s17.5-39 39-39 39 17.5 39 39-17.5 39-39 39z" fill="#ffffff" opacity="1" data-original="#000000"></path></g></svg>