<svg width="16" height="17" viewBox="0 0 16 17" fill="none" xmlns="http://www.w3.org/2000/svg">
<path d="M7.33334 11.8334H4.66668C3.74445 11.8334 2.95834 11.5084 2.30834 10.8584C1.65834 10.2084 1.33334 9.4223 1.33334 8.50008C1.33334 7.57786 1.65834 6.79175 2.30834 6.14175C2.95834 5.49175 3.74445 5.16675 4.66668 5.16675H7.33334V6.50008H4.66668C4.11112 6.50008 3.6389 6.69453 3.25001 7.08341C2.86112 7.4723 2.66668 7.94453 2.66668 8.50008C2.66668 9.05564 2.86112 9.52786 3.25001 9.91675C3.6389 10.3056 4.11112 10.5001 4.66668 10.5001H7.33334V11.8334ZM5.33334 9.16675V7.83341H10.6667V9.16675H5.33334ZM8.66668 11.8334V10.5001H11.3333C11.8889 10.5001 12.3611 10.3056 12.75 9.91675C13.1389 9.52786 13.3333 9.05564 13.3333 8.50008C13.3333 7.94453 13.1389 7.4723 12.75 7.08341C12.3611 6.69453 11.8889 6.50008 11.3333 6.50008H8.66668V5.16675H11.3333C12.2556 5.16675 13.0417 5.49175 13.6917 6.14175C14.3417 6.79175 14.6667 7.57786 14.6667 8.50008C14.6667 9.4223 14.3417 10.2084 13.6917 10.8584C13.0417 11.5084 12.2556 11.8334 11.3333 11.8334H8.66668Z" fill="white"/>
</svg>
