<svg width="12" height="12" viewBox="0 0 12 12" fill="none" xmlns="http://www.w3.org/2000/svg">
<path d="M5.9994 4.5001V6.5001M5.9994 8.5001H6.0044M5.1444 1.9301L0.9094 9.0001C0.822084 9.15131 0.775883 9.32275 0.775395 9.49736C0.774906 9.67197 0.820145 9.84367 0.906613 9.99537C0.993081 10.1471 1.11776 10.2735 1.26825 10.362C1.41875 10.4506 1.5898 10.4982 1.7644 10.5001H10.2344C10.409 10.4982 10.5801 10.4506 10.7305 10.362C10.881 10.2735 11.0057 10.1471 11.0922 9.99537C11.1787 9.84367 11.2239 9.67197 11.2234 9.49736C11.2229 9.32275 11.1767 9.15131 11.0894 9.0001L6.8544 1.9301C6.76526 1.78316 6.63976 1.66166 6.49 1.57734C6.34023 1.49303 6.17127 1.44873 5.9994 1.44873C5.82753 1.44873 5.65857 1.49303 5.5088 1.57734C5.35904 1.66166 5.23354 1.78316 5.1444 1.9301Z" stroke="#F88001" stroke-linecap="round" stroke-linejoin="round"/>
</svg>
