<svg width="14" height="14" viewBox="0 0 14 14" fill="none" xmlns="http://www.w3.org/2000/svg">
<path fill-rule="evenodd" clip-rule="evenodd" d="M4.375 10.0625C4.375 9.82088 4.57088 9.625 4.8125 9.625H12.6875C12.9291 9.625 13.125 9.82088 13.125 10.0625C13.125 10.3041 12.9291 10.5 12.6875 10.5H4.8125C4.57088 10.5 4.375 10.3041 4.375 10.0625Z" fill="white"/>
<path fill-rule="evenodd" clip-rule="evenodd" d="M4.375 6.5625C4.375 6.32088 4.57088 6.125 4.8125 6.125H12.6875C12.9291 6.125 13.125 6.32088 13.125 6.5625C13.125 6.80412 12.9291 7 12.6875 7H4.8125C4.57088 7 4.375 6.80412 4.375 6.5625Z" fill="white"/>
<path fill-rule="evenodd" clip-rule="evenodd" d="M4.375 3.0625C4.375 2.82088 4.57088 2.625 4.8125 2.625H12.6875C12.9291 2.625 13.125 2.82088 13.125 3.0625C13.125 3.30412 12.9291 3.5 12.6875 3.5H4.8125C4.57088 3.5 4.375 3.30412 4.375 3.0625Z" fill="white"/>
<path fill-rule="evenodd" clip-rule="evenodd" d="M1.75 3.9375C2.23325 3.9375 2.625 3.54575 2.625 3.0625C2.625 2.57925 2.23325 2.1875 1.75 2.1875C1.26675 2.1875 0.875 2.57925 0.875 3.0625C0.875 3.54575 1.26675 3.9375 1.75 3.9375Z" fill="white"/>
<path fill-rule="evenodd" clip-rule="evenodd" d="M1.75 7.4375C2.23325 7.4375 2.625 7.04575 2.625 6.5625C2.625 6.07925 2.23325 5.6875 1.75 5.6875C1.26675 5.6875 0.875 6.07925 0.875 6.5625C0.875 7.04575 1.26675 7.4375 1.75 7.4375Z" fill="white"/>
<path fill-rule="evenodd" clip-rule="evenodd" d="M1.75 10.9375C2.23325 10.9375 2.625 10.5457 2.625 10.0625C2.625 9.57925 2.23325 9.1875 1.75 9.1875C1.26675 9.1875 0.875 9.57925 0.875 10.0625C0.875 10.5457 1.26675 10.9375 1.75 10.9375Z" fill="white"/>
</svg>
