<svg width="14" height="14" viewBox="0 0 14 14" fill="none" xmlns="http://www.w3.org/2000/svg">
<g opacity="0.5">
<path d="M7 0.875C7.9665 0.875 8.75 1.6585 8.75 2.625V6.125H5.25V2.625C5.25 1.6585 6.0335 0.875 7 0.875ZM9.625 6.125V2.625C9.625 1.17525 8.44975 0 7 0C5.55025 0 4.375 1.17525 4.375 2.625V6.125C3.4085 6.125 2.625 6.9085 2.625 7.875V12.25C2.625 13.2165 3.4085 14 4.375 14H9.625C10.5915 14 11.375 13.2165 11.375 12.25V7.875C11.375 6.9085 10.5915 6.125 9.625 6.125Z" fill="white"/>
</g>
</svg>
