<svg width="12" height="12" viewBox="0 0 12 12" fill="none" xmlns="http://www.w3.org/2000/svg">
<path fill-rule="evenodd" clip-rule="evenodd" d="M4.5 1.5C4.65769 1.5 4.79853 1.59865 4.85242 1.74685L7.5 9.02768L8.64758 5.87185C8.70147 5.72365 8.84231 5.625 9 5.625H11.625C11.8321 5.625 12 5.79289 12 6C12 6.20711 11.8321 6.375 11.625 6.375H9.26266L7.85242 10.2532C7.79853 10.4013 7.65769 10.5 7.5 10.5C7.34231 10.5 7.20147 10.4013 7.14758 10.2532L4.5 2.97232L3.35242 6.12815C3.29853 6.27635 3.15769 6.375 3 6.375H0.375C0.167893 6.375 0 6.20711 0 6C0 5.79289 0.167893 5.625 0.375 5.625H2.73734L4.14758 1.74685C4.20147 1.59865 4.34231 1.5 4.5 1.5Z" fill="white"/>
</svg>
