<svg width="12" height="12" viewBox="0 0 12 12" fill="none" xmlns="http://www.w3.org/2000/svg">
<g clip-path="url(#clip0_10748_1315)">
<path d="M5.625 0.75C2.5185 0.75 0 3.2685 0 6.375C0 9.4815 2.5185 12 5.625 12C8.7315 12 11.25 9.4815 11.25 6.375C11.25 3.2685 8.7315 0.75 5.625 0.75ZM5.625 10.875C3.1395 10.875 1.125 8.8605 1.125 6.375C1.125 3.8895 3.1395 1.875 5.625 1.875C8.1105 1.875 10.125 3.8895 10.125 6.375C10.125 8.8605 8.1105 10.875 5.625 10.875ZM6 6V4.5H7.5V3.75H6V3H5.25V3.75H3.75V6.75H5.25V8.25H3.75V9H5.25V9.75H6V9H7.5V6H6ZM5.25 6H4.5V4.5H5.25V6ZM6.75 8.25H6V6.75H6.75V8.25Z" fill="#7DAFF4"/>
</g>
<defs>
<clipPath id="clip0_10748_1315">
<rect width="12" height="12" fill="white"/>
</clipPath>
</defs>
</svg>
