<svg width="12" height="12" viewBox="0 0 12 12" fill="none" xmlns="http://www.w3.org/2000/svg">
<g clip-path="url(#clip0_10746_1331)">
<path d="M10.6052 7.945C10.2871 8.69724 9.78959 9.36011 9.15614 9.87565C8.52269 10.3912 7.77259 10.7437 6.97142 10.9024C6.17025 11.0611 5.34241 11.0211 4.56027 10.7859C3.77814 10.5507 3.06551 10.1275 2.48471 9.55333C1.90391 8.97912 1.47261 8.27138 1.22852 7.49197C0.98443 6.71257 0.934982 5.88524 1.0845 5.08232C1.23402 4.27939 1.57795 3.52531 2.08622 2.88601C2.5945 2.24672 3.25164 1.74166 4.0002 1.415M11.0002 6C11.0002 5.34339 10.8709 4.69321 10.6196 4.08658C10.3683 3.47995 10 2.92876 9.53574 2.46447C9.07144 2.00017 8.52025 1.63188 7.91362 1.3806C7.30699 1.12933 6.65681 1 6.0002 1V6H11.0002Z" stroke="#FE7B47" stroke-linecap="round" stroke-linejoin="round"/>
</g>
<defs>
<clipPath id="clip0_10746_1331">
<rect width="12" height="12" fill="white"/>
</clipPath>
</defs>
</svg>
