<svg width="12" height="12" viewBox="0 0 12 12" fill="none" xmlns="http://www.w3.org/2000/svg">
<path d="M9.80391 1.875H7.21406C7.03828 1.875 6.89297 2.01797 6.89297 2.19609V2.20078C6.89297 2.37656 7.03594 2.52187 7.21406 2.52187H9.00703L2.52187 9.00703V7.21406C2.52187 7.03828 2.37891 6.89297 2.20078 6.89297H2.19609C2.02031 6.89297 1.875 7.03594 1.875 7.21406V9.80391C1.875 9.97969 2.01797 10.125 2.19609 10.125H4.78594C4.96172 10.125 5.10703 9.98203 5.10703 9.80391V9.79922C5.10703 9.62344 4.96406 9.47812 4.78594 9.47812H2.99297L9.47812 2.99297V4.78594C9.47812 4.96172 9.62109 5.10703 9.79922 5.10703H9.80391C9.97969 5.10703 10.125 4.96406 10.125 4.78594V2.19609C10.125 2.01797 9.98203 1.875 9.80391 1.875Z" fill="white"/>
</svg>
