<svg width="12" height="12" viewBox="0 0 12 12" fill="none" xmlns="http://www.w3.org/2000/svg">
<path d="M6 7V8C4.34315 8 3 9.34315 3 11H2C2 8.79085 3.79086 7 6 7ZM6 6.5C4.3425 6.5 3 5.1575 3 3.5C3 1.8425 4.3425 0.5 6 0.5C7.6575 0.5 9 1.8425 9 3.5C9 5.1575 7.6575 6.5 6 6.5ZM6 5.5C7.105 5.5 8 4.605 8 3.5C8 2.395 7.105 1.5 6 1.5C4.895 1.5 4 2.395 4 3.5C4 4.605 4.895 5.5 6 5.5ZM10.7231 10.016L11.4748 10.7677L10.7677 11.4748L10.016 10.7231C9.71825 10.899 9.3709 11 9 11C7.89545 11 7 10.1046 7 9C7 7.89545 7.89545 7 9 7C10.1046 7 11 7.89545 11 9C11 9.3709 10.899 9.71825 10.7231 10.016ZM9 10C9.5523 10 10 9.5523 10 9C10 8.4477 9.5523 8 9 8C8.4477 8 8 8.4477 8 9C8 9.5523 8.4477 10 9 10Z" fill="white"/>
</svg>
