<svg width="12" height="12" viewBox="0 0 12 12" fill="none" xmlns="http://www.w3.org/2000/svg">
<g clip-path="url(#clip0_8744_207)">
<path d="M5.0791 0.123047C7.63119 0.252459 9.66096 2.36305 9.66113 4.94727L9.6543 5.19629C9.60069 6.25321 9.20612 7.21954 8.58008 7.99023L11.6191 11.0293L11.6836 11.1074C11.8115 11.3015 11.7899 11.5656 11.6191 11.7363C11.4484 11.9071 11.1843 11.9287 10.9902 11.8008L10.9121 11.7363L7.87305 8.69727C7.04227 9.37237 5.98394 9.77832 4.83008 9.77832L4.58203 9.77148C2.11206 9.64637 0.131107 7.66622 0.00585938 5.19629L0 4.94727C0.000182694 2.27977 2.16258 0.11737 4.83008 0.117188L5.0791 0.123047ZM4.83008 1.11719C2.71487 1.11737 1.00018 2.83205 1 4.94727C1 7.06263 2.71475 8.77814 4.83008 8.77832C5.80855 8.77832 6.70075 8.41049 7.37793 7.80664C7.40179 7.73625 7.43998 7.6694 7.49609 7.61328C7.55221 7.55717 7.61906 7.51898 7.68945 7.49512C8.29331 6.81794 8.66113 5.92574 8.66113 4.94727C8.66095 2.83194 6.94545 1.11719 4.83008 1.11719Z" fill="#E3E7EA"/>
</g>
<defs>
<clipPath id="clip0_8744_207">
<rect width="12" height="12" fill="white"/>
</clipPath>
</defs>
</svg>
