<svg width="16" height="16" viewBox="0 0 16 16" fill="none" xmlns="http://www.w3.org/2000/svg">
<path d="M11 2.5C11 1.11929 12.1193 0 13.5 0C14.8807 0 16 1.11929 16 2.5C16 3.88071 14.8807 5 13.5 5C12.7411 5 12.0611 4.66182 11.6026 4.12792L4.88498 7.2482C4.95971 7.48549 5 7.73804 5 8C5 8.26196 4.95971 8.51451 4.88498 8.7518L11.6026 11.8721C12.0611 11.3382 12.7411 11 13.5 11C14.8807 11 16 12.1193 16 13.5C16 14.8807 14.8807 16 13.5 16C12.1193 16 11 14.8807 11 13.5C11 13.238 11.0403 12.9855 11.115 12.7482L4.39739 9.62792C3.93889 10.1618 3.25894 10.5 2.5 10.5C1.11929 10.5 0 9.38071 0 8C0 6.61929 1.11929 5.5 2.5 5.5C3.25894 5.5 3.93889 5.83818 4.39739 6.37208L11.115 3.2518C11.0403 3.01451 11 2.76196 11 2.5Z" fill="white"/>
</svg>
