<svg width="12" height="12" viewBox="0 0 12 12" fill="none" xmlns="http://www.w3.org/2000/svg">
<g clip-path="url(#clip0_8109_167)">
<path d="M11.5153 3.26528C11.4805 3.30014 11.4391 3.3278 11.3936 3.34667C11.3481 3.36555 11.2993 3.37526 11.25 3.37526C11.2007 3.37526 11.1519 3.36555 11.1064 3.34667C11.0609 3.3278 11.0195 3.30014 10.9847 3.26528L10.125 2.40512L6.79688 5.73325L6.26532 5.20309L9.59344 1.87496L8.73469 1.01528C8.69985 0.980436 8.67221 0.939073 8.65336 0.89355C8.6345 0.848028 8.62479 0.799237 8.62479 0.749964C8.62479 0.700691 8.6345 0.651901 8.65336 0.606378C8.67221 0.560856 8.69985 0.519493 8.73469 0.484652C8.80506 0.414287 8.90049 0.374756 9 0.374756C9.04928 0.374756 9.09807 0.384461 9.14359 0.403317C9.18911 0.422173 9.23047 0.449811 9.26532 0.484652L11.5153 2.73465C11.5502 2.76948 11.5778 2.81084 11.5967 2.85636C11.6156 2.90189 11.6253 2.95068 11.6253 2.99996C11.6253 3.04925 11.6156 3.09804 11.5967 3.14357C11.5778 3.18909 11.5502 3.23045 11.5153 3.26528ZM4.125 8.24996C4.05079 8.25002 3.97823 8.22806 3.91651 8.18686C3.85479 8.14566 3.80668 8.08707 3.77827 8.01851C3.74986 7.94995 3.74244 7.87451 3.75693 7.80172C3.77142 7.72894 3.80719 7.6621 3.85969 7.60965L6.26532 5.20309L4.65516 3.59434C4.51452 3.45379 4.32383 3.37484 4.125 3.37484C3.92618 3.37484 3.73549 3.45379 3.59485 3.59434L0.969847 6.21934C0.899907 6.28883 0.84446 6.37152 0.806722 6.46261C0.768983 6.5537 0.749704 6.65137 0.750003 6.74996V10.5C0.750003 10.6989 0.829021 10.8896 0.969673 11.0303C1.11033 11.1709 1.30109 11.25 1.5 11.25H5.25C5.34853 11.2503 5.44614 11.231 5.53715 11.1933C5.62816 11.1555 5.71077 11.1001 5.78016 11.0301L8.40516 8.40512C8.54571 8.26448 8.62466 8.07379 8.62466 7.87496C8.62466 7.67614 8.54571 7.48545 8.40516 7.34481L6.79688 5.73465L4.39032 8.14028C4.35546 8.17509 4.3141 8.2027 4.26857 8.22152C4.22305 8.24034 4.17426 8.25 4.125 8.24996Z" fill="white"/>
</g>
<defs>
<clipPath id="clip0_8109_167">
<rect width="12" height="12" fill="white"/>
</clipPath>
</defs>
</svg>
