<svg width="99" height="12" viewBox="0 0 99 12" fill="none" xmlns="http://www.w3.org/2000/svg">
<mask id="mask0_4838_114" style="mask-type:luminance" maskUnits="userSpaceOnUse" x="0" y="0" width="99" height="12">
<path d="M98.7377 0H0V11.1646H98.7377V0Z" fill="white"/>
</mask>
<g mask="url(#mask0_4838_114)">
<path d="M29.1142 4.46582H21.9165V2.23291H30.9774V0H21.9001C21.2694 0 20.6649 0.233631 20.2193 0.649458C19.7734 1.06531 19.5229 1.62931 19.5229 2.21741V4.48132C19.5229 5.06943 19.7734 5.63342 20.2193 6.04928C20.6649 6.4651 21.2694 6.69873 21.9001 6.69873H29.0975V8.93165H19.6942V11.1646H29.1142C29.7445 11.1646 30.3491 10.9309 30.795 10.5151C31.2408 10.0992 31.4912 9.53525 31.4912 8.94714V6.68324C31.4912 6.09513 31.2408 5.53113 30.795 5.11528C30.3491 4.69945 29.7445 4.46582 29.1142 4.46582Z" fill="white"/>
<path d="M43.052 0H35.828C35.5159 0 35.2067 0.0573644 34.9184 0.168824C34.6301 0.280283 34.3682 0.443632 34.1478 0.649565C33.9271 0.855471 33.7522 1.09995 33.6329 1.36896C33.5138 1.63797 33.4524 1.92628 33.4526 2.21741V8.94714C33.4524 9.23827 33.5138 9.52658 33.6329 9.7956C33.7522 10.0646 33.9271 10.3091 34.1478 10.515C34.3682 10.7209 34.6301 10.8843 34.9184 10.9957C35.2067 11.1072 35.5159 11.1646 35.828 11.1646H43.052C43.6826 11.1646 44.2872 10.9309 44.7328 10.5151C45.1787 10.0992 45.429 9.53525 45.429 8.94714V2.21741C45.429 1.62931 45.1787 1.06531 44.7328 0.649458C44.2872 0.233631 43.6826 0 43.052 0ZM43.0353 8.93165H35.8546V2.23291H43.0353V8.93165Z" fill="white"/>
<path d="M68.3353 5.90465e-07H61.2906C60.66 5.90465e-07 60.0554 0.233605 59.6098 0.649459C59.164 1.06531 58.9136 1.62931 58.9136 2.21741V11.1646H61.307V7.49575H68.3186V11.1646H70.7123V2.21741C70.7123 1.92615 70.6512 1.63771 70.5318 1.36859C70.4124 1.09947 70.2373 0.854966 70.0163 0.649007C69.7957 0.443074 69.5337 0.279726 69.2451 0.168373C68.9565 0.0570196 68.6473 -0.000212068 68.3353 5.90465e-07ZM68.3186 5.26284H61.307V2.23291H68.3186V5.26284Z" fill="white"/>
<path d="M96.3603 4.87412e-06H89.3174C89.0048 -0.000606518 88.6953 0.0563061 88.4061 0.167447C88.1173 0.278614 87.8547 0.441856 87.6335 0.647815C87.4123 0.853801 87.2366 1.09844 87.1169 1.36777C86.9972 1.6371 86.9355 1.92584 86.9355 2.21742V11.1646H89.329V7.49576H96.3439V11.1646H98.7374V2.21742C98.7374 1.62931 98.487 1.06532 98.0411 0.649463C97.5955 0.233636 96.991 4.87412e-06 96.3603 4.87412e-06ZM96.3439 5.26285H89.3341V2.23292H96.3439V5.26285Z" fill="white"/>
<path d="M82.4158 8.93165H81.4584L78.0274 0.93038C77.91 0.655838 77.7072 0.420452 77.4449 0.254605C77.1827 0.0887582 76.8731 5.31646e-05 76.5563 0H74.4254C74.0052 0 73.6023 0.155693 73.3053 0.432813C73.0082 0.70996 72.8413 1.08583 72.8413 1.47776V11.1646H75.2348V2.23291H76.1925L79.6217 10.2342C79.7385 10.5087 79.9411 10.7442 80.2031 10.9101C80.4651 11.0759 80.7743 11.1646 81.0909 11.1646H83.2221C83.6422 11.1646 84.0451 11.0089 84.3421 10.7317C84.6392 10.4546 84.8061 10.0787 84.8061 9.6868V0H82.4124L82.4158 8.93165Z" fill="white"/>
<path d="M49.944 0H47.5503V8.94714C47.5503 9.53525 47.8007 10.0992 48.2465 10.5151C48.6924 10.9309 49.297 11.1646 49.9274 11.1646H57.125V8.93165H49.944V0Z" fill="white"/>
<path fill-rule="evenodd" clip-rule="evenodd" d="M2.53305 8.51298C2.57555 8.47005 2.62689 8.43554 2.68402 8.41156C2.74116 8.38759 2.80287 8.37461 2.86551 8.37342H13.3111C13.3553 8.374 13.3984 8.38647 13.4351 8.40936C13.4719 8.43224 13.5008 8.46454 13.5184 8.50237C13.5359 8.54022 13.5414 8.58198 13.5341 8.62265C13.5268 8.66332 13.5071 8.70115 13.4773 8.73161L11.2632 11.025C11.2207 11.0679 11.1694 11.1024 11.1122 11.1264C11.0551 11.1504 10.9934 11.1634 10.9308 11.1646H0.478514C0.434322 11.164 0.391234 11.1515 0.354483 11.1286C0.317704 11.1057 0.28879 11.0734 0.271221 11.0356C0.25368 10.9978 0.24822 10.956 0.255491 10.9153C0.262762 10.8747 0.28251 10.8368 0.312301 10.8064L2.53305 8.51298ZM13.4873 6.61189C13.5171 6.64235 13.5368 6.68021 13.5441 6.72088C13.5514 6.76155 13.5459 6.80331 13.5284 6.84114C13.5108 6.87899 13.4819 6.91129 13.4451 6.93415C13.4084 6.95704 13.3653 6.9695 13.3211 6.97009L2.87215 6.97785C2.80952 6.97665 2.74781 6.96368 2.69066 6.9397C2.63354 6.91573 2.58219 6.88122 2.5397 6.83829L0.308962 4.55267C0.279171 4.5222 0.259452 4.48435 0.252152 4.44368C0.244882 4.40301 0.250342 4.36125 0.267911 4.32342C0.28548 4.28557 0.314366 4.25327 0.351145 4.23041C0.387924 4.20752 0.430984 4.19506 0.475176 4.19447L10.9241 4.18671C10.9867 4.18791 11.0485 4.20088 11.1056 4.22485C11.1627 4.24883 11.2141 4.28334 11.2565 4.32627L13.4873 6.61189ZM2.53305 0.139557C2.57555 0.0966265 2.62689 0.0621226 2.68402 0.0381454C2.74116 0.0141682 2.80287 0.0011962 2.86551 0L13.3178 0.00776192C13.362 0.00834673 13.405 0.020814 13.4418 0.0437013C13.4786 0.0665621 13.5075 0.0988593 13.525 0.136713C13.5426 0.174539 13.5481 0.2163 13.5408 0.256971C13.5335 0.297642 13.5138 0.335495 13.484 0.365958L11.2632 2.65158C11.2207 2.69451 11.1694 2.72902 11.1122 2.75299C11.0551 2.77697 10.9934 2.78994 10.9308 2.79114H0.478514C0.434322 2.79055 0.391234 2.77809 0.354483 2.7552C0.317704 2.73231 0.28879 2.70002 0.271221 2.66219C0.25368 2.62434 0.24822 2.58258 0.255491 2.5419C0.262762 2.50123 0.28251 2.46341 0.312301 2.43294L2.53305 0.139557Z" fill="#14F195"/>
</g>
</svg>
