<svg width="44" height="42" viewBox="0 0 44 42" fill="none" xmlns="http://www.w3.org/2000/svg">
<g clip-path="url(#clip0_4838_64)">
<path fill-rule="evenodd" clip-rule="evenodd" d="M22.4002 0C34.1086 0 43.6002 9.49156 43.6002 21.2C43.6002 21.7346 43.5046 22.7037 43.3134 24.1073C43.2593 24.5037 42.9208 24.7993 42.5208 24.7993L36.2002 24.8C35.8688 24.8 35.6002 25.0686 35.6002 25.4C35.6002 25.7119 35.8381 25.9682 36.1424 25.9973L36.2002 26L42.4166 25.9993C42.6756 25.9992 42.8857 26.2092 42.8857 26.4683C42.8857 26.5007 42.8824 26.533 42.8757 26.5647C42.798 26.9351 42.4713 27.2004 42.0928 27.2004H2.70763C2.37595 27.2004 2.10706 26.9315 2.10706 26.5998C2.10706 26.2682 2.37595 25.9993 2.70763 25.9993C2.70761 25.9993 2.70764 25.9993 2.70763 25.9993L11.4002 26C11.7316 26 12.0002 25.7314 12.0002 25.4C12.0002 25.0881 11.7622 24.8318 11.458 24.8027L11.4002 24.8L2.19134 24.7993C1.84163 24.7992 1.54396 24.5447 1.48965 24.1992C1.44511 23.9159 1.63865 23.6502 1.92193 23.6057C1.94864 23.6015 1.97564 23.5993 2.00268 23.5993L5.4002 23.6C5.73157 23.6 6.0002 23.3314 6.0002 23C6.0002 22.6881 5.76224 22.4318 5.45798 22.4027L5.4002 22.4L2.01159 22.3996C1.58404 22.3996 1.2321 22.0633 1.21255 21.6362C1.20431 21.4563 1.2002 21.3109 1.2002 21.2C1.2002 9.49156 10.6918 0 22.4002 0ZM40.2002 22.4H35.8002C35.4688 22.4 35.2002 22.6686 35.2002 23C35.2002 23.3119 35.4382 23.5682 35.7424 23.5973L35.8002 23.6H40.2002C40.5316 23.6 40.8002 23.3314 40.8002 23C40.8002 22.6881 40.5622 22.4318 40.258 22.4027L40.2002 22.4Z" fill="url(#paint0_linear_4838_64)"/>
<path fill-rule="evenodd" clip-rule="evenodd" d="M27 35.6C27.3314 35.6 27.6 35.8687 27.6 36.2C27.6 36.5314 27.3314 36.8 27 36.8H11.4C11.0686 36.8 10.8 36.5314 10.8 36.2C10.8 35.8687 11.0686 35.6 11.4 35.6H27ZM39 33.2C39.3314 33.2 39.6 33.4687 39.6 33.8C39.6 34.1314 39.3314 34.4 39 34.4H31.4C31.0686 34.4 30.8 34.1314 30.8 33.8C30.8 33.4687 31.0686 33.2 31.4 33.2H39ZM25.8 33.2C26.1314 33.2 26.4 33.4687 26.4 33.8C26.4 34.1314 26.1314 34.4 25.8 34.4H5C4.66863 34.4 4.4 34.1314 4.4 33.8C4.4 33.4687 4.66863 33.2 5 33.2H25.8ZM8.2 30.8C8.53137 30.8 8.8 31.0687 8.8 31.4C8.8 31.7314 8.53137 32 8.2 32H0.6C0.268629 32 0 31.7314 0 31.4C0 31.0687 0.268629 30.8 0.6 30.8H8.2ZM28.2 30.8C28.5314 30.8 28.8 31.0687 28.8 31.4C28.8 31.7314 28.5314 32 28.2 32H15C14.6686 32 14.4 31.7314 14.4 31.4C14.4 31.0687 14.6686 30.8 15 30.8H28.2ZM43.4 30.8C43.7314 30.8 44 31.0687 44 31.4C44 31.7314 43.7314 32 43.4 32H35.8C35.4686 32 35.2 31.7314 35.2 31.4C35.2 31.0687 35.4686 30.8 35.8 30.8H43.4ZM12.6 30.8C12.9314 30.8 13.2 31.0687 13.2 31.4C13.2 31.7314 12.9314 32 12.6 32H10.6C10.2686 32 10 31.7314 10 31.4C10 31.0687 10.2686 30.8 10.6 30.8H12.6ZM33 30.8C33.3314 30.8 33.6 31.0687 33.6 31.4C33.6 31.7314 33.3314 32 33 32H31C30.6686 32 30.4 31.7314 30.4 31.4C30.4 31.0687 30.6686 30.8 31 30.8H33ZM41.4 28.4C41.7314 28.4 42 28.6687 42 29C42 29.3314 41.7314 29.6 41.4 29.6H2.6C2.26863 29.6 2 29.3314 2 29C2 28.6687 2.26863 28.4 2.6 28.4H41.4Z" fill="url(#paint1_linear_4838_64)"/>
<path d="M28.6001 38H18.2001C17.8687 38 17.6001 38.2686 17.6001 38.6C17.6001 38.9314 17.8687 39.2 18.2001 39.2H28.6001C28.9315 39.2 29.2001 38.9314 29.2001 38.6C29.2001 38.2686 28.9315 38 28.6001 38Z" fill="url(#paint2_linear_4838_64)"/>
<path d="M24.6 40.4H20.6C20.2686 40.4 20 40.6687 20 41C20 41.3314 20.2686 41.6 20.6 41.6H24.6C24.9314 41.6 25.2 41.3314 25.2 41C25.2 40.6687 24.9314 40.4 24.6 40.4Z" fill="url(#paint3_linear_4838_64)"/>
</g>
<defs>
<linearGradient id="paint0_linear_4838_64" x1="2121.2" y1="-351.375" x2="2121.2" y2="4282.51" gradientUnits="userSpaceOnUse">
<stop stop-color="#F7C300"/>
<stop offset="1" stop-color="#FA006A"/>
</linearGradient>
<linearGradient id="paint1_linear_4838_64" x1="2200" y1="-3218.44" x2="2200" y2="5001.07" gradientUnits="userSpaceOnUse">
<stop stop-color="#F7C300"/>
<stop offset="1" stop-color="#FA006A"/>
</linearGradient>
<linearGradient id="paint2_linear_4838_64" x1="597.6" y1="-425.834" x2="597.6" y2="748.381" gradientUnits="userSpaceOnUse">
<stop stop-color="#F7C300"/>
<stop offset="1" stop-color="#FA006A"/>
</linearGradient>
<linearGradient id="paint3_linear_4838_64" x1="280" y1="-423.432" x2="280" y2="750.779" gradientUnits="userSpaceOnUse">
<stop stop-color="#F7C300"/>
<stop offset="1" stop-color="#FA006A"/>
</linearGradient>
<clipPath id="clip0_4838_64">
<rect width="44" height="42" fill="white"/>
</clipPath>
</defs>
</svg>
