<svg width="17" height="25" viewBox="0 0 17 25" fill="none" xmlns="http://www.w3.org/2000/svg">
<path d="M0 12.3292C0.022332 9.0903 1.33155 5.98999 3.63972 3.70534C5.9491 1.42067 9.0717 0.136123 12.3283 0.130249H13.2309V2.07998H12.3412C9.60176 2.08115 6.97389 3.15885 5.02889 5.07802C3.08383 6.99722 1.98028 9.60273 1.95796 12.3281H0V12.3292Z" fill="#9C7CFF"/>
<path d="M3.76074 24.6681V22.7184H4.66333C7.40282 22.7149 10.0295 21.636 11.9722 19.7157C13.9148 17.7953 15.0172 15.1898 15.0383 12.4656H16.9999C16.9775 15.7057 15.6683 18.8072 13.3578 21.0919C11.0472 23.3766 7.9223 24.6611 4.66453 24.6646L3.76074 24.6681Z" fill="#9C7CFF"/>
<path d="M3.76074 20.9273V18.9776H4.66333C6.40504 18.9753 8.07623 18.2913 9.31496 17.0726C10.5536 15.8538 11.2588 14.199 11.2788 12.4656H13.2391C13.2179 14.715 12.3048 16.8646 10.6994 18.4476C9.09397 20.0307 6.92452 20.9203 4.66333 20.9227L3.76074 20.9273Z" fill="#9C7CFF"/>
<path d="M3.76074 12.3293C3.7819 10.0787 4.69506 7.92681 6.30159 6.34263C7.90933 4.75839 10.08 3.86873 12.3424 3.86755H13.245V5.8173H12.3424C10.5995 5.8173 8.92593 6.50129 7.68608 7.71999C6.44615 8.93869 5.73987 10.5947 5.71985 12.3293H3.76074Z" fill="#9C7CFF"/>
<path d="M3.75732 17.1878V15.238H4.6599C5.40502 15.238 6.12075 14.9477 6.65313 14.4295C7.18672 13.9112 7.49458 13.2072 7.51341 12.4668V12.3951C7.51574 11.1235 8.02584 9.90595 8.93075 9.00921C9.83567 8.11135 11.0615 7.60837 12.3401 7.6095H13.2427V9.55923H12.3401C11.5939 9.5581 10.877 9.84721 10.3422 10.3655C9.80746 10.8838 9.49839 11.5889 9.47957 12.3304V12.4022C9.47844 13.6726 8.97073 14.8901 8.06695 15.7881C7.16436 16.6859 5.93974 17.1913 4.66229 17.1924L3.75732 17.1878Z" fill="#9C7CFF"/>
</svg>
