<svg width="42" height="43" viewBox="0 0 42 43" fill="none" xmlns="http://www.w3.org/2000/svg">
<path d="M21.0708 12.7112C25.6971 12.7532 29.3484 16.492 29.283 21.1167C29.2173 25.7431 25.4465 29.3928 20.8385 29.2903C16.2829 29.1895 12.7104 25.5314 12.7222 20.9807C12.734 16.3575 16.456 12.6691 21.0708 12.7112Z" fill="#C74AE3"/>
<path d="M31.831 38.698C24.6038 44.518 11.6896 42.4352 5.0004 34.6028C-2.35784 25.9871 -1.49861 13.0611 6.94057 5.407C15.277 -2.15296 28.1745 -1.73603 36.037 6.34842C43.6693 14.1958 44.0073 27.2159 36.8642 34.5642C35.1965 32.8174 33.5271 31.0674 31.7771 29.2349C34.4854 25.4491 35.3244 21.117 33.7055 16.4654C31.288 9.52067 23.6306 5.85587 16.6472 8.22287C9.74627 10.5613 5.96891 17.99 8.12395 24.9834C10.3026 32.0543 17.6929 36.0704 24.7856 33.8917C26.1975 33.4581 26.9811 33.7118 27.8939 34.7625C29.1009 36.1545 30.4979 37.3817 31.831 38.698Z" fill="#00E8B4"/>
</svg>
