<svg width="14" height="14" viewBox="0 0 14 14" fill="none" xmlns="http://www.w3.org/2000/svg">
<path d="M3.0625 10.9375C3.0625 11.1791 2.86662 11.375 2.625 11.375C2.38338 11.375 2.1875 11.1791 2.1875 10.9375L2.1875 3.24372L1.18436 4.24686C1.01351 4.41771 0.736495 4.41771 0.565641 4.24686C0.394786 4.07601 0.394786 3.799 0.565641 3.62814L2.31492 1.87887L2.3214 1.87248C2.36199 1.83334 2.40828 1.80358 2.45753 1.7832C2.50912 1.76181 2.56568 1.75 2.625 1.75C2.68432 1.75 2.74088 1.76181 2.79247 1.7832C2.84407 1.80455 2.89241 1.83619 2.93436 1.87814L4.68436 3.62814C4.85521 3.799 4.85521 4.07601 4.68436 4.24686C4.5135 4.41771 4.2365 4.41771 4.06564 4.24686L3.0625 3.24372L3.0625 10.9375Z" fill="white"/>
<path d="M6.125 3.0625C6.125 2.82088 6.32088 2.625 6.5625 2.625H12.6875C12.9291 2.625 13.125 2.82088 13.125 3.0625C13.125 3.30412 12.9291 3.5 12.6875 3.5H6.5625C6.32088 3.5 6.125 3.30412 6.125 3.0625Z" fill="white"/>
<path d="M6.5625 5.25C6.32088 5.25 6.125 5.44588 6.125 5.6875C6.125 5.92912 6.32088 6.125 6.5625 6.125H10.9375C11.1791 6.125 11.375 5.92912 11.375 5.6875C11.375 5.44588 11.1791 5.25 10.9375 5.25H6.5625Z" fill="white"/>
<path d="M6.5625 7.875C6.32088 7.875 6.125 8.07088 6.125 8.3125C6.125 8.55412 6.32088 8.75 6.5625 8.75H9.1875C9.42912 8.75 9.625 8.55412 9.625 8.3125C9.625 8.07088 9.42912 7.875 9.1875 7.875H6.5625Z" fill="white"/>
<path d="M6.5625 10.5C6.32088 10.5 6.125 10.6959 6.125 10.9375C6.125 11.1791 6.32088 11.375 6.5625 11.375H7.4375C7.67912 11.375 7.875 11.1791 7.875 10.9375C7.875 10.6959 7.67912 10.5 7.4375 10.5H6.5625Z" fill="white"/>
</svg>
