<svg width="12" height="12" viewBox="0 0 12 12" fill="none" xmlns="http://www.w3.org/2000/svg">
<path d="M3.75009 4.68652C3.75009 4.99718 3.49825 5.24902 3.18759 5.24902C2.87693 5.24902 2.62509 4.99718 2.62509 4.68652C2.62509 4.37586 2.87693 4.12402 3.18759 4.12402C3.49825 4.12402 3.75009 4.37586 3.75009 4.68652Z" fill="white"/>
<path d="M4.60367 3.56419C5.03171 3.44119 5.49245 3.37402 5.97329 3.37402C6.47279 3.37402 6.95061 3.44651 7.3926 3.57876C7.59102 3.63813 7.8 3.52541 7.85936 3.327C7.91873 3.12858 7.80601 2.91961 7.6076 2.86024C7.09559 2.70704 6.54533 2.62402 5.97329 2.62402C5.42262 2.62402 4.89214 2.70095 4.39654 2.84336C4.19749 2.90055 4.08249 3.10829 4.13969 3.30734C4.19688 3.50639 4.40461 3.62139 4.60367 3.56419Z" fill="white"/>
<path fill-rule="evenodd" clip-rule="evenodd" d="M5.97335 1.14453C3.74014 1.14453 1.79465 2.4223 1.23277 4.23828H0.821001C0.355406 4.23828 0.00231637 4.65808 0.082092 5.11679L0.272614 6.21229C0.366329 6.75115 0.834027 7.14453 1.38098 7.14453H1.57803C1.80255 7.52927 2.09396 7.87801 2.43719 8.1809L1.89041 10.0387C1.85704 10.152 1.87908 10.2745 1.94988 10.3692C2.02068 10.4638 2.13196 10.5195 2.25015 10.5195H3.75015C3.90871 10.5195 4.05013 10.4198 4.10338 10.2705L4.46477 9.25681C4.94076 9.38698 5.44787 9.45703 5.97335 9.45703C6.5032 9.45703 7.01439 9.38581 7.49381 9.25355L7.90152 10.2827C7.95816 10.4256 8.09636 10.5195 8.25015 10.5195H9.75015C9.86893 10.5195 9.98069 10.4633 10.0514 10.3678C10.1221 10.2724 10.1435 10.1491 10.1089 10.0355L9.53765 8.15583C10.3575 7.41998 10.8751 6.41807 10.8751 5.30078C10.8751 5.19172 10.8703 5.08384 10.8608 4.97728C11.0561 4.89484 11.241 4.778 11.3889 4.64435C11.6251 4.87402 12.0001 4.87402 12.0001 4.33207C12.0001 4.49902 11.6251 4.49902 11.6542 4.31206C11.6854 4.25103 11.7089 4.18705 11.7214 4.12092C11.754 3.94927 11.7096 3.77642 11.5702 3.63698C11.4076 3.47442 11.1967 3.4786 11.0402 3.56395C10.8928 3.64433 10.7771 3.80236 10.7588 3.98529C10.7406 4.16731 10.8206 4.34554 10.9989 4.47555C10.9382 4.51771 10.8728 4.55649 10.8049 4.59037C10.4044 2.59246 8.34186 1.14453 5.97335 1.14453ZM1.88747 4.69382C2.22818 3.14444 3.88744 1.89453 5.97335 1.89453C8.33233 1.89453 10.1251 3.47993 10.1251 5.30078C10.1251 6.24164 9.65718 7.10792 8.87272 7.73675C8.75309 7.83265 8.70388 7.99171 8.74847 8.1384L9.24424 9.76953H8.50495L8.06305 8.65411C7.98902 8.46726 7.78085 8.37199 7.59105 8.4381C7.09498 8.61091 6.54856 8.70703 5.97335 8.70703C5.39813 8.70703 4.85171 8.61091 4.35564 8.4381C4.16107 8.37033 3.94825 8.47223 3.87906 8.6663L3.48573 9.76953H2.75143L3.22613 8.15666C3.26939 8.00969 3.21889 7.85119 3.0986 7.75632C2.68367 7.42911 2.35507 7.0352 2.13548 6.60046C2.07169 6.47417 1.94225 6.39453 1.80076 6.39453H1.38098C1.19866 6.39453 1.04276 6.2634 1.01152 6.08378L0.821001 4.98828H1.52122C1.69729 4.98828 1.84965 4.86578 1.88747 4.69382ZM11.353 4.05104C11.3445 4.09552 11.3209 4.14935 11.2792 4.20893C11.2674 4.20273 11.2563 4.19647 11.2461 4.19016C11.1372 4.12281 11.1284 4.05875 11.132 4.02261C11.1371 3.97117 11.1738 3.91826 11.2198 3.89316C11.2566 3.87305 11.2801 3.87722 11.305 3.90215C11.3531 3.95022 11.3634 3.99612 11.353 4.05104Z" fill="white"/>
</svg>
