<svg width="12" height="12" viewBox="0 0 12 12" fill="none" xmlns="http://www.w3.org/2000/svg">
<path fill-rule="evenodd" clip-rule="evenodd" d="M0 0H0.75V11.25H12V12H0V0ZM7.5 2.625C7.5 2.41789 7.66789 2.25 7.875 2.25H10.875C11.0821 2.25 11.25 2.41789 11.25 2.625V5.625C11.25 5.83211 11.0821 6 10.875 6C10.6679 6 10.5 5.83211 10.5 5.625V3.67553L7.79023 6.98746C7.72314 7.06946 7.6245 7.11926 7.51868 7.12453C7.41286 7.12981 7.30975 7.09008 7.23483 7.01517L5.29515 5.07548L2.55328 8.84556C2.43146 9.01306 2.19693 9.05009 2.02944 8.92828C1.86194 8.80646 1.82491 8.57193 1.94672 8.40444L4.94672 4.27944C5.01123 4.19074 5.11133 4.13473 5.22067 4.12615C5.33 4.11757 5.43762 4.15729 5.51516 4.23484L7.47216 6.19183L10.0837 3H7.875C7.66789 3 7.5 2.83211 7.5 2.625Z" fill="white"/>
</svg>
