<svg width="20" height="21" viewBox="0 0 20 21" fill="none" xmlns="http://www.w3.org/2000/svg">
<g opacity="0.5">
<path d="M3.89006 5.0566C3.78277 3.95491 4.64862 3 5.75625 3L8.75007 3.00002C9.09524 3.00002 9.37506 3.27985 9.37506 3.62502V4.10257C9.37506 4.97228 8.75347 5.58029 8.28533 5.93868C8.20419 6.00081 8.16166 6.0528 8.14148 6.08617C8.13184 6.10213 8.12796 6.11268 8.12644 6.11778C8.12504 6.12251 8.12506 6.12446 8.12506 6.12503C8.12506 6.12569 8.1251 6.12666 8.12546 6.12843C8.12584 6.13028 8.1268 6.13414 8.12929 6.14022C8.13434 6.15256 8.14642 6.17569 8.17369 6.20794C8.2307 6.27532 8.33768 6.36284 8.5118 6.4499C8.86039 6.62419 9.3857 6.75003 10.0001 6.75003C10.6144 6.75003 11.1397 6.62419 11.4883 6.4499C11.6624 6.36284 11.7694 6.27532 11.8264 6.20794C11.8537 6.17569 11.8658 6.15256 11.8708 6.14022C11.8733 6.13414 11.8743 6.13028 11.8747 6.12843C11.875 6.12666 11.8751 6.12569 11.8751 6.12503C11.8751 6.12446 11.8751 6.12251 11.8737 6.11778C11.8722 6.11268 11.8683 6.10213 11.8586 6.08617C11.8385 6.0528 11.7959 6.00081 11.7148 5.93868C11.2467 5.58029 10.6251 4.97228 10.6251 4.10257V3.62502C10.6251 3.27984 10.9049 3.00002 11.2501 3.00002H14.2438C15.3514 3.00002 16.2172 3.95493 16.1099 5.05662L15.8056 8.62499H16.1025C16.346 8.62499 16.6278 8.44117 16.9461 8.0254C17.2085 7.68263 17.6065 7.37499 18.125 7.37499C18.8344 7.37499 19.3085 7.93386 19.5679 8.45272C19.846 9.00895 20 9.73365 20 10.5C20 11.2663 19.846 11.991 19.5679 12.5473C19.3085 13.0661 18.8344 13.625 18.125 13.625C17.6065 13.625 17.2085 13.3174 16.9461 12.9746C16.6278 12.5588 16.346 12.375 16.1025 12.375H15.8056L16.1099 15.9434C16.2172 17.0451 15.3514 18 14.2438 18H11.2501C10.9049 18 10.6251 17.7202 10.6251 17.375V16.8975C10.6251 16.0277 11.2467 15.4197 11.7148 15.0613C11.7959 14.9992 11.8385 14.9472 11.8586 14.9139C11.8683 14.8979 11.8722 14.8873 11.8737 14.8822C11.8751 14.8775 11.8751 14.8756 11.8751 14.875C11.8751 14.8743 11.875 14.8734 11.8747 14.8716C11.8743 14.8697 11.8733 14.8659 11.8708 14.8598C11.8658 14.8475 11.8537 14.8243 11.8264 14.7921C11.7694 14.7247 11.6624 14.6372 11.4883 14.5501C11.1397 14.3758 10.6144 14.25 10.0001 14.25C9.3857 14.25 8.86039 14.3758 8.5118 14.5501C8.33768 14.6372 8.2307 14.7247 8.17369 14.7921C8.14642 14.8243 8.13434 14.8475 8.12929 14.8598C8.1268 14.8659 8.12584 14.8697 8.12546 14.8716C8.1251 14.8734 8.12506 14.8743 8.12506 14.875C8.12506 14.8756 8.12506 14.8776 8.12644 14.8822C8.12796 14.8873 8.13184 14.8979 8.14148 14.9139C8.16166 14.9472 8.20419 14.9992 8.28533 15.0613C8.75347 15.4197 9.37506 16.0277 9.37506 16.8975V17.375C9.37506 17.5408 9.30921 17.6997 9.192 17.8169C9.07479 17.9342 8.91582 18 8.75006 18L5.75624 18C4.64863 18 3.78278 17.0451 3.89006 15.9434L4.19443 12.375H3.89746C3.65399 12.375 3.37218 12.5588 3.05388 12.9746C2.79146 13.3173 2.39353 13.625 1.875 13.625C1.16555 13.625 0.691525 13.0661 0.432099 12.5472C0.153982 11.991 0 11.2663 0 10.5C0 9.73362 0.153982 9.00893 0.432099 8.45269C0.691525 7.93384 1.16555 7.37497 1.875 7.37497C2.39353 7.37497 2.79146 7.68261 3.05388 8.02538C3.37218 8.44114 3.65399 8.62497 3.89746 8.62497H4.19443L3.89006 5.0566ZM5.75624 4.25C5.38648 4.25 5.09755 4.56926 5.13434 4.93719L5.13525 4.94626L5.49775 9.19685C5.51262 9.37121 5.45371 9.54382 5.33535 9.67271C5.21698 9.8016 5.05 9.87497 4.87501 9.87497H3.89746C3.02775 9.87497 2.41975 9.25337 2.06135 8.78524C1.99923 8.70409 1.94723 8.66156 1.91386 8.64139C1.8979 8.63174 1.88735 8.62787 1.88225 8.62635C1.8776 8.62497 1.87563 8.62497 1.87503 8.62497C1.87436 8.62497 1.87337 8.62501 1.8716 8.62537C1.86975 8.62574 1.8659 8.6267 1.85981 8.62919C1.84747 8.63424 1.82434 8.64632 1.79209 8.6736C1.72471 8.73061 1.63719 8.83759 1.55013 9.01171C1.37584 9.3603 1.25 9.8856 1.25 10.5C1.25 11.1143 1.37584 11.6396 1.55013 11.9882C1.63719 12.1623 1.72471 12.2693 1.79209 12.3263C1.82434 12.3536 1.84747 12.3657 1.85981 12.3707C1.8659 12.3732 1.86975 12.3742 1.8716 12.3746C1.87337 12.3749 1.87434 12.375 1.875 12.375C1.8756 12.375 1.8776 12.375 1.88225 12.3736C1.88735 12.3721 1.8979 12.3682 1.91386 12.3585C1.94723 12.3384 1.99923 12.2958 2.06135 12.2147C2.41974 11.7466 3.02775 11.125 3.89746 11.125H4.87501C5.05 11.125 5.21698 11.1983 5.33535 11.3272C5.45371 11.4561 5.51262 11.6287 5.49775 11.8031L5.13441 16.0628C5.09762 16.4307 5.38648 16.75 5.75624 16.75L8.10354 16.75C8.04415 16.5422 7.8598 16.3098 7.52547 16.0539C7.1827 15.7914 6.87506 15.3935 6.87506 14.875C6.87506 14.1655 7.43394 13.6915 7.95279 13.4321C8.50902 13.154 9.23372 13 10.0001 13C10.7664 13 11.4911 13.154 12.0473 13.4321C12.5662 13.6915 13.1251 14.1655 13.1251 14.875C13.1251 15.3935 12.8174 15.7914 12.4746 16.0539C12.1403 16.3098 11.956 16.5422 11.8966 16.75H14.2438C14.6135 16.75 14.9024 16.4307 14.8657 16.0628L14.8647 16.0537L14.5023 11.8031C14.4874 11.6287 14.5463 11.4561 14.6647 11.3272C14.783 11.1984 14.95 11.125 15.125 11.125H16.1025C16.9723 11.125 17.5803 11.7466 17.9386 12.2147C18.0008 12.2959 18.0528 12.3384 18.0861 12.3586C18.1021 12.3682 18.1126 12.3721 18.1178 12.3736C18.1224 12.375 18.1244 12.375 18.125 12.375C18.1256 12.375 18.1266 12.3749 18.1284 12.3746C18.1302 12.3742 18.1341 12.3733 18.1402 12.3708C18.1525 12.3657 18.1757 12.3536 18.2079 12.3264C18.2753 12.2694 18.3628 12.1624 18.4499 11.9882C18.6242 11.6397 18.75 11.1144 18.75 10.5C18.75 9.88562 18.6242 9.36032 18.4499 9.01173C18.3628 8.83761 18.2753 8.73063 18.2079 8.67362C18.1757 8.64635 18.1525 8.63426 18.1402 8.62921C18.1341 8.62672 18.1302 8.62577 18.1284 8.62539C18.1266 8.62503 18.1257 8.62499 18.125 8.62499C18.1244 8.62499 18.1225 8.62497 18.1178 8.62637C18.1126 8.62789 18.1021 8.63177 18.0861 8.64141C18.0528 8.66159 18.0008 8.70412 17.9386 8.78526C17.5803 9.2534 16.9723 9.87499 16.1025 9.87499H15.125C14.95 9.87499 14.783 9.80163 14.6647 9.67274C14.5463 9.54384 14.4874 9.37123 14.5023 9.19687L14.8656 4.93721C14.9024 4.56928 14.6135 4.25002 14.2438 4.25002H11.8966C11.956 4.45783 12.1403 4.69019 12.4747 4.94615C12.8174 5.20857 13.1251 5.6065 13.1251 6.12503C13.1251 6.83448 12.5662 7.30851 12.0473 7.56793C11.4911 7.84605 10.7664 8.00003 10.0001 8.00003C9.23372 8.00003 8.50902 7.84605 7.95279 7.56793C7.43394 7.30851 6.87506 6.83448 6.87506 6.12503C6.87506 5.6065 7.1827 5.20857 7.52547 4.94615C7.85981 4.69019 8.04416 4.45782 8.10355 4.25002L5.75624 4.25Z" fill="white"/>
</g>
</svg>
