<svg width="12" height="12" viewBox="0 0 12 12" fill="none" xmlns="http://www.w3.org/2000/svg">
<path d="M6.00003 0L10.9574 2.25H11.625C11.8321 2.25 12 2.41789 12 2.625L12 4.125C12 4.33211 11.8321 4.5 11.625 4.5H11.25L11.25 9.75C11.4221 9.75 11.5721 9.86806 11.6138 10.035L11.9888 11.535C12.0168 11.647 11.9917 11.7665 11.9206 11.8575C11.8495 11.9485 11.7405 12 11.625 12H0.375026C0.259551 12 0.150515 11.9485 0.0794494 11.8575C0.00838425 11.7665 -0.016784 11.647 0.011223 11.535L0.386223 10.035C0.427957 9.86806 0.577951 9.75 0.750026 9.75L0.75 4.5H0.375C0.167893 4.5 0 4.33211 0 4.125L2.64645e-05 2.625C2.64645e-05 2.41789 0.16792 2.25 0.375026 2.25H1.04266L6.00003 0ZM2.83239 2.25H9.16766L6.00003 0.75L2.83239 2.25ZM1.5 4.5L1.50003 9.75H2.25003L2.25 4.5H1.5ZM3 4.5L3.00003 9.75H4.87503L4.875 4.5H3ZM5.625 4.5L5.62503 9.75H6.37503L6.375 4.5H5.625ZM7.125 4.5L7.12503 9.75H9.00003L9 4.5H7.125ZM9.75 4.5L9.75003 9.75H10.5V4.5H9.75ZM11.25 3.75V3H0.750026V3.75H11.25ZM10.9572 10.5H1.04282L0.855318 11.25H11.1447L10.9572 10.5Z" fill="white"/>
</svg>
